<svg width="48" height="48" viewBox="0 0 48 48" fill="none" xmlns="http://www.w3.org/2000/svg">
<circle cx="20" cy="20" r="20" transform="matrix(-1 0 0 1 44 4)" fill="#28BB4E"/>
<path d="M26.569 13C28.9615 13.3928 31.2111 14.714 32.6394 16.6779C32.9251 17.0707 33.2107 17.4992 33.425 17.9634C32.4966 18.6062 31.5682 19.2132 30.6755 19.8559C30.5326 19.9631 30.4255 20.0345 30.247 20.1059C29.8185 19.0347 29.0686 18.0705 28.1045 17.4278C27.3903 16.9636 26.569 16.6422 25.7478 16.4637C25.9977 15.321 26.2834 14.1784 26.569 13ZM17.9277 14.0355C19.0347 13.6785 20.3201 14.2498 20.7843 15.2853C21.1771 16.0709 21.07 17.1064 20.5344 17.7849C19.8559 18.6419 18.5705 18.9632 17.6063 18.4633C16.9636 18.142 16.4637 17.5349 16.3208 16.8208C16.2137 16.2851 16.2494 15.7138 16.5351 15.2139C16.8208 14.6426 17.3564 14.2498 17.9277 14.0355ZM13 26.212C14.3212 26.1763 15.6067 26.212 16.9279 26.212C17.1778 27.6403 17.7849 28.9972 18.749 30.0684C19.4989 30.9254 20.463 31.5325 21.4985 31.9253C22.9268 32.4609 24.498 32.5323 25.9977 32.1752C27.3546 31.8538 28.5687 31.104 29.4614 29.997C30.0684 29.2472 30.5326 28.3902 30.7826 27.4617C31.961 27.7831 33.0679 28.2116 34.2463 28.5687C34.2106 28.9258 34.0677 29.2829 33.9249 29.6399C33.1393 31.6753 31.6753 33.425 29.7828 34.5319C28.5687 35.2461 27.1761 35.7103 25.7835 35.8888C23.034 36.2459 20.1416 35.6746 17.8206 34.1391C16.5708 33.3179 15.4639 32.2109 14.6783 30.9254C13.7499 29.5685 13.2142 27.926 13 26.212Z" fill="white"/>
</svg>
