<svg width="48" height="48" viewBox="0 0 48 48" fill="none" xmlns="http://www.w3.org/2000/svg">
<circle cx="20" cy="20" r="20" transform="matrix(-1 0 0 1 44 4)" fill="white"/>
<path fill-rule="evenodd" clip-rule="evenodd" d="M10 14.349H14.2911V25.8653C14.2911 27.6877 15.1247 28.7734 15.784 29.2387C15.086 29.8591 12.9534 30.402 11.3636 29.0836C10.4263 28.3064 10 27.0285 10 25.8264V14.349ZM36.8175 23.9153V22.7051H38.1262V18.4592H36.689C36.1373 15.9101 33.8678 14 31.1537 14C28.0271 14 25.4925 16.5347 25.4925 19.6612V29.5765C26.3833 29.7017 27.4445 29.5609 28.3474 28.8122C29.2846 28.0349 29.7108 26.7572 29.7108 25.5551V25.1898H31.8539V20.9439H29.7108V19.6612H29.716C29.716 18.8672 30.3596 18.2236 31.1537 18.2236C31.9477 18.2236 32.5939 18.8672 32.5939 19.6612V23.9153C32.5939 27.0418 35.1312 29.5765 38.2577 29.5765V25.3529C37.4637 25.3529 36.8175 24.7093 36.8175 23.9153ZM20.5657 18.4592V24.6904C20.5657 25.0442 20.2722 25.3309 19.91 25.3309C19.5478 25.3309 19.2544 25.0442 19.2544 24.6904V18.4592H15.0084V25.7877C15.0084 27.106 15.4555 28.7734 17.4901 29.3162C19.5269 29.8597 20.7084 28.7347 20.7084 28.7347C20.6008 29.4758 19.9027 30.0187 18.7783 30.1351C17.9275 30.223 16.8394 29.9412 16.2967 29.7085V33.5912C17.6797 33.999 19.1424 34.1308 20.5739 33.853C23.1719 33.3489 24.8115 31.1776 24.8115 28.2887V18.4592H20.5657Z" fill="#EA0B8C"/>
</svg>
