<svg width="48" height="48" viewBox="0 0 48 48" fill="none" xmlns="http://www.w3.org/2000/svg">
<circle cx="20" cy="20" r="20" transform="matrix(-1 0 0 1 44 4)" fill="#E83963"/>
<path d="M18.0785 32C18.0354 31.9871 17.9916 31.9741 17.9485 31.9619C17.4889 31.8341 17.2606 31.3422 17.4351 30.8941C17.7431 30.1049 18.039 29.3107 18.3363 28.5172C18.3535 28.472 18.3413 28.4073 18.3234 28.3585C17.7137 26.7026 17.1012 25.0474 16.4886 23.3921C16.1719 22.5347 15.8531 21.678 15.5386 20.8199C15.3626 20.3402 15.6298 19.8598 16.1274 19.7507C16.508 19.6674 16.8907 19.8921 17.0351 20.2856C17.4652 21.4569 17.8954 22.6288 18.3255 23.8C18.5374 24.3774 18.7492 24.9554 18.9625 25.5321C18.984 25.591 19.0106 25.6506 19.0479 25.7001C19.1355 25.815 19.2626 25.8143 19.3488 25.6994C19.3861 25.6498 19.412 25.5895 19.4335 25.5306C20.0777 23.7821 20.7211 22.0335 21.3638 20.2849C21.5024 19.9079 21.8277 19.7011 22.219 19.7406C22.5745 19.7765 22.8682 20.0724 22.9091 20.4594C22.9206 20.5664 22.8955 20.6856 22.8582 20.7883C22.5408 21.6601 22.2169 22.5304 21.893 23.4C20.9035 26.0592 19.9111 28.7168 18.9258 31.3774C18.821 31.6603 18.663 31.8715 18.3657 31.9591C18.319 31.9727 18.2717 31.9856 18.225 31.9993H18.077L18.0785 32Z" fill="white"/>
<path d="M9.00072 20.3892C9.01364 20.3461 9.02729 20.3023 9.0395 20.2592C9.14147 19.9102 9.46605 19.6983 9.83443 19.7407C10.1676 19.7788 10.4362 20.0768 10.4542 20.4272C10.4556 20.4502 10.4599 20.4732 10.4649 20.5134C10.5094 20.4825 10.5439 20.4603 10.5769 20.4366C11.076 20.0732 11.6275 19.8369 12.2429 19.768C12.4907 19.7407 12.742 19.7443 12.9919 19.7414C13.3194 19.7371 13.6475 19.7371 13.9757 19.7414C14.3312 19.7457 14.6457 20.0172 14.6859 20.3475C14.734 20.7382 14.5251 21.0735 14.1667 21.1705C14.0863 21.192 14.0001 21.1963 13.9161 21.197C13.4788 21.2013 13.0422 21.2021 12.6049 21.2049C11.6484 21.2121 10.7874 21.8799 10.5439 22.8803C10.4893 23.1036 10.4685 23.3391 10.4664 23.5696C10.4577 24.5211 10.4606 25.4719 10.4642 26.4234C10.4649 26.7221 10.3586 26.9612 10.0987 27.1149C9.67932 27.3626 9.14003 27.1206 9.02801 26.6402C9.02154 26.6137 9.00934 26.5892 9 26.5641C9.00072 24.506 9.00072 22.4472 9.00072 20.3892Z" fill="white"/>
<path d="M30.6023 21.4016C30.6023 22.9412 30.6037 24.4815 30.6023 26.0211C30.6023 26.5956 30.2382 27.0523 29.6817 27.1801C29.5862 27.2024 29.4863 27.2117 29.3887 27.2117C28.532 27.2139 27.6753 27.2225 26.8186 27.2117C24.9559 27.1873 23.4967 25.8401 23.1814 24.1727C22.7929 22.1211 24.1121 20.2677 25.9504 19.8174C26.9421 19.5747 27.8843 19.7147 28.7704 20.2239C28.807 20.2447 28.8422 20.2691 28.8796 20.2878C28.9973 20.3467 29.1208 20.2856 29.1445 20.1564C29.1517 20.119 29.1488 20.0788 29.1488 20.0408C29.1488 18.9378 29.1488 17.8348 29.1503 16.7318C29.1503 16.4136 29.3592 16.135 29.6573 16.0366C30.1061 15.8887 30.575 16.2061 30.603 16.6765C30.6066 16.7397 30.6073 16.8036 30.6073 16.8668C30.6073 18.3784 30.6073 19.89 30.6073 21.4016H30.6023ZM29.1503 24.3903C29.1503 24.1117 29.1546 23.8338 29.1481 23.5551C29.1445 23.4079 29.1338 23.2593 29.1079 23.1149C28.9004 21.948 27.7744 21.1553 26.606 21.329C25.4298 21.5043 24.5853 22.6101 24.7332 23.7871C24.8726 24.8966 25.8061 25.7403 26.922 25.7439C27.5281 25.7461 28.1349 25.7446 28.741 25.7439C29.0045 25.7439 29.1503 25.596 29.1503 25.3296C29.1503 25.0158 29.1503 24.7027 29.1503 24.3889V24.3903Z" fill="white"/>
<path d="M35.6849 24.1909C34.8986 24.1909 34.1123 24.1909 33.326 24.1909C33.0832 24.1909 33.0057 24.3165 33.1227 24.5298C33.5026 25.2206 34.0785 25.6443 34.8656 25.7377C35.5456 25.8181 36.1869 25.6659 36.7585 25.2867C37.0981 25.0612 37.4672 25.184 37.6798 25.4217C37.9168 25.6867 37.9254 26.0508 37.6884 26.3366C37.613 26.4278 37.5204 26.5089 37.422 26.575C36.8813 26.9412 36.2895 27.1602 35.6318 27.2033C34.8763 27.2529 34.146 27.1746 33.4667 26.8206C32.3386 26.2324 31.6478 25.3075 31.4467 24.0544C31.1293 22.0754 32.4089 20.2198 34.3737 19.8119C35.9276 19.4888 37.5979 20.1803 38.39 21.5705C38.6701 22.0617 38.8216 22.5917 38.856 23.1554C38.8639 23.2818 38.8826 23.411 38.8647 23.5345C38.8043 23.9532 38.5149 24.1859 38.0661 24.1866C37.2726 24.188 36.4791 24.1866 35.6856 24.1866V24.1909H35.6849ZM35.1463 22.7439C35.7596 22.7439 36.3729 22.7461 36.9861 22.741C37.0464 22.741 37.1197 22.7152 37.1642 22.6757C37.2374 22.6103 37.213 22.5256 37.1728 22.443C36.7628 21.6057 35.8307 21.0959 34.8993 21.205C34.0857 21.3005 33.4969 21.7242 33.1062 22.4373C33.01 22.6132 33.127 22.7504 33.2965 22.7475C33.9134 22.7367 34.5302 22.7432 35.1463 22.7432V22.7439Z" fill="white"/>
<path d="M26.9351 24.4687C27.4558 24.4687 27.8779 24.0466 27.8779 23.5259C27.8779 23.0051 27.4558 22.583 26.9351 22.583C26.4143 22.583 25.9922 23.0051 25.9922 23.5259C25.9922 24.0466 26.4143 24.4687 26.9351 24.4687Z" fill="#F597AF"/>
</svg>
