<svg width="48" height="48" viewBox="0 0 48 48" fill="none" xmlns="http://www.w3.org/2000/svg">
<circle cx="20" cy="20" r="20" transform="matrix(-1 0 0 1 44 4)" fill="black"/>
<path d="M11.6573 26.1419C11.779 26.4649 11.9476 26.7411 12.1629 26.9705C12.3783 27.1999 12.6334 27.3755 12.9284 27.4972C13.2233 27.6189 13.544 27.6798 13.8905 27.6798C14.2276 27.6798 14.5436 27.6166 14.8385 27.4902C15.1335 27.3637 15.3909 27.1859 15.611 26.9565C15.831 26.7271 16.0019 26.4532 16.1236 26.1348C16.2454 25.8165 16.3062 25.4607 16.3062 25.0674V19H17.7809V28.8315H16.3202V27.9185C15.9925 28.265 15.6063 28.5318 15.1615 28.7191C14.7167 28.9064 14.2369 29 13.7219 29C13.1976 29 12.7083 28.9087 12.2542 28.7261C11.8001 28.5435 11.4068 28.2837 11.0744 27.9466C10.7421 27.6095 10.4799 27.2046 10.2879 26.7318C10.096 26.2589 10 25.7322 10 25.1517V19H11.4747V25.0674C11.4747 25.4607 11.5356 25.8188 11.6573 26.1419ZM20.3229 19V22.5815C20.6506 22.2537 21.0299 21.9939 21.4606 21.802C21.8913 21.61 22.3595 21.514 22.8651 21.514C23.3894 21.514 23.8809 21.6123 24.3398 21.809C24.7986 22.0056 25.1965 22.2725 25.5336 22.6095C25.8707 22.9466 26.1375 23.3446 26.3342 23.8034C26.5308 24.2622 26.6291 24.7491 26.6291 25.2641C26.6291 25.779 26.5308 26.2636 26.3342 26.7177C26.1375 27.1718 25.8707 27.5674 25.5336 27.9045C25.1965 28.2416 24.7986 28.5084 24.3398 28.705C23.8809 28.9017 23.3894 29 22.8651 29C22.3594 29 21.8889 28.904 21.4536 28.712C21.0182 28.5201 20.6366 28.2603 20.3089 27.9326V28.8314H18.9044V19H20.3229ZM20.4844 26.2331C20.6108 26.5328 20.7864 26.795 21.0111 27.0197C21.2359 27.2444 21.498 27.4223 21.7976 27.5534C22.0973 27.6845 22.4203 27.75 22.7668 27.75C23.1039 27.75 23.4222 27.6845 23.7218 27.5534C24.0214 27.4223 24.2812 27.2444 24.5013 27.0197C24.7213 26.795 24.8969 26.5328 25.028 26.2331C25.1591 25.9335 25.2246 25.6105 25.2246 25.2641C25.2246 24.9176 25.1591 24.5922 25.028 24.2879C24.8969 23.9836 24.7213 23.7191 24.5013 23.4944C24.2813 23.2697 24.0215 23.0941 23.7218 22.9677C23.4222 22.8413 23.1038 22.7781 22.7668 22.7781C22.4297 22.7781 22.1113 22.8413 21.8117 22.9677C21.5121 23.0941 21.2499 23.2697 21.0252 23.4944C20.8005 23.7191 20.6226 23.9836 20.4915 24.2879C20.3604 24.5922 20.2949 24.9176 20.2949 25.2641C20.2948 25.6105 20.358 25.9335 20.4844 26.2331ZM27.4295 23.8174C27.6168 23.368 27.8743 22.9724 28.202 22.6307C28.5297 22.2889 28.9183 22.0197 29.3677 21.8231C29.8172 21.6264 30.3041 21.5281 30.8284 21.5281C31.3434 21.5281 31.8209 21.6218 32.261 21.809C32.7011 21.9963 33.0803 22.2561 33.3986 22.5885C33.717 22.9209 33.9651 23.3142 34.143 23.7683C34.3209 24.2224 34.4099 24.7164 34.4099 25.2501V25.7136H28.5812C28.6281 26.0038 28.7217 26.273 28.8621 26.5211C29.0026 26.7692 29.1781 26.9846 29.3888 27.1672C29.5995 27.3498 29.8382 27.4926 30.1051 27.5955C30.372 27.6985 30.6552 27.7501 30.9548 27.7501C31.8069 27.7501 32.4951 27.3989 33.0195 26.6967L34.0447 27.4551C33.6889 27.9326 33.2489 28.3072 32.7245 28.5787C32.2002 28.8502 31.6103 28.986 30.9549 28.986C30.4211 28.986 29.9226 28.8923 29.4591 28.7051C28.9956 28.5178 28.593 28.2556 28.2512 27.9185C27.9095 27.5814 27.6403 27.1859 27.4436 26.7318C27.247 26.2776 27.1487 25.7837 27.1487 25.25C27.1486 24.7444 27.2423 24.2669 27.4295 23.8174ZM29.4028 23.2626C29.0049 23.595 28.7404 24.0375 28.6093 24.5899H32.9773C32.8556 24.0375 32.5957 23.595 32.1978 23.2626C31.7999 22.9303 31.334 22.7641 30.8003 22.7641C30.2666 22.7641 29.8008 22.9303 29.4028 23.2626ZM37.0643 23.4242C36.7647 23.7519 36.6148 24.1966 36.6148 24.7584V28.8315H35.1963V21.6686H36.6008V22.5534C36.7787 22.2631 37.0104 22.0337 37.296 21.8652C37.5816 21.6966 37.921 21.6123 38.3143 21.6123H38.8058V22.9326H38.2159C37.7478 22.9326 37.3639 23.0964 37.0643 23.4242Z" fill="white"/>
</svg>
