<svg width="48" height="48" viewBox="0 0 48 48" fill="none" xmlns="http://www.w3.org/2000/svg">
<circle cx="20" cy="20" r="20" transform="matrix(-1 0 0 1 44 4)" fill="#204BA0"/>
<path d="M25.3973 30.5545C26.3942 30.5545 27.3389 30.5479 28.2804 30.561C28.4272 30.5626 28.6279 30.6148 28.7095 30.7192C29.4029 31.602 30.3101 31.5546 31.2108 31.2365C32.2028 30.8857 32.3774 30.0013 32.4214 29.0501C30.2416 30.7992 27.2737 30.2298 25.8411 27.8215C24.2861 25.2076 25.1982 20.8903 28.9461 20.0908C30.222 19.8183 31.4049 20.0141 32.4492 20.9833C32.4769 20.6293 32.4965 20.3698 32.5193 20.0533H35.2376C35.2784 20.1202 35.329 20.1642 35.329 20.2099C35.3339 23.5091 35.3763 26.8099 35.3192 30.109C35.2964 31.4437 34.5344 32.4504 33.3727 33.0965C31.4653 34.1555 29.4796 34.3056 27.4662 33.4294C26.231 32.8909 25.443 31.7798 25.3973 30.5545ZM30.2449 22.7944C28.9918 22.7993 28.0585 23.744 28.0519 25.0118C28.0454 26.3253 28.9869 27.3108 30.2514 27.3157C31.5518 27.3206 32.4965 26.3595 32.4753 25.0526C32.4541 23.7016 31.555 22.7912 30.2449 22.7944Z" fill="white"/>
<path d="M16.719 27.4745C17.9134 27.4745 18.9413 27.4859 19.9676 27.4696C20.3706 27.463 20.5289 27.5952 20.5599 28.021C20.71 30.1291 20.723 30.1291 18.6656 30.1291H13.043C13.0854 28.9772 12.7036 27.9101 13.6287 26.8985C14.81 25.6095 15.8314 24.1737 17.0437 22.6465C15.9309 22.6465 14.9487 22.6008 13.9746 22.6611C13.2143 22.7085 12.9989 22.4343 13.0152 21.6936C13.0544 20 13.0201 19.9983 14.7513 19.9983C16.4547 19.9983 18.1598 20.0163 19.8632 19.9885C20.3967 19.9804 20.5338 20.1664 20.5664 20.6869C20.6398 21.8633 20.431 22.8667 19.5907 23.7935C18.5823 24.9046 17.7323 26.1594 16.719 27.4761V27.4745Z" fill="white"/>
<path d="M21.3594 19.9995C22.2307 19.9995 23.0644 19.9669 23.8917 20.024C24.0777 20.037 24.3942 20.3552 24.3975 20.5347C24.4301 23.5336 24.4317 26.5326 24.3975 29.5315C24.3958 29.7306 24.0548 30.0797 23.8492 30.0977C23.0481 30.1646 22.2388 30.1254 21.361 30.1254V19.9995H21.3594Z" fill="white"/>
<path d="M25.2854 16.5162C25.2887 17.9276 24.1465 19.0974 22.7923 19.0697C21.4723 19.0436 20.3302 17.8802 20.3204 16.5505C20.3106 15.1978 21.5131 13.9807 22.838 14.0002C24.1824 14.0198 25.2822 15.1505 25.2838 16.5146L25.2854 16.5162Z" fill="white"/>
<path d="M30.2437 22.7949C31.5523 22.79 32.453 23.7005 32.4742 25.0531C32.4954 26.3601 31.5507 27.3211 30.2503 27.3162C28.9857 27.3113 28.0443 26.3258 28.0508 25.0123C28.0573 23.7429 28.9906 22.7998 30.2437 22.7949Z" fill="#204BA0"/>
</svg>
