<svg width="89" height="32" viewBox="0 0 89 32" fill="none" xmlns="http://www.w3.org/2000/svg">
<rect width="89" height="32" rx="16" fill="black" fill-opacity="0.4"/>
<path d="M24.134 21L23.056 18.228H18.66L17.61 21H16.14L20.088 11.074H21.67L25.618 21H24.134ZM20.844 12.502L19.15 16.954H22.566L20.844 12.502ZM30.173 15.274C29.109 15.274 28.129 16.058 28.129 17.626C28.129 19.166 29.095 19.992 30.187 19.992C31.447 19.992 31.909 19.138 32.063 18.606L33.225 19.11C32.903 20.076 31.937 21.21 30.187 21.21C28.227 21.21 26.785 19.67 26.785 17.626C26.785 15.526 28.255 14.056 30.173 14.056C31.965 14.056 32.889 15.176 33.169 16.198L31.979 16.702C31.811 16.044 31.321 15.274 30.173 15.274ZM37.1328 12.138V14.266H38.5888V15.456H37.1328V18.956C37.1328 19.572 37.3848 19.88 38.0708 19.88C38.2388 19.88 38.4768 19.852 38.5888 19.824V20.944C38.4768 20.986 38.1408 21.07 37.6928 21.07C36.5448 21.07 35.8168 20.37 35.8168 19.152V15.456H34.5288V14.266H34.8928C35.6208 14.266 35.9288 13.818 35.9288 13.23V12.138H37.1328ZM42.2474 21H40.9454V14.266H42.2474V21ZM40.6514 11.718C40.6514 11.186 41.0714 10.766 41.5894 10.766C42.1214 10.766 42.5414 11.186 42.5414 11.718C42.5414 12.236 42.1214 12.656 41.5894 12.656C41.0714 12.656 40.6514 12.236 40.6514 11.718ZM50.8544 14.266L48.1664 21H46.8364L44.1064 14.266H45.5904L47.5084 19.46L49.4404 14.266H50.8544ZM52.2254 19.194C52.2254 17.99 53.1074 17.318 54.2694 17.15L56.0894 16.884C56.4954 16.828 56.6074 16.618 56.6074 16.38C56.6074 15.722 56.1734 15.176 55.1514 15.176C54.2274 15.176 53.7094 15.75 53.6254 16.534L52.3654 16.24C52.5054 14.952 53.6674 14.056 55.1234 14.056C57.1394 14.056 57.9234 15.204 57.9234 16.52V19.894C57.9234 20.482 57.9794 20.832 58.0074 21H56.7194C56.6914 20.832 56.6494 20.58 56.6494 20.09C56.3554 20.566 55.6834 21.21 54.4794 21.21C53.1074 21.21 52.2254 20.258 52.2254 19.194ZM54.6614 20.104C55.7394 20.104 56.6074 19.586 56.6074 18.116V17.808L54.5494 18.116C53.9894 18.2 53.5694 18.522 53.5694 19.124C53.5694 19.628 53.9894 20.104 54.6614 20.104ZM62.3375 12.138V14.266H63.7935V15.456H62.3375V18.956C62.3375 19.572 62.5895 19.88 63.2755 19.88C63.4435 19.88 63.6815 19.852 63.7935 19.824V20.944C63.6815 20.986 63.3455 21.07 62.8975 21.07C61.7495 21.07 61.0215 20.37 61.0215 19.152V15.456H59.7335V14.266H60.0975C60.8255 14.266 61.1335 13.818 61.1335 13.23V12.138H62.3375ZM66.9357 16.94H70.6177C70.5897 15.974 69.9597 15.218 68.7697 15.218C67.6637 15.218 66.9917 16.072 66.9357 16.94ZM70.8137 18.69L71.9477 19.082C71.5697 20.272 70.4917 21.21 68.9237 21.21C67.1177 21.21 65.5357 19.894 65.5357 17.612C65.5357 15.498 67.0617 14.056 68.7557 14.056C70.8277 14.056 71.9897 15.484 71.9897 17.584C71.9897 17.752 71.9757 17.92 71.9617 18.004H66.8937C66.9217 19.208 67.7897 20.048 68.9237 20.048C70.0157 20.048 70.5617 19.446 70.8137 18.69Z" fill="white"/>
</svg>
