<svg width="75" height="32" viewBox="0 0 75 32" fill="none" xmlns="http://www.w3.org/2000/svg">
<rect width="75" height="32" rx="16" fill="#00C17D"/>
<path d="M24.134 21L23.056 18.228H18.66L17.61 21H16.14L20.088 11.074H21.67L25.618 21H24.134ZM20.844 12.502L19.15 16.954H22.566L20.844 12.502ZM30.173 15.274C29.109 15.274 28.129 16.058 28.129 17.626C28.129 19.166 29.095 19.992 30.187 19.992C31.447 19.992 31.909 19.138 32.063 18.606L33.225 19.11C32.903 20.076 31.937 21.21 30.187 21.21C28.227 21.21 26.785 19.67 26.785 17.626C26.785 15.526 28.255 14.056 30.173 14.056C31.965 14.056 32.889 15.176 33.169 16.198L31.979 16.702C31.811 16.044 31.321 15.274 30.173 15.274ZM37.1328 12.138V14.266H38.5888V15.456H37.1328V18.956C37.1328 19.572 37.3848 19.88 38.0708 19.88C38.2388 19.88 38.4768 19.852 38.5888 19.824V20.944C38.4768 20.986 38.1408 21.07 37.6928 21.07C36.5448 21.07 35.8168 20.37 35.8168 19.152V15.456H34.5288V14.266H34.8928C35.6208 14.266 35.9288 13.818 35.9288 13.23V12.138H37.1328ZM42.2474 21H40.9454V14.266H42.2474V21ZM40.6514 11.718C40.6514 11.186 41.0714 10.766 41.5894 10.766C42.1214 10.766 42.5414 11.186 42.5414 11.718C42.5414 12.236 42.1214 12.656 41.5894 12.656C41.0714 12.656 40.6514 12.236 40.6514 11.718ZM50.8544 14.266L48.1664 21H46.8364L44.1064 14.266H45.5904L47.5084 19.46L49.4404 14.266H50.8544ZM53.3627 16.94H57.0447C57.0167 15.974 56.3867 15.218 55.1967 15.218C54.0907 15.218 53.4187 16.072 53.3627 16.94ZM57.2407 18.69L58.3747 19.082C57.9967 20.272 56.9187 21.21 55.3507 21.21C53.5447 21.21 51.9627 19.894 51.9627 17.612C51.9627 15.498 53.4887 14.056 55.1827 14.056C57.2547 14.056 58.4167 15.484 58.4167 17.584C58.4167 17.752 58.4027 17.92 58.3887 18.004H53.3207C53.3487 19.208 54.2167 20.048 55.3507 20.048C56.4427 20.048 56.9887 19.446 57.2407 18.69Z" fill="white"/>
</svg>
