<svg width="127" height="32" viewBox="0 0 127 32" fill="none" xmlns="http://www.w3.org/2000/svg">
<rect width="127" height="32" rx="16" fill="black" fill-opacity="0.06"/>
<path d="M24.134 21L23.056 18.228H18.66L17.61 21H16.14L20.088 11.074H21.67L25.618 21H24.134ZM20.844 12.502L19.15 16.954H22.566L20.844 12.502ZM28.129 17.612C28.129 18.998 28.843 20.02 30.103 20.02C31.307 20.02 32.049 18.97 32.049 17.584C32.049 16.198 31.321 15.246 30.117 15.246C28.913 15.246 28.129 16.226 28.129 17.612ZM32.063 20.09V19.978C31.741 20.622 31.027 21.182 29.977 21.182C28.003 21.182 26.785 19.614 26.785 17.612C26.785 15.708 28.073 14.084 29.977 14.084C31.167 14.084 31.811 14.672 32.035 15.218V10.864H33.337V19.754C33.337 20.398 33.393 20.888 33.407 21H32.133C32.105 20.846 32.063 20.496 32.063 20.09ZM36.9595 17.612C36.9595 18.998 37.6735 20.02 38.9335 20.02C40.1375 20.02 40.8795 18.97 40.8795 17.584C40.8795 16.198 40.1515 15.246 38.9475 15.246C37.7435 15.246 36.9595 16.226 36.9595 17.612ZM40.8935 20.09V19.978C40.5715 20.622 39.8575 21.182 38.8075 21.182C36.8335 21.182 35.6155 19.614 35.6155 17.612C35.6155 15.708 36.9035 14.084 38.8075 14.084C39.9975 14.084 40.6415 14.672 40.8655 15.218V10.864H42.1675V19.754C42.1675 20.398 42.2235 20.888 42.2375 21H40.9635C40.9355 20.846 40.8935 20.496 40.8935 20.09ZM56.1199 21L55.0419 18.228H50.6459L49.5959 21H48.1259L52.0739 11.074H53.6559L57.6039 21H56.1199ZM52.8299 12.502L51.1359 16.954H54.5519L52.8299 12.502ZM58.8377 19.25L60.0277 18.83C60.1117 19.53 60.6437 20.09 61.5957 20.09C62.3377 20.09 62.7437 19.67 62.7437 19.194C62.7437 18.774 62.4357 18.452 61.8757 18.326L60.7277 18.074C59.6777 17.85 59.0477 17.136 59.0477 16.184C59.0477 15.036 60.1257 14.056 61.4417 14.056C63.2897 14.056 63.8637 15.26 64.0037 15.862L62.8417 16.296C62.7857 15.946 62.5057 15.176 61.4417 15.176C60.7697 15.176 60.3217 15.61 60.3217 16.072C60.3217 16.478 60.5737 16.772 61.0917 16.884L62.1837 17.122C63.4017 17.388 64.0457 18.13 64.0457 19.124C64.0457 20.076 63.2477 21.21 61.5817 21.21C59.7337 21.21 58.9497 20.02 58.8377 19.25ZM65.7677 19.25L66.9577 18.83C67.0417 19.53 67.5737 20.09 68.5257 20.09C69.2677 20.09 69.6737 19.67 69.6737 19.194C69.6737 18.774 69.3657 18.452 68.8057 18.326L67.6577 18.074C66.6077 17.85 65.9777 17.136 65.9777 16.184C65.9777 15.036 67.0557 14.056 68.3717 14.056C70.2197 14.056 70.7937 15.26 70.9337 15.862L69.7717 16.296C69.7157 15.946 69.4357 15.176 68.3717 15.176C67.6997 15.176 67.2517 15.61 67.2517 16.072C67.2517 16.478 67.5037 16.772 68.0217 16.884L69.1137 17.122C70.3317 17.388 70.9757 18.13 70.9757 19.124C70.9757 20.076 70.1777 21.21 68.5117 21.21C66.6637 21.21 65.8797 20.02 65.7677 19.25ZM74.6298 21H73.3278V14.266H74.6298V21ZM73.0338 11.718C73.0338 11.186 73.4538 10.766 73.9718 10.766C74.5038 10.766 74.9238 11.186 74.9238 11.718C74.9238 12.236 74.5038 12.656 73.9718 12.656C73.4538 12.656 73.0338 12.236 73.0338 11.718ZM76.8388 19.25L78.0288 18.83C78.1128 19.53 78.6448 20.09 79.5968 20.09C80.3388 20.09 80.7448 19.67 80.7448 19.194C80.7448 18.774 80.4368 18.452 79.8768 18.326L78.7288 18.074C77.6788 17.85 77.0488 17.136 77.0488 16.184C77.0488 15.036 78.1268 14.056 79.4428 14.056C81.2908 14.056 81.8648 15.26 82.0048 15.862L80.8428 16.296C80.7868 15.946 80.5068 15.176 79.4428 15.176C78.7708 15.176 78.3228 15.61 78.3228 16.072C78.3228 16.478 78.5748 16.772 79.0928 16.884L80.1848 17.122C81.4028 17.388 82.0468 18.13 82.0468 19.124C82.0468 20.076 81.2488 21.21 79.5828 21.21C77.7348 21.21 76.9508 20.02 76.8388 19.25ZM86.1629 12.138V14.266H87.6189V15.456H86.1629V18.956C86.1629 19.572 86.4149 19.88 87.1009 19.88C87.2689 19.88 87.5069 19.852 87.6189 19.824V20.944C87.5069 20.986 87.1709 21.07 86.7229 21.07C85.5749 21.07 84.8469 20.37 84.8469 19.152V15.456H83.5589V14.266H83.9229C84.6509 14.266 84.9589 13.818 84.9589 13.23V12.138H86.1629ZM89.5555 19.194C89.5555 17.99 90.4375 17.318 91.5995 17.15L93.4195 16.884C93.8255 16.828 93.9375 16.618 93.9375 16.38C93.9375 15.722 93.5035 15.176 92.4815 15.176C91.5575 15.176 91.0395 15.75 90.9555 16.534L89.6955 16.24C89.8355 14.952 90.9975 14.056 92.4535 14.056C94.4695 14.056 95.2535 15.204 95.2535 16.52V19.894C95.2535 20.482 95.3095 20.832 95.3375 21H94.0495C94.0215 20.832 93.9795 20.58 93.9795 20.09C93.6855 20.566 93.0135 21.21 91.8095 21.21C90.4375 21.21 89.5555 20.258 89.5555 19.194ZM91.9915 20.104C93.0695 20.104 93.9375 19.586 93.9375 18.116V17.808L91.8795 18.116C91.3195 18.2 90.8995 18.522 90.8995 19.124C90.8995 19.628 91.3195 20.104 91.9915 20.104ZM99.2196 17.108V21H97.9036V14.266H99.1916V15.232C99.6816 14.392 100.48 14.07 101.264 14.07C102.874 14.07 103.672 15.232 103.672 16.73V21H102.356V16.954C102.356 16.016 101.964 15.26 100.788 15.26C99.7516 15.26 99.2196 16.086 99.2196 17.108ZM108.129 12.138V14.266H109.585V15.456H108.129V18.956C108.129 19.572 108.381 19.88 109.067 19.88C109.235 19.88 109.473 19.852 109.585 19.824V20.944C109.473 20.986 109.137 21.07 108.689 21.07C107.541 21.07 106.813 20.37 106.813 19.152V15.456H105.525V14.266H105.889C106.617 14.266 106.925 13.818 106.925 13.23V12.138H108.129Z" fill="black" fill-opacity="0.72"/>
</svg>
