<svg width="100" height="36" viewBox="0 0 100 36" fill="none" xmlns="http://www.w3.org/2000/svg">
<rect width="100" height="36" rx="18" fill="black" fill-opacity="0.06"/>
<path d="M24.134 23L23.056 20.228H18.66L17.61 23H16.14L20.088 13.074H21.67L25.618 23H24.134ZM20.844 14.502L19.15 18.954H22.566L20.844 14.502ZM28.129 19.612C28.129 20.998 28.843 22.02 30.103 22.02C31.307 22.02 32.049 20.97 32.049 19.584C32.049 18.198 31.321 17.246 30.117 17.246C28.913 17.246 28.129 18.226 28.129 19.612ZM32.063 22.09V21.978C31.741 22.622 31.027 23.182 29.977 23.182C28.003 23.182 26.785 21.614 26.785 19.612C26.785 17.708 28.073 16.084 29.977 16.084C31.167 16.084 31.811 16.672 32.035 17.218V12.864H33.337V21.754C33.337 22.398 33.393 22.888 33.407 23H32.133C32.105 22.846 32.063 22.496 32.063 22.09ZM36.9595 19.612C36.9595 20.998 37.6735 22.02 38.9335 22.02C40.1375 22.02 40.8795 20.97 40.8795 19.584C40.8795 18.198 40.1515 17.246 38.9475 17.246C37.7435 17.246 36.9595 18.226 36.9595 19.612ZM40.8935 22.09V21.978C40.5715 22.622 39.8575 23.182 38.8075 23.182C36.8335 23.182 35.6155 21.614 35.6155 19.612C35.6155 17.708 36.9035 16.084 38.8075 16.084C39.9975 16.084 40.6415 16.672 40.8655 17.218V12.864H42.1675V21.754C42.1675 22.398 42.2235 22.888 42.2375 23H40.9635C40.9355 22.846 40.8935 22.496 40.8935 22.09ZM59.9699 23H58.6119V15.272L55.2239 23H53.9639L50.6039 15.272V23H49.2459V13.074H51.1079L54.6079 21.152L58.1359 13.074H59.9699V23ZM65.838 22.034C66.958 22.034 67.938 21.194 67.938 19.626C67.938 18.072 66.958 17.232 65.838 17.232C64.718 17.232 63.738 18.072 63.738 19.626C63.738 21.194 64.718 22.034 65.838 22.034ZM65.838 16.056C67.854 16.056 69.282 17.582 69.282 19.626C69.282 21.684 67.854 23.21 65.838 23.21C63.822 23.21 62.394 21.684 62.394 19.626C62.394 17.582 63.822 16.056 65.838 16.056ZM75.3037 16.196V17.596C75.1077 17.568 74.9117 17.554 74.7297 17.554C73.6237 17.554 72.8817 18.142 72.8817 19.626V23H71.5657V16.266H72.8537V17.442C73.3437 16.406 74.1837 16.154 74.8697 16.154C75.0517 16.154 75.2337 16.182 75.3037 16.196ZM78.092 18.94H81.774C81.746 17.974 81.116 17.218 79.926 17.218C78.82 17.218 78.148 18.072 78.092 18.94ZM81.97 20.69L83.104 21.082C82.726 22.272 81.648 23.21 80.08 23.21C78.274 23.21 76.692 21.894 76.692 19.612C76.692 17.498 78.218 16.056 79.912 16.056C81.984 16.056 83.146 17.484 83.146 19.584C83.146 19.752 83.132 19.92 83.118 20.004H78.05C78.078 21.208 78.946 22.048 80.08 22.048C81.172 22.048 81.718 21.446 81.97 20.69Z" fill="black" fill-opacity="0.72"/>
</svg>
