<svg width="199" height="198" viewBox="0 0 199 198" fill="none" xmlns="http://www.w3.org/2000/svg">
  <g clip-path="url(#clip0_14513_90532)">
    <path d="M117.75 0L79.25 0C76.2124 0 73.75 2.46244 73.75 5.5V192.5C73.75 195.538 76.2124 198 79.25 198H117.75C120.788 198 123.25 195.538 123.25 192.5V5.5C123.25 2.46243 120.788 0 117.75 0Z" fill="black"/>
    <path d="M22.3906 32.847L3.14062 66.189C1.62184 68.8196 2.52316 72.1834 5.15377 73.7021L167.101 167.202C169.731 168.721 173.095 167.82 174.614 165.189L193.864 131.847C195.382 129.216 194.481 125.853 191.851 124.334L29.9038 30.8339C27.2732 29.3151 23.9094 30.2164 22.3906 32.847Z" fill="black"/>
    <path d="M3.14062 131.847L22.3906 165.189C23.9094 167.82 27.2732 168.721 29.9038 167.202L191.851 73.7021C194.481 72.1834 195.382 68.8196 193.864 66.189L174.614 32.847C173.095 30.2164 169.731 29.3151 167.101 30.8339L5.15376 124.334C2.52316 125.853 1.62184 129.216 3.14062 131.847Z" fill="black"/>
  </g>
  <defs>
    <clipPath id="clip0_14513_90532">
      <rect x="0.390625" width="198" height="198" rx="4.95" fill="white"/>
    </clipPath>
  </defs>
</svg>
