<svg width="296" height="32" viewBox="0 0 296 32" fill="none" xmlns="http://www.w3.org/2000/svg">
<rect width="296" height="32" rx="2" fill="black"/>
<path d="M136.654 11.492H139.582C141.214 11.492 142.174 12.452 142.174 13.784C142.174 14.684 141.646 15.356 140.914 15.62C141.814 15.86 142.438 16.64 142.438 17.648C142.438 19.016 141.382 20 139.798 20H136.654V11.492ZM138.082 15.092H139.39C140.23 15.092 140.734 14.612 140.734 13.904C140.734 13.184 140.23 12.716 139.354 12.716H138.082V15.092ZM138.082 18.776H139.546C140.41 18.776 140.974 18.308 140.974 17.552C140.974 16.82 140.482 16.304 139.594 16.304H138.082V18.776ZM147.815 20.18C146.039 20.18 144.647 19.088 144.647 17.036V11.492H146.075V16.952C146.075 18.152 146.735 18.812 147.815 18.812C148.907 18.812 149.555 18.152 149.555 16.952V11.492H150.995V17.036C150.995 19.088 149.603 20.18 147.815 20.18ZM155.81 16.4L152.834 11.492H154.538L156.578 15.056L158.63 11.492H160.25L157.25 16.4V20H155.81V16.4Z" fill="white"/>
</svg>
