<svg width="111" height="32" viewBox="0 0 111 32" fill="none" xmlns="http://www.w3.org/2000/svg">
<rect width="111" height="32" rx="16" fill="black" fill-opacity="0.06"/>
<path d="M18.632 19.782H20.662C22.496 19.782 24.036 18.55 24.036 16.058C24.036 13.552 22.524 12.292 20.69 12.292H18.632V19.782ZM20.704 21H17.26V11.074H20.732C23.252 11.074 25.45 12.796 25.45 16.058C25.45 19.306 23.224 21 20.704 21ZM28.6502 16.94H32.3322C32.3042 15.974 31.6742 15.218 30.4842 15.218C29.3782 15.218 28.7062 16.072 28.6502 16.94ZM32.5282 18.69L33.6622 19.082C33.2842 20.272 32.2062 21.21 30.6382 21.21C28.8322 21.21 27.2502 19.894 27.2502 17.612C27.2502 15.498 28.7762 14.056 30.4702 14.056C32.5422 14.056 33.7042 15.484 33.7042 17.584C33.7042 17.752 33.6902 17.92 33.6762 18.004H28.6082C28.6362 19.208 29.5042 20.048 30.6382 20.048C31.7302 20.048 32.2762 19.446 32.5282 18.69ZM39.2881 17.556H35.4941V16.408H39.2881V17.556ZM41.2227 19.194C41.2227 17.99 42.1047 17.318 43.2667 17.15L45.0867 16.884C45.4927 16.828 45.6047 16.618 45.6047 16.38C45.6047 15.722 45.1707 15.176 44.1487 15.176C43.2247 15.176 42.7067 15.75 42.6227 16.534L41.3627 16.24C41.5027 14.952 42.6647 14.056 44.1207 14.056C46.1367 14.056 46.9207 15.204 46.9207 16.52V19.894C46.9207 20.482 46.9767 20.832 47.0047 21H45.7167C45.6887 20.832 45.6467 20.58 45.6467 20.09C45.3527 20.566 44.6807 21.21 43.4767 21.21C42.1047 21.21 41.2227 20.258 41.2227 19.194ZM43.6587 20.104C44.7367 20.104 45.6047 19.586 45.6047 18.116V17.808L43.5467 18.116C42.9867 18.2 42.5667 18.522 42.5667 19.124C42.5667 19.628 42.9867 20.104 43.6587 20.104ZM52.3988 15.274C51.3348 15.274 50.3548 16.058 50.3548 17.626C50.3548 19.166 51.3208 19.992 52.4128 19.992C53.6728 19.992 54.1348 19.138 54.2888 18.606L55.4508 19.11C55.1288 20.076 54.1628 21.21 52.4128 21.21C50.4528 21.21 49.0108 19.67 49.0108 17.626C49.0108 15.526 50.4808 14.056 52.3988 14.056C54.1908 14.056 55.1148 15.176 55.3948 16.198L54.2048 16.702C54.0368 16.044 53.5468 15.274 52.3988 15.274ZM59.3586 12.138V14.266H60.8146V15.456H59.3586V18.956C59.3586 19.572 59.6106 19.88 60.2966 19.88C60.4646 19.88 60.7026 19.852 60.8146 19.824V20.944C60.7026 20.986 60.3666 21.07 59.9186 21.07C58.7706 21.07 58.0426 20.37 58.0426 19.152V15.456H56.7546V14.266H57.1186C57.8466 14.266 58.1546 13.818 58.1546 13.23V12.138H59.3586ZM64.4732 21H63.1712V14.266H64.4732V21ZM62.8772 11.718C62.8772 11.186 63.2972 10.766 63.8152 10.766C64.3472 10.766 64.7672 11.186 64.7672 11.718C64.7672 12.236 64.3472 12.656 63.8152 12.656C63.2972 12.656 62.8772 12.236 62.8772 11.718ZM73.0802 14.266L70.3922 21H69.0622L66.3322 14.266H67.8162L69.7342 19.46L71.6662 14.266H73.0802ZM74.4512 19.194C74.4512 17.99 75.3332 17.318 76.4952 17.15L78.3152 16.884C78.7212 16.828 78.8332 16.618 78.8332 16.38C78.8332 15.722 78.3992 15.176 77.3772 15.176C76.4532 15.176 75.9352 15.75 75.8512 16.534L74.5912 16.24C74.7312 14.952 75.8932 14.056 77.3492 14.056C79.3652 14.056 80.1492 15.204 80.1492 16.52V19.894C80.1492 20.482 80.2052 20.832 80.2332 21H78.9452C78.9172 20.832 78.8752 20.58 78.8752 20.09C78.5812 20.566 77.9092 21.21 76.7052 21.21C75.3332 21.21 74.4512 20.258 74.4512 19.194ZM76.8872 20.104C77.9652 20.104 78.8332 19.586 78.8332 18.116V17.808L76.7752 18.116C76.2152 18.2 75.7952 18.522 75.7952 19.124C75.7952 19.628 76.2152 20.104 76.8872 20.104ZM84.5633 12.138V14.266H86.0193V15.456H84.5633V18.956C84.5633 19.572 84.8153 19.88 85.5013 19.88C85.6693 19.88 85.9073 19.852 86.0193 19.824V20.944C85.9073 20.986 85.5713 21.07 85.1233 21.07C83.9753 21.07 83.2473 20.37 83.2473 19.152V15.456H81.9593V14.266H82.3233C83.0513 14.266 83.3593 13.818 83.3593 13.23V12.138H84.5633ZM89.1615 16.94H92.8435C92.8155 15.974 92.1855 15.218 90.9955 15.218C89.8895 15.218 89.2175 16.072 89.1615 16.94ZM93.0395 18.69L94.1735 19.082C93.7955 20.272 92.7175 21.21 91.1495 21.21C89.3435 21.21 87.7615 19.894 87.7615 17.612C87.7615 15.498 89.2875 14.056 90.9815 14.056C93.0535 14.056 94.2155 15.484 94.2155 17.584C94.2155 17.752 94.2015 17.92 94.1875 18.004H89.1195C89.1475 19.208 90.0155 20.048 91.1495 20.048C92.2415 20.048 92.7875 19.446 93.0395 18.69Z" fill="black" fill-opacity="0.72"/>
</svg>
