<svg width="77" height="32" viewBox="0 0 77 32" fill="none" xmlns="http://www.w3.org/2000/svg">
<rect width="77" height="32" rx="16" fill="black" fill-opacity="0.06"/>
<path d="M18.632 19.782H20.662C22.496 19.782 24.036 18.55 24.036 16.058C24.036 13.552 22.524 12.292 20.69 12.292H18.632V19.782ZM20.704 21H17.26V11.074H20.732C23.252 11.074 25.45 12.796 25.45 16.058C25.45 19.306 23.224 21 20.704 21ZM28.6502 16.94H32.3322C32.3042 15.974 31.6742 15.218 30.4842 15.218C29.3782 15.218 28.7062 16.072 28.6502 16.94ZM32.5282 18.69L33.6622 19.082C33.2842 20.272 32.2062 21.21 30.6382 21.21C28.8322 21.21 27.2502 19.894 27.2502 17.612C27.2502 15.498 28.7762 14.056 30.4702 14.056C32.5422 14.056 33.7042 15.484 33.7042 17.584C33.7042 17.752 33.6902 17.92 33.6762 18.004H28.6082C28.6362 19.208 29.5042 20.048 30.6382 20.048C31.7302 20.048 32.2762 19.446 32.5282 18.69ZM37.3001 21H35.9841V10.864H37.3001V21ZM40.9927 16.94H44.6747C44.6467 15.974 44.0167 15.218 42.8267 15.218C41.7207 15.218 41.0487 16.072 40.9927 16.94ZM44.8707 18.69L46.0047 19.082C45.6267 20.272 44.5487 21.21 42.9807 21.21C41.1747 21.21 39.5927 19.894 39.5927 17.612C39.5927 15.498 41.1187 14.056 42.8127 14.056C44.8847 14.056 46.0467 15.484 46.0467 17.584C46.0467 17.752 46.0327 17.92 46.0187 18.004H40.9507C40.9787 19.208 41.8467 20.048 42.9807 20.048C44.0727 20.048 44.6187 19.446 44.8707 18.69ZM50.0906 12.138V14.266H51.5466V15.456H50.0906V18.956C50.0906 19.572 50.3426 19.88 51.0286 19.88C51.1966 19.88 51.4346 19.852 51.5466 19.824V20.944C51.4346 20.986 51.0986 21.07 50.6506 21.07C49.5026 21.07 48.7746 20.37 48.7746 19.152V15.456H47.4866V14.266H47.8506C48.5786 14.266 48.8866 13.818 48.8866 13.23V12.138H50.0906ZM54.6888 16.94H58.3708C58.3428 15.974 57.7128 15.218 56.5228 15.218C55.4168 15.218 54.7448 16.072 54.6888 16.94ZM58.5668 18.69L59.7008 19.082C59.3228 20.272 58.2448 21.21 56.6768 21.21C54.8708 21.21 53.2888 19.894 53.2888 17.612C53.2888 15.498 54.8148 14.056 56.5088 14.056C58.5808 14.056 59.7428 15.484 59.7428 17.584C59.7428 17.752 59.7288 17.92 59.7148 18.004H54.6468C54.6748 19.208 55.5428 20.048 56.6768 20.048C57.7688 20.048 58.3148 19.446 58.5668 18.69Z" fill="black" fill-opacity="0.72"/>
</svg>
