<svg width="78" height="32" viewBox="0 0 78 32" fill="none" xmlns="http://www.w3.org/2000/svg">
<rect width="78" height="32" rx="16" fill="black" fill-opacity="0.06"/>
<path d="M18.66 21H17.26V11.074H18.66V21ZM22.9458 21H21.6438V14.266H22.9038V15.162C23.3238 14.42 24.1638 14.07 24.9478 14.07C25.7878 14.07 26.5998 14.476 26.9638 15.344C27.4958 14.378 28.3638 14.07 29.2178 14.07C30.3938 14.07 31.5418 14.868 31.5418 16.632V21H30.2398V16.772C30.2398 15.89 29.8058 15.232 28.8118 15.232C27.8878 15.232 27.2578 15.96 27.2578 16.926V21H25.9418V16.772C25.9418 15.904 25.5218 15.232 24.5138 15.232C23.5758 15.232 22.9458 15.932 22.9458 16.94V21ZM35.5497 23.66H34.2477V14.266H35.5217V15.316C35.8857 14.644 36.6837 14.112 37.7757 14.112C39.7917 14.112 40.8697 15.666 40.8697 17.626C40.8697 19.628 39.7077 21.182 37.7337 21.182C36.6977 21.182 35.9137 20.692 35.5497 20.09V23.66ZM39.5257 17.626C39.5257 16.282 38.7697 15.274 37.5377 15.274C36.3337 15.274 35.5357 16.282 35.5357 17.626C35.5357 19.012 36.3337 20.006 37.5377 20.006C38.7557 20.006 39.5257 19.012 39.5257 17.626ZM46.0306 20.034C47.1506 20.034 48.1306 19.194 48.1306 17.626C48.1306 16.072 47.1506 15.232 46.0306 15.232C44.9106 15.232 43.9306 16.072 43.9306 17.626C43.9306 19.194 44.9106 20.034 46.0306 20.034ZM46.0306 14.056C48.0466 14.056 49.4746 15.582 49.4746 17.626C49.4746 19.684 48.0466 21.21 46.0306 21.21C44.0146 21.21 42.5866 19.684 42.5866 17.626C42.5866 15.582 44.0146 14.056 46.0306 14.056ZM55.4963 14.196V15.596C55.3003 15.568 55.1043 15.554 54.9223 15.554C53.8163 15.554 53.0743 16.142 53.0743 17.626V21H51.7583V14.266H53.0463V15.442C53.5363 14.406 54.3763 14.154 55.0623 14.154C55.2443 14.154 55.4263 14.182 55.4963 14.196ZM59.6184 12.138V14.266H61.0744V15.456H59.6184V18.956C59.6184 19.572 59.8704 19.88 60.5564 19.88C60.7244 19.88 60.9624 19.852 61.0744 19.824V20.944C60.9624 20.986 60.6264 21.07 60.1784 21.07C59.0304 21.07 58.3024 20.37 58.3024 19.152V15.456H57.0144V14.266H57.3784C58.1064 14.266 58.4144 13.818 58.4144 13.23V12.138H59.6184Z" fill="black" fill-opacity="0.72"/>
</svg>
