<svg width="327" height="52" viewBox="0 0 327 52" fill="none" xmlns="http://www.w3.org/2000/svg">
<rect width="327" height="52" rx="26" fill="white"/>
<circle cx="26" cy="26" r="26" fill="white"/>
<path fill-rule="evenodd" clip-rule="evenodd" d="M17.1445 20.8546C17.5778 19.9031 18.1896 19.0713 18.9085 18.3193C20.5322 16.618 22.5003 15.5285 24.8241 15.1568C28.0789 14.6363 30.9951 15.4042 33.5122 17.573C33.6712 17.7104 33.7106 17.7902 33.5378 17.9595C32.6484 18.8301 31.7739 19.7149 30.8936 20.5946C30.8035 20.6847 30.7425 20.7953 30.5823 20.6482C28.3645 18.6163 24.7448 18.6397 22.3891 20.8307C21.595 21.5723 20.9909 22.4941 20.628 23.5182C20.571 23.4823 20.514 23.4504 20.4632 23.4105L17.1445 20.8546Z" fill="#D7282A"/>
<path fill-rule="evenodd" clip-rule="evenodd" d="M20.6005 27.668C20.9187 28.4753 21.3138 29.2387 21.9004 29.8869C23.3934 31.5357 25.2468 32.2457 27.4608 32.0169C28.4905 31.9097 29.4295 31.5608 30.3063 31.0248C30.3901 31.1001 30.4705 31.1805 30.5589 31.25C31.5851 32.0513 32.6123 32.8515 33.6404 33.6508C32.5271 34.7086 31.1569 35.4573 29.6655 35.823C26.1182 36.7221 22.8485 36.152 19.9449 33.8618C18.7513 32.9258 17.7897 31.7271 17.1348 30.3589L20.6005 27.668Z" fill="#45AC43"/>
<path fill-rule="evenodd" clip-rule="evenodd" d="M33.6406 33.6497C32.6144 32.8493 31.5872 32.049 30.5591 31.2489C30.4708 31.1794 30.3881 31.099 30.3066 31.0237C31.0021 30.493 31.5825 29.8653 31.9633 29.0676C32.1086 28.7483 32.2289 28.4182 32.3231 28.0802C32.3926 27.8482 32.371 27.7575 32.0842 27.7604C30.3738 27.7746 28.6635 27.7672 26.9531 27.7672C26.5911 27.7672 26.5911 27.7672 26.5911 27.3926C26.5911 26.2336 26.5962 25.0751 26.5859 23.9149C26.5859 23.6914 26.623 23.6059 26.8744 23.6064C30.0291 23.6156 33.1838 23.6156 36.3384 23.6064C36.5095 23.6064 36.6155 23.619 36.6452 23.8259C37.0374 26.5842 36.7227 29.2193 35.2769 31.6537C34.8362 32.4029 34.3054 33.083 33.6406 33.6497Z" fill="#5D7FBE"/>
<path fill-rule="evenodd" clip-rule="evenodd" d="M20.6017 27.6675L17.1359 30.3584C16.5709 29.31 16.2465 28.1828 16.0943 27.009C15.8298 24.977 16.1205 23.0192 16.9831 21.1532C17.0304 21.0506 17.0903 20.9543 17.1445 20.8545L20.4631 23.4104C20.515 23.4503 20.5732 23.4822 20.6279 23.5181C20.1627 24.8984 20.1878 26.2821 20.6017 27.6675Z" fill="#F4C300"/>
<path d="M84.6598 31.8396C81.7318 31.8396 79.0278 29.7116 79.0278 25.9196C79.0278 22.1276 81.8438 20.0156 84.6598 20.0156C87.2518 20.0156 89.0758 21.4236 89.6518 23.6156L88.1958 24.1276C87.7638 22.4156 86.5158 21.4556 84.6598 21.4556C82.5958 21.4556 80.6278 22.9596 80.6278 25.9196C80.6278 28.8796 82.5958 30.3996 84.6598 30.3996C86.5958 30.3996 87.8118 29.2316 88.2758 27.6796L89.6678 28.1916C89.0598 30.3196 87.2678 31.8396 84.6598 31.8396ZM95.1713 30.4956C96.4513 30.4956 97.5713 29.5356 97.5713 27.7436C97.5713 25.9676 96.4513 25.0076 95.1713 25.0076C93.8913 25.0076 92.7713 25.9676 92.7713 27.7436C92.7713 29.5356 93.8913 30.4956 95.1713 30.4956ZM95.1713 23.6636C97.4753 23.6636 99.1073 25.4076 99.1073 27.7436C99.1073 30.0956 97.4753 31.8396 95.1713 31.8396C92.8673 31.8396 91.2353 30.0956 91.2353 27.7436C91.2353 25.4076 92.8673 23.6636 95.1713 23.6636ZM103.136 27.1516V31.5996H101.632V23.9036H103.104V25.0076C103.664 24.0476 104.576 23.6796 105.472 23.6796C107.312 23.6796 108.224 25.0076 108.224 26.7196V31.5996H106.72V26.9756C106.72 25.9036 106.272 25.0396 104.928 25.0396C103.744 25.0396 103.136 25.9836 103.136 27.1516ZM113.232 21.4716V23.9036H114.896V25.2636H113.232V29.2636C113.232 29.9676 113.52 30.3196 114.304 30.3196C114.496 30.3196 114.768 30.2876 114.896 30.2556V31.5356C114.768 31.5836 114.384 31.6796 113.872 31.6796C112.56 31.6796 111.728 30.8796 111.728 29.4876V25.2636H110.256V23.9036H110.672C111.504 23.9036 111.856 23.3916 111.856 22.7196V21.4716H113.232ZM118.991 31.5996H117.503V23.9036H118.991V31.5996ZM117.167 20.9916C117.167 20.3836 117.647 19.9036 118.239 19.9036C118.847 19.9036 119.327 20.3836 119.327 20.9916C119.327 21.5836 118.847 22.0636 118.239 22.0636C117.647 22.0636 117.167 21.5836 117.167 20.9916ZM123.654 27.1516V31.5996H122.15V23.9036H123.622V25.0076C124.182 24.0476 125.094 23.6796 125.99 23.6796C127.83 23.6796 128.742 25.0076 128.742 26.7196V31.5996H127.238V26.9756C127.238 25.9036 126.79 25.0396 125.446 25.0396C124.262 25.0396 123.654 25.9836 123.654 27.1516ZM136.65 30.6716C136.234 31.4716 135.274 31.8396 134.378 31.8396C132.586 31.8396 131.498 30.4956 131.498 28.7516V23.9036H133.002V28.5276C133.002 29.5836 133.482 30.5116 134.746 30.5116C135.962 30.5116 136.57 29.7116 136.57 28.5436V23.9036H138.074V30.1756C138.074 30.7836 138.122 31.3276 138.154 31.5996H136.714C136.682 31.4236 136.65 30.9916 136.65 30.6716ZM142.139 26.9596H146.347C146.315 25.8556 145.595 24.9916 144.235 24.9916C142.971 24.9916 142.203 25.9676 142.139 26.9596ZM146.571 28.9596L147.867 29.4076C147.435 30.7676 146.203 31.8396 144.411 31.8396C142.347 31.8396 140.539 30.3356 140.539 27.7276C140.539 25.3116 142.283 23.6636 144.219 23.6636C146.587 23.6636 147.915 25.2956 147.915 27.6956C147.915 27.8876 147.899 28.0796 147.883 28.1756H142.091C142.123 29.5516 143.115 30.5116 144.411 30.5116C145.659 30.5116 146.283 29.8236 146.571 28.9596ZM159.371 23.9036H160.923L162.923 29.6956L164.619 23.9036H166.203L163.707 31.5996H162.155L160.107 25.7436L158.107 31.5996H156.523L153.995 23.9036H155.643L157.371 29.6956L159.371 23.9036ZM169.81 31.5996H168.322V23.9036H169.81V31.5996ZM167.986 20.9916C167.986 20.3836 168.466 19.9036 169.058 19.9036C169.666 19.9036 170.146 20.3836 170.146 20.9916C170.146 21.5836 169.666 22.0636 169.058 22.0636C168.466 22.0636 167.986 21.5836 167.986 20.9916ZM174.985 21.4716V23.9036H176.649V25.2636H174.985V29.2636C174.985 29.9676 175.273 30.3196 176.057 30.3196C176.249 30.3196 176.521 30.2876 176.649 30.2556V31.5356C176.521 31.5836 176.137 31.6796 175.625 31.6796C174.313 31.6796 173.481 30.8796 173.481 29.4876V25.2636H172.009V23.9036H172.425C173.257 23.9036 173.609 23.3916 173.609 22.7196V21.4716H174.985ZM180.761 27.0716V31.5996H179.257V20.0156H180.761V24.7996C181.321 23.9836 182.217 23.6796 183.097 23.6796C184.937 23.6796 185.849 25.0076 185.849 26.7196V31.5996H184.345V26.9756C184.345 25.9036 183.897 25.0396 182.553 25.0396C181.401 25.0396 180.793 25.9356 180.761 27.0716ZM203.425 31.5996H202.161L202.017 29.9996C201.521 30.8956 200.289 31.8396 198.385 31.8396C195.537 31.8396 192.881 29.7596 192.881 25.9196C192.881 22.0796 195.697 20.0156 198.497 20.0156C200.961 20.0156 202.865 21.3916 203.521 23.4396L202.097 24.0476C201.585 22.4156 200.257 21.4556 198.497 21.4556C196.465 21.4556 194.481 22.9116 194.481 25.9196C194.481 28.9276 196.401 30.4156 198.433 30.4156C200.961 30.4156 201.873 28.6236 201.937 27.4556H198.001V26.0476H203.425V31.5996ZM209.571 30.4956C210.851 30.4956 211.971 29.5356 211.971 27.7436C211.971 25.9676 210.851 25.0076 209.571 25.0076C208.291 25.0076 207.171 25.9676 207.171 27.7436C207.171 29.5356 208.291 30.4956 209.571 30.4956ZM209.571 23.6636C211.875 23.6636 213.507 25.4076 213.507 27.7436C213.507 30.0956 211.875 31.8396 209.571 31.8396C207.267 31.8396 205.635 30.0956 205.635 27.7436C205.635 25.4076 207.267 23.6636 209.571 23.6636ZM219.328 30.4956C220.608 30.4956 221.728 29.5356 221.728 27.7436C221.728 25.9676 220.608 25.0076 219.328 25.0076C218.048 25.0076 216.928 25.9676 216.928 27.7436C216.928 29.5356 218.048 30.4956 219.328 30.4956ZM219.328 23.6636C221.632 23.6636 223.264 25.4076 223.264 27.7436C223.264 30.0956 221.632 31.8396 219.328 31.8396C217.024 31.8396 215.392 30.0956 215.392 27.7436C215.392 25.4076 217.024 23.6636 219.328 23.6636ZM225.228 32.0156L226.684 31.6796C226.796 32.7516 227.612 33.5676 228.78 33.5676C230.396 33.5676 231.132 32.7356 231.132 31.0716V29.9676C230.764 30.6716 229.932 31.2316 228.78 31.2316C226.732 31.2316 225.244 29.6796 225.244 27.5036C225.244 25.4236 226.668 23.7596 228.78 23.7596C229.964 23.7596 230.764 24.2076 231.148 24.9756V23.9036H232.636V31.0236C232.636 32.9756 231.676 34.8796 228.78 34.8796C226.86 34.8796 225.42 33.6636 225.228 32.0156ZM229.004 29.9676C230.3 29.9676 231.196 28.9916 231.196 27.5036C231.196 26.0156 230.3 25.0396 229.004 25.0396C227.676 25.0396 226.78 26.0156 226.78 27.5036C226.78 29.0076 227.644 29.9676 229.004 29.9676ZM237.142 31.5996H235.638V20.0156H237.142V31.5996ZM241.276 26.9596H245.484C245.452 25.8556 244.732 24.9916 243.372 24.9916C242.108 24.9916 241.34 25.9676 241.276 26.9596ZM245.708 28.9596L247.004 29.4076C246.572 30.7676 245.34 31.8396 243.548 31.8396C241.484 31.8396 239.676 30.3356 239.676 27.7276C239.676 25.3116 241.42 23.6636 243.356 23.6636C245.724 23.6636 247.052 25.2956 247.052 27.6956C247.052 27.8876 247.036 28.0796 247.02 28.1756H241.228C241.26 29.5516 242.252 30.5116 243.548 30.5116C244.796 30.5116 245.42 29.8236 245.708 28.9596Z" fill="black" fill-opacity="0.6"/>
</svg>
