<svg width="69" height="32" viewBox="0 0 69 32" fill="none" xmlns="http://www.w3.org/2000/svg">
<rect width="69" height="32" rx="16" fill="black" fill-opacity="0.06"/>
<path d="M18.66 21H17.26V11.074H18.66V21ZM22.9598 17.108V21H21.6438V14.266H22.9318V15.232C23.4218 14.392 24.2198 14.07 25.0038 14.07C26.6138 14.07 27.4118 15.232 27.4118 16.73V21H26.0958V16.954C26.0958 16.016 25.7038 15.26 24.5278 15.26C23.4918 15.26 22.9598 16.086 22.9598 17.108ZM30.8892 17.612C30.8892 18.998 31.6032 20.02 32.8632 20.02C34.0672 20.02 34.8092 18.97 34.8092 17.584C34.8092 16.198 34.0812 15.246 32.8772 15.246C31.6732 15.246 30.8892 16.226 30.8892 17.612ZM34.8232 20.09V19.978C34.5012 20.622 33.7872 21.182 32.7372 21.182C30.7632 21.182 29.5452 19.614 29.5452 17.612C29.5452 15.708 30.8332 14.084 32.7372 14.084C33.9272 14.084 34.5712 14.672 34.7952 15.218V10.864H36.0972V19.754C36.0972 20.398 36.1532 20.888 36.1672 21H34.8932C34.8652 20.846 34.8232 20.496 34.8232 20.09ZM39.7896 16.94H43.4716C43.4436 15.974 42.8136 15.218 41.6236 15.218C40.5176 15.218 39.8456 16.072 39.7896 16.94ZM43.6676 18.69L44.8016 19.082C44.4236 20.272 43.3456 21.21 41.7776 21.21C39.9716 21.21 38.3896 19.894 38.3896 17.612C38.3896 15.498 39.9156 14.056 41.6096 14.056C43.6816 14.056 44.8436 15.484 44.8436 17.584C44.8436 17.752 44.8296 17.92 44.8156 18.004H39.7476C39.7756 19.208 40.6436 20.048 41.7776 20.048C42.8696 20.048 43.4156 19.446 43.6676 18.69ZM46.0752 21L48.5812 17.57L46.1592 14.266H47.7552L49.4072 16.632L51.0312 14.266H52.5852L50.1912 17.57C50.5972 18.116 52.2632 20.454 52.6692 21H51.0872L49.3512 18.522L47.6432 21H46.0752Z" fill="black" fill-opacity="0.72"/>
</svg>
