<svg width="107" height="32" viewBox="0 0 107 32" fill="none" xmlns="http://www.w3.org/2000/svg">
<rect x="0.800781" width="106.2" height="32" rx="16" fill="black" fill-opacity="0.06"/>
<path d="M19.4608 21H18.0608V11.074H19.4608V21ZM23.7606 17.108V21H22.4446V14.266H23.7326V15.232C24.2226 14.392 25.0206 14.07 25.8046 14.07C27.4146 14.07 28.2126 15.232 28.2126 16.73V21H26.8966V16.954C26.8966 16.016 26.5046 15.26 25.3286 15.26C24.2926 15.26 23.7606 16.086 23.7606 17.108ZM31.6899 17.612C31.6899 18.998 32.4039 20.02 33.6639 20.02C34.8679 20.02 35.6099 18.97 35.6099 17.584C35.6099 16.198 34.8819 15.246 33.6779 15.246C32.4739 15.246 31.6899 16.226 31.6899 17.612ZM35.6239 20.09V19.978C35.3019 20.622 34.5879 21.182 33.5379 21.182C31.5639 21.182 30.3459 19.614 30.3459 17.612C30.3459 15.708 31.6339 14.084 33.5379 14.084C34.7279 14.084 35.3719 14.672 35.5959 15.218V10.864H36.8979V19.754C36.8979 20.398 36.9539 20.888 36.9679 21H35.6939C35.6659 20.846 35.6239 20.496 35.6239 20.09ZM40.5904 16.94H44.2724C44.2444 15.974 43.6144 15.218 42.4244 15.218C41.3184 15.218 40.6464 16.072 40.5904 16.94ZM44.4684 18.69L45.6024 19.082C45.2244 20.272 44.1464 21.21 42.5784 21.21C40.7724 21.21 39.1904 19.894 39.1904 17.612C39.1904 15.498 40.7164 14.056 42.4104 14.056C44.4824 14.056 45.6444 15.484 45.6444 17.584C45.6444 17.752 45.6304 17.92 45.6164 18.004H40.5484C40.5764 19.208 41.4444 20.048 42.5784 20.048C43.6704 20.048 44.2164 19.446 44.4684 18.69ZM46.8759 21L49.3819 17.57L46.9599 14.266H48.5559L50.2079 16.632L51.8319 14.266H53.3859L50.9919 17.57C51.3979 18.116 53.0639 20.454 53.4699 21H51.8879L50.1519 18.522L48.4439 21H46.8759ZM56.6349 21H55.3329V14.266H56.6349V21ZM55.0389 11.718C55.0389 11.186 55.4589 10.766 55.9769 10.766C56.5089 10.766 56.9289 11.186 56.9289 11.718C56.9289 12.236 56.5089 12.656 55.9769 12.656C55.4589 12.656 55.0389 12.236 55.0389 11.718ZM60.7899 17.108V21H59.4739V14.266H60.7619V15.232C61.2519 14.392 62.0499 14.07 62.8339 14.07C64.4439 14.07 65.2419 15.232 65.2419 16.73V21H63.9259V16.954C63.9259 16.016 63.5339 15.26 62.3579 15.26C61.3219 15.26 60.7899 16.086 60.7899 17.108ZM67.4452 21.364L68.7192 21.07C68.8172 22.008 69.5312 22.722 70.5532 22.722C71.9672 22.722 72.6112 21.994 72.6112 20.538V19.572C72.2892 20.188 71.5612 20.678 70.5532 20.678C68.7612 20.678 67.4592 19.32 67.4592 17.416C67.4592 15.596 68.7052 14.14 70.5532 14.14C71.5892 14.14 72.2892 14.532 72.6252 15.204V14.266H73.9272V20.496C73.9272 22.204 73.0872 23.87 70.5532 23.87C68.8732 23.87 67.6132 22.806 67.4452 21.364ZM70.7492 19.572C71.8832 19.572 72.6672 18.718 72.6672 17.416C72.6672 16.114 71.8832 15.26 70.7492 15.26C69.5872 15.26 68.8032 16.114 68.8032 17.416C68.8032 18.732 69.5592 19.572 70.7492 19.572Z" fill="black" fill-opacity="0.48"/>
<g opacity="0.48">
<path d="M88.9891 10.546L90.5934 9.10113L89.0938 7.54785" stroke="black" stroke-width="1.6" stroke-linecap="round" stroke-linejoin="round"/>
<path d="M90.1641 9.0475C86.5462 8.60328 83.2532 11.1761 82.8089 14.794C82.3647 18.4119 84.9375 21.7049 88.5554 22.1491C92.1733 22.5933 95.4663 20.0206 95.9106 16.4026C96.1225 14.6765 95.6477 13.0244 94.7003 11.7202" stroke="black" stroke-width="1.6" stroke-linecap="round"/>
</g>
</svg>
