<svg width="164" height="36" viewBox="0 0 164 36" fill="none" xmlns="http://www.w3.org/2000/svg">
<path d="M18.468 30L16.2972 24.2328H6.5772L4.4388 30H0.324L9.26641 7.02839H13.77L22.7124 30H18.468ZM11.4372 11.2404L7.938 20.6364H14.9364L11.4372 11.2404ZM24.1432 25.7232L27.4156 24.816C27.5452 26.2416 28.6144 27.5052 30.6232 27.5052C32.1784 27.5052 32.9884 26.6628 32.9884 25.6908C32.9884 24.8484 32.4052 24.2004 31.1416 23.9412L28.8088 23.4228C26.0224 22.8072 24.5644 20.9928 24.5644 18.822C24.5644 16.068 27.0916 13.7352 30.364 13.7352C34.7704 13.7352 36.196 16.5864 36.4552 18.1416L33.28 19.0488C33.1504 18.1416 32.47 16.6836 30.364 16.6836C29.0356 16.6836 28.096 17.526 28.096 18.498C28.096 19.3404 28.7116 19.956 29.6836 20.1504L32.0812 20.6364C35.062 21.2844 36.6172 23.0988 36.6172 25.4316C36.6172 27.8292 34.6732 30.486 30.6556 30.486C26.0872 30.486 24.3376 27.5052 24.1432 25.7232ZM45.179 9.39359V14.2212H48.4514V17.5584H45.179V24.8808C45.179 26.274 45.7946 26.8572 47.1878 26.8572C47.7062 26.8572 48.3218 26.76 48.4838 26.7276V29.838C48.257 29.9352 47.5442 30.1944 46.1834 30.1944C43.2674 30.1944 41.453 28.4448 41.453 25.4964V17.5584H38.537V14.2212H39.347C41.0318 14.2212 41.777 13.152 41.777 11.7588V9.39359H45.179ZM54.8513 20.3772H62.5949C62.5301 18.5304 61.2989 16.878 58.7069 16.878C56.3417 16.878 54.9809 18.6924 54.8513 20.3772ZM63.0161 24.492L66.1913 25.4964C65.3489 28.2504 62.8541 30.486 59.0633 30.486C54.7865 30.486 50.9957 27.3756 50.9957 22.0296C50.9957 17.04 54.6893 13.7352 58.6745 13.7352C63.5345 13.7352 66.3857 16.9428 66.3857 21.9324C66.3857 22.548 66.3209 23.0664 66.2885 23.1312H54.7541C54.8513 25.5288 56.7305 27.246 59.0633 27.246C61.3313 27.246 62.4977 26.0472 63.0161 24.492ZM79.2833 14.124V17.9472C78.8621 17.8824 78.4409 17.85 78.0521 17.85C75.1361 17.85 73.8077 19.5348 73.8077 22.4832V30H70.0493V14.2212H73.7105V16.7484C74.4557 15.0312 76.2053 14.0268 78.2789 14.0268C78.7325 14.0268 79.1213 14.0916 79.2833 14.124ZM86.2188 30H82.4928V14.2212H86.2188V30ZM81.9096 8.68079C81.9096 7.31999 83.0112 6.21839 84.3396 6.21839C85.7004 6.21839 86.802 7.31999 86.802 8.68079C86.802 10.0416 85.7004 11.1108 84.3396 11.1108C83.0112 11.1108 81.9096 10.0416 81.9096 8.68079ZM102.836 30H89.9406V26.7276L97.9434 17.526H90.1026V14.2212H102.674V17.3964L94.5738 26.6952H102.836V30ZM121.332 14.2212L114.852 20.8956L121.461 30H116.86L112.227 23.5524L110.283 25.5936V30H106.557V6.54239H110.283V20.604L116.342 14.2212H121.332Z" fill="black"/>
<g clip-path="url(#clip0_14623_96221)">
<path d="M149.486 0.180664H142.553C142.006 0.180664 141.562 0.623902 141.562 1.17066V34.8307C141.562 35.3774 142.006 35.8207 142.552 35.8207H149.486C150.032 35.8207 150.476 35.3774 150.476 34.8307V1.17066C150.476 0.623902 150.032 0.180664 149.486 0.180664Z" fill="black"/>
<path d="M132.32 6.09258L128.854 12.0948C128.581 12.5683 128.743 13.1738 129.217 13.4471L158.375 30.2817C158.848 30.555 159.454 30.3928 159.727 29.9193L163.193 23.9171C163.466 23.4436 163.304 22.8381 162.83 22.5647L133.672 5.73021C133.199 5.45683 132.593 5.61907 132.32 6.09258Z" fill="black"/>
<path d="M128.859 23.9135L132.325 29.9152C132.599 30.3886 133.204 30.5509 133.678 30.2776L162.838 13.4473C163.312 13.174 163.474 12.5686 163.201 12.0952L159.735 6.09347C159.461 5.62 158.855 5.45774 158.382 5.73105L129.221 22.5613C128.748 22.8346 128.585 23.44 128.859 23.9135Z" fill="black"/>
</g>
<defs>
<clipPath id="clip0_14623_96221">
<rect x="128.352" y="0.179688" width="35.652" height="35.64" rx="0.891" fill="white"/>
</clipPath>
</defs>
</svg>
