<svg width="120" height="64" viewBox="0 0 120 64" fill="none" xmlns="http://www.w3.org/2000/svg">
<rect x="8" y="8" width="104" height="48" rx="24" fill="black" fill-opacity="0.72"/>
<path d="M49.147 29.232L47.739 29.728C47.611 28.912 46.923 27.792 45.339 27.792C44.059 27.792 43.147 28.624 43.147 29.68C43.147 30.496 43.643 31.12 44.603 31.328L46.299 31.696C48.187 32.112 49.243 33.296 49.243 34.88C49.243 36.64 47.739 38.24 45.323 38.24C42.587 38.24 41.291 36.48 41.083 34.864L42.587 34.384C42.699 35.648 43.595 36.816 45.307 36.816C46.875 36.816 47.643 36 47.643 35.008C47.643 34.192 47.083 33.488 45.947 33.248L44.331 32.896C42.715 32.544 41.563 31.488 41.563 29.792C41.563 28.016 43.211 26.416 45.307 26.416C47.867 26.416 48.891 28 49.147 29.232ZM52.2813 35.936C52.2813 34.56 53.2893 33.792 54.6173 33.6L56.6973 33.296C57.1613 33.232 57.2893 32.992 57.2893 32.72C57.2893 31.968 56.7933 31.344 55.6253 31.344C54.5693 31.344 53.9773 32 53.8813 32.896L52.4413 32.56C52.6013 31.088 53.9293 30.064 55.5933 30.064C57.8973 30.064 58.7933 31.376 58.7933 32.88V36.736C58.7933 37.408 58.8573 37.808 58.8893 38H57.4173C57.3853 37.808 57.3373 37.52 57.3373 36.96C57.0013 37.504 56.2333 38.24 54.8573 38.24C53.2893 38.24 52.2813 37.152 52.2813 35.936ZM55.0653 36.976C56.2973 36.976 57.2893 36.384 57.2893 34.704V34.352L54.9373 34.704C54.2973 34.8 53.8173 35.168 53.8173 35.856C53.8173 36.432 54.2973 36.976 55.0653 36.976ZM69.3283 30.304L66.2563 38H64.7363L61.6163 30.304H63.3123L65.5043 36.24L67.7123 30.304H69.3283ZM73.1091 33.36H77.3171C77.2851 32.256 76.5651 31.392 75.2051 31.392C73.9411 31.392 73.1731 32.368 73.1091 33.36ZM77.5411 35.36L78.8371 35.808C78.4051 37.168 77.1731 38.24 75.3811 38.24C73.3171 38.24 71.5091 36.736 71.5091 34.128C71.5091 31.712 73.2531 30.064 75.1891 30.064C77.5571 30.064 78.8851 31.696 78.8851 34.096C78.8851 34.288 78.8691 34.48 78.8531 34.576H73.0611C73.0931 35.952 74.0851 36.912 75.3811 36.912C76.6291 36.912 77.2531 36.224 77.5411 35.36Z" fill="white"/>
</svg>
