<svg width="129" height="40" viewBox="0 0 129 40" fill="none" xmlns="http://www.w3.org/2000/svg">
<rect width="129" height="40" rx="20" fill="black" fill-opacity="0.06"/>
<g clip-path="url(#clip0_9826_153325)">
<path fill-rule="evenodd" clip-rule="evenodd" d="M15.2229 19.3063C14.9934 19.0769 14.9934 18.7049 15.2229 18.4754L19.5848 14.1135C19.7207 13.9776 19.9065 13.9222 20.0832 13.9473C20.2053 13.9643 20.323 14.0198 20.4169 14.1137L24.7789 18.4756C25.0083 18.7051 25.0083 19.077 24.7789 19.3065C24.5495 19.5359 24.1775 19.5359 23.948 19.3065L20.5877 15.9461V25.4714C20.5877 25.7959 20.3246 26.0589 20.0002 26.0589C19.6757 26.0589 19.4127 25.7959 19.4127 25.4714V15.9473L16.0537 19.3063C15.8243 19.5357 15.4523 19.5357 15.2229 19.3063Z" fill="black" fill-opacity="0.72"/>
</g>
<path d="M40.69 25.21C38.674 25.21 37.12 23.95 37.12 21.612V15.074H38.478V21.57C38.478 23.082 39.304 23.936 40.69 23.936C42.09 23.936 42.888 23.082 42.888 21.57V15.074H44.26V21.612C44.26 23.95 42.706 25.21 40.69 25.21ZM48.3325 27.66H47.0305V18.266H48.3045V19.316C48.6685 18.644 49.4665 18.112 50.5585 18.112C52.5745 18.112 53.6525 19.666 53.6525 21.626C53.6525 23.628 52.4905 25.182 50.5165 25.182C49.4805 25.182 48.6965 24.692 48.3325 24.09V27.66ZM52.3085 21.626C52.3085 20.282 51.5525 19.274 50.3205 19.274C49.1165 19.274 48.3185 20.282 48.3185 21.626C48.3185 23.012 49.1165 24.006 50.3205 24.006C51.5385 24.006 52.3085 23.012 52.3085 21.626ZM57.2454 25H55.9294V14.864H57.2454V25ZM62.9681 24.034C64.0881 24.034 65.0681 23.194 65.0681 21.626C65.0681 20.072 64.0881 19.232 62.9681 19.232C61.8481 19.232 60.8681 20.072 60.8681 21.626C60.8681 23.194 61.8481 24.034 62.9681 24.034ZM62.9681 18.056C64.9841 18.056 66.4121 19.582 66.4121 21.626C66.4121 23.684 64.9841 25.21 62.9681 25.21C60.9521 25.21 59.5241 23.684 59.5241 21.626C59.5241 19.582 60.9521 18.056 62.9681 18.056ZM68.2758 23.194C68.2758 21.99 69.1578 21.318 70.3198 21.15L72.1398 20.884C72.5458 20.828 72.6578 20.618 72.6578 20.38C72.6578 19.722 72.2238 19.176 71.2018 19.176C70.2778 19.176 69.7598 19.75 69.6758 20.534L68.4158 20.24C68.5558 18.952 69.7178 18.056 71.1738 18.056C73.1898 18.056 73.9738 19.204 73.9738 20.52V23.894C73.9738 24.482 74.0298 24.832 74.0578 25H72.7698C72.7418 24.832 72.6998 24.58 72.6998 24.09C72.4058 24.566 71.7338 25.21 70.5298 25.21C69.1578 25.21 68.2758 24.258 68.2758 23.194ZM70.7118 24.104C71.7898 24.104 72.6578 23.586 72.6578 22.116V21.808L70.5998 22.116C70.0398 22.2 69.6198 22.522 69.6198 23.124C69.6198 23.628 70.0398 24.104 70.7118 24.104ZM77.4079 21.612C77.4079 22.998 78.1219 24.02 79.3819 24.02C80.5859 24.02 81.3279 22.97 81.3279 21.584C81.3279 20.198 80.5999 19.246 79.3959 19.246C78.1919 19.246 77.4079 20.226 77.4079 21.612ZM81.3419 24.09V23.978C81.0199 24.622 80.3059 25.182 79.2559 25.182C77.2819 25.182 76.0639 23.614 76.0639 21.612C76.0639 19.708 77.3519 18.084 79.2559 18.084C80.4459 18.084 81.0899 18.672 81.3139 19.218V14.864H82.6159V23.754C82.6159 24.398 82.6719 24.888 82.6859 25H81.4119C81.3839 24.846 81.3419 24.496 81.3419 24.09ZM91.0664 25H89.6944V15.074H95.7284V16.348H91.0664V19.54H95.2944V20.828H91.0664V25ZM99.099 25H97.797V18.266H99.099V25ZM97.503 15.718C97.503 15.186 97.923 14.766 98.441 14.766C98.973 14.766 99.393 15.186 99.393 15.718C99.393 16.236 98.973 16.656 98.441 16.656C97.923 16.656 97.503 16.236 97.503 15.718ZM103.254 25H101.938V14.864H103.254V25ZM106.947 20.94H110.629C110.601 19.974 109.971 19.218 108.781 19.218C107.675 19.218 107.003 20.072 106.947 20.94ZM110.825 22.69L111.959 23.082C111.581 24.272 110.503 25.21 108.935 25.21C107.129 25.21 105.547 23.894 105.547 21.612C105.547 19.498 107.073 18.056 108.767 18.056C110.839 18.056 112.001 19.484 112.001 21.584C112.001 21.752 111.987 21.92 111.973 22.004H106.905C106.933 23.208 107.801 24.048 108.935 24.048C110.027 24.048 110.573 23.446 110.825 22.69Z" fill="black" fill-opacity="0.72"/>
<defs>
<clipPath id="clip0_9826_153325">
<path d="M8 20C8 13.3726 13.3726 8 20 8C26.6274 8 32 13.3726 32 20C32 26.6274 26.6274 32 20 32C13.3726 32 8 26.6274 8 20Z" fill="white"/>
</clipPath>
</defs>
</svg>
