<svg width="12" height="15" viewBox="0 0 12 15" fill="none" xmlns="http://www.w3.org/2000/svg">
<path fill-rule="evenodd" clip-rule="evenodd" d="M0.245067 6.87688C-0.0152826 6.61653 -0.0152827 6.19442 0.245067 5.93407L5.19461 0.984528L5.19481 0.984324C5.36109 0.818046 5.59335 0.757966 5.80731 0.804082C5.9448 0.833558 6.06656 0.905428 6.15824 1.00534L11.0872 5.93428C11.3475 6.19463 11.3475 6.61673 11.0872 6.87708C10.8268 7.13743 10.4047 7.13743 10.1444 6.87708L6.33356 3.06628V13.8726C6.33356 14.2408 6.03508 14.5393 5.66689 14.5393C5.2987 14.5393 5.00023 14.2408 5.00023 13.8726V3.06453L1.18788 6.87688C0.927526 7.13723 0.505416 7.13723 0.245067 6.87688Z" fill="white"/>
</svg>
