<svg width="32" height="32" viewBox="0 0 32 32" fill="none" xmlns="http://www.w3.org/2000/svg">
<path d="M28.6708 8.80855C28.4645 8.66236 28.1998 8.62589 27.962 8.70943L22.3431 11.3886V10.273C22.3431 8.46816 20.875 7 19.0702 7H6.27297C4.46816 7 3 8.46816 3 10.273V21.0769C3 22.8817 4.46816 24.3499 6.27297 24.3499H19.0702C20.875 24.3499 22.3431 22.8817 22.3431 21.0769V19.9616L27.962 22.6414C28.0462 22.671 28.1334 22.6856 28.2207 22.6856C28.38 22.6856 28.5377 22.637 28.6711 22.5423C28.8775 22.3961 29 22.1592 29 21.9064V9.44444C28.9997 9.19164 28.8772 8.95443 28.6708 8.80855ZM20.7846 21.0769C20.7846 22.022 20.0156 22.7913 19.0702 22.7913H6.27297C5.32755 22.7913 4.55856 22.022 4.55856 21.0769V10.273C4.55856 9.32755 5.32755 8.55856 6.27297 8.55856H19.0702C20.0156 8.55856 20.7846 9.32755 20.7846 10.273V12.4883V18.8612V21.0769ZM27.4411 20.806L22.3431 18.3095V13.0403L27.4411 10.5445V20.806Z" fill="#00254E" fill-opacity="0.4"/>
</svg>
