<svg width="40" height="40" viewBox="0 0 40 40" fill="none" xmlns="http://www.w3.org/2000/svg">
<path d="M17.8091 24.7584C17.4967 25.0708 16.9902 25.0708 16.6778 24.7584C16.3653 24.4459 16.3653 23.9394 16.6778 23.627L25.3048 15C25.6172 14.6876 26.1237 14.6876 26.4361 15C26.7486 15.3124 26.7486 15.819 26.4361 16.1314L17.8091 24.7584Z" fill="black"/>
<path d="M17.8008 24.7657C17.4884 25.0781 16.9819 25.0781 16.6695 24.7657L13.5351 21.6314C13.2227 21.319 13.2227 20.8124 13.5351 20.5C13.8475 20.1876 14.354 20.1876 14.6665 20.5L17.8008 23.6343C18.1132 23.9467 18.1132 24.4533 17.8008 24.7657Z" fill="black"/>
</svg>
