<svg width="24" height="24" viewBox="0 0 24 24" fill="none" xmlns="http://www.w3.org/2000/svg">
<path fill-rule="evenodd" clip-rule="evenodd" d="M6.16903 5.32537L11.025 5.32537C11.3564 5.32537 11.625 5.05674 11.625 4.72537C11.625 4.394 11.3564 4.12537 11.025 4.12537L4.7252 4.12537H4.725C4.39363 4.12537 4.125 4.394 4.125 4.72537L4.1252 4.74084L4.1252 11.0254C4.1252 11.3567 4.39383 11.6254 4.7252 11.6254C5.05657 11.6254 5.3252 11.3567 5.3252 11.0254L5.3252 6.17859L11.5675 12.4209L12.416 11.5724L6.16903 5.32537Z" fill="black" fill-opacity="0.6"/>
<path fill-rule="evenodd" clip-rule="evenodd" d="M12.3755 19.275C12.3755 19.6064 12.6441 19.875 12.9755 19.875H19.2753H19.2755C19.6069 19.875 19.8755 19.6064 19.8755 19.275L19.8753 19.2595L19.8753 12.975C19.8753 12.6436 19.6067 12.375 19.2753 12.375C18.9439 12.375 18.6753 12.6436 18.6753 12.975L18.6753 17.8218L12.4227 11.5692L11.5742 12.4177L17.8315 18.675L12.9755 18.675C12.6441 18.675 12.3755 18.9436 12.3755 19.275Z" fill="black" fill-opacity="0.6"/>
</svg>
