<svg width="46" height="46" viewBox="0 0 46 46" fill="none" xmlns="http://www.w3.org/2000/svg">
<g id="Group 2085660479">
<g id="Group 2085660478">
<g id="Ellipse" filter="url(#filter0_ii_664_2018)">
<circle cx="23" cy="23" r="23" fill="white" fill-opacity="0.22"/>
</g>
<path id="Union" opacity="0.55" fill-rule="evenodd" clip-rule="evenodd" d="M19.5706 27.25C19.9709 28.7064 20.5718 30.0797 21.3418 31.3384C18.9045 30.8564 16.8418 29.3324 15.6371 27.25H19.5706ZM21.1328 27.25C21.5611 28.6491 22.1953 29.9582 23 31.142C23.8048 29.9582 24.439 28.6491 24.8672 27.25H21.1328ZM25.2396 25.75H20.7604C20.5895 24.8596 20.5 23.9403 20.5 23C20.5 22.0597 20.5895 21.1404 20.7604 20.25H25.2396C25.4105 21.1404 25.5 22.0597 25.5 23C25.5 23.9403 25.4105 24.8596 25.2396 25.75ZM26.4294 27.25C26.0292 28.7064 25.4282 30.0797 24.6582 31.3384C27.0955 30.8564 29.1582 29.3324 30.3629 27.25H26.4294ZM31.0453 25.75H26.7646C26.9194 24.8565 27 23.9377 27 23C27 22.0623 26.9194 21.1435 26.7646 20.25H31.0453C31.3401 21.1126 31.5 22.0376 31.5 23C31.5 23.9624 31.3401 24.8874 31.0453 25.75ZM19.2354 25.75H14.9547C14.6599 24.8874 14.5 23.9624 14.5 23C14.5 22.0376 14.6599 21.1126 14.9547 20.25H19.2354C19.0807 21.1435 19 22.0623 19 23C19 23.9377 19.0807 24.8565 19.2354 25.75ZM19.5706 18.75H15.6371C16.8418 16.6676 18.9045 15.1436 21.3418 14.6616C20.5718 15.9203 19.9709 17.2936 19.5706 18.75ZM23 14.858C22.1953 16.0418 21.5611 17.3509 21.1328 18.75H24.8672C24.439 17.3509 23.8048 16.0418 23 14.858ZM26.4294 18.75H30.3629C29.1582 16.6676 27.0955 15.1436 24.6582 14.6617C25.4282 15.9203 26.0292 17.2936 26.4294 18.75ZM22.5004 13.0123L22.4994 13.0123C17.2091 13.2731 13 17.645 13 23C13 28.0452 16.7362 32.2178 21.5928 32.9018L21.6417 32.9085C21.924 32.9469 22.2101 32.9734 22.4994 32.9877C22.6652 32.9959 22.8321 33 23 33H23L23.0143 33C23.1774 32.9998 23.3395 32.9956 23.5006 32.9877L23.5006 32.9877C23.8037 32.9727 24.1032 32.9443 24.3985 32.903L24.4072 32.9018C29.2638 32.2178 33 28.0452 33 23C33 17.9548 29.2638 13.7822 24.4072 13.0982C24.1091 13.0562 23.8066 13.0274 23.5006 13.0123C23.3348 13.0041 23.1679 13 23 13L22.9294 13.0002C22.7914 13.0012 22.654 13.0049 22.5174 13.0114L22.5164 13.0115L22.5004 13.0123Z" fill="#12192B"/>
</g>
</g>
<defs>
<filter id="filter0_ii_664_2018" x="0" y="0" width="46" height="46" filterUnits="userSpaceOnUse" color-interpolation-filters="sRGB">
<feFlood flood-opacity="0" result="BackgroundImageFix"/>
<feBlend mode="normal" in="SourceGraphic" in2="BackgroundImageFix" result="shape"/>
<feColorMatrix in="SourceAlpha" type="matrix" values="0 0 0 0 0 0 0 0 0 0 0 0 0 0 0 0 0 0 127 0" result="hardAlpha"/>
<feOffset dx="0.5" dy="0.5"/>
<feComposite in2="hardAlpha" operator="arithmetic" k2="-1" k3="1"/>
<feColorMatrix type="matrix" values="0 0 0 0 1 0 0 0 0 1 0 0 0 0 1 0 0 0 0.3 0"/>
<feBlend mode="normal" in2="shape" result="effect1_innerShadow_664_2018"/>
<feColorMatrix in="SourceAlpha" type="matrix" values="0 0 0 0 0 0 0 0 0 0 0 0 0 0 0 0 0 0 127 0" result="hardAlpha"/>
<feOffset dx="-0.5" dy="-0.5"/>
<feComposite in2="hardAlpha" operator="arithmetic" k2="-1" k3="1"/>
<feColorMatrix type="matrix" values="0 0 0 0 1 0 0 0 0 1 0 0 0 0 1 0 0 0 0.3 0"/>
<feBlend mode="normal" in2="effect1_innerShadow_664_2018" result="effect2_innerShadow_664_2018"/>
</filter>
</defs>
</svg>
