<svg width="20" height="20" viewBox="0 0 20 20" fill="none" xmlns="http://www.w3.org/2000/svg">
<path d="M11 11L9.06585 8.82408C8.36263 8.03295 8.01101 7.63739 7.60769 7.51436C7.25426 7.40655 6.87347 7.43299 6.53832 7.58861C6.15587 7.7662 5.8623 8.20656 5.27515 9.08728L2.48752 13.2687C1.67946 14.4808 1.27544 15.0868 1.30544 15.5894C1.33158 16.0272 1.54803 16.4317 1.89782 16.6963C2.29932 17 3.0277 17 4.48444 17H14.711C16.3908 17 17.2308 17 17.6455 16.6598C18.0059 16.3643 18.2085 15.918 18.1936 15.4521C18.1765 14.9159 17.6233 14.2838 16.5171 13.0196L14.6893 10.9306L14.6893 10.9306C14.1019 10.2593 13.8082 9.92366 13.4564 9.79094C13.1472 9.6743 12.8082 9.66302 12.492 9.75883C12.1321 9.86785 11.8168 10.1832 11.186 10.814L11.186 10.814L11 11Z" fill="#C8C8C8"/>
<circle cx="13" cy="5" r="2" fill="#C8C8C8"/>
</svg>
