<svg width="32" height="32" viewBox="0 0 32 32" fill="none" xmlns="http://www.w3.org/2000/svg">
<path d="M12 4H20V8H15.9357C15.6263 12.7335 14.2147 16.6154 12.0496 19.7444C12.5816 20.1338 13.1378 20.4906 13.7142 20.8138L12.3609 24.626C11.35 24.1016 10.3799 23.493 9.46566 22.8046C7.20366 25.0208 4.5438 26.6572 1.78784 27.8382L0.212158 24.1618C2.54184 23.1632 4.70614 21.827 6.52454 20.0846C4.56262 17.8555 3.08448 15.135 2.34438 12H6.48694C7.05246 13.8518 7.95518 15.5106 9.1087 16.9439C10.6084 14.5914 11.6484 11.6606 11.926 8H0V4H8V0H12V4Z" fill="black" fill-opacity="0.4"/>
<path fill-rule="evenodd" clip-rule="evenodd" d="M14 32L21.0876 12H24.9122L32 32H27.7676L26.3476 28H19.6522L18.2322 32H14ZM23 18.5698L24.9276 24H21.0722L23 18.5698Z" fill="black" fill-opacity="0.4"/>
</svg>
