<svg width="9" height="12" viewBox="0 0 9 12" fill="none" xmlns="http://www.w3.org/2000/svg">
<path d="M4.66081 0.598392C3.77738 0.598392 2.93005 0.957502 2.30537 1.59673C1.6807 2.23595 1.3299 3.10293 1.3299 4.00693C1.34658 4.81685 1.62241 5.46124 2.08716 6.24845C2.55191 7.03566 4.66313 10.5984 4.66313 10.5984C4.66313 10.5984 6.77436 7.03566 7.2391 6.24845C7.70385 5.46124 7.97982 4.81684 7.99656 4.00693C7.99656 3.5589 7.91022 3.11527 7.74253 2.70141C7.57483 2.28755 7.32896 1.91158 7.01915 1.59501C6.70934 1.27843 6.34166 1.02746 5.93698 0.856449C5.5323 0.685441 5.09864 0.597752 4.66081 0.598392Z" stroke="#121131"/>
<path d="M4.63776 5.40755C5.29024 5.40755 5.81917 4.85828 5.81917 4.18071C5.81917 3.50314 5.29024 2.95386 4.63776 2.95386C3.98529 2.95386 3.45636 3.50314 3.45636 4.18071C3.45636 4.85828 3.98529 5.40755 4.63776 5.40755Z" stroke="#121131"/>
</svg>
