<svg width="16" height="17" viewBox="0 0 16 17" fill="none" xmlns="http://www.w3.org/2000/svg">
<path d="M1 3.89197L15.2703 12.973" stroke="#00254E" stroke-width="1.2973" stroke-linecap="round"/>
<path fill-rule="evenodd" clip-rule="evenodd" d="M5.10742 8.0542V8.21625C5.10742 9.88803 6.46267 11.2433 8.13445 11.2433C8.6673 11.2433 9.16799 11.1056 9.60289 10.8639L5.10742 8.0542Z" fill="#00254E"/>
<path fill-rule="evenodd" clip-rule="evenodd" d="M8.13445 0C6.46267 0 5.10742 1.35524 5.10742 3.02702V5.02713L11.1094 8.77835C11.1436 8.5962 11.1615 8.4083 11.1615 8.21622V3.02703C11.1615 1.35525 9.80623 0 8.13445 0Z" fill="#00254E"/>
<mask id="path-4-inside-1_6248_1686" fill="white">
<path d="M14.6216 8.00001C14.6216 8.82343 14.4594 9.63879 14.1443 10.3995C13.8292 11.1603 13.3673 11.8515 12.7851 12.4338C12.2028 13.016 11.5116 13.4779 10.7509 13.793C9.99011 14.1081 9.17475 14.2703 8.35132 14.2703C7.5279 14.2703 6.71254 14.1081 5.9518 13.793C5.19105 13.4779 4.49982 13.016 3.91757 12.4338C3.33533 11.8515 2.87346 11.1603 2.55835 10.3995C2.24324 9.63879 2.08105 8.82343 2.08105 8.00001H3.18677C3.18677 8.67823 3.32035 9.3498 3.5799 9.9764C3.83944 10.603 4.21986 11.1723 4.69943 11.6519C5.17901 12.1315 5.74834 12.5119 6.37493 12.7714C7.00153 13.031 7.67311 13.1646 8.35133 13.1646C9.02954 13.1646 9.70112 13.031 10.3277 12.7714C10.9543 12.5119 11.5236 12.1315 12.0032 11.6519C12.4828 11.1723 12.8632 10.603 13.1228 9.9764C13.3823 9.3498 13.5159 8.67823 13.5159 8.00001H14.6216Z"/>
</mask>
<path d="M14.6216 8.00001C14.6216 8.82343 14.4594 9.63879 14.1443 10.3995C13.8292 11.1603 13.3673 11.8515 12.7851 12.4338C12.2028 13.016 11.5116 13.4779 10.7509 13.793C9.99011 14.1081 9.17475 14.2703 8.35132 14.2703C7.5279 14.2703 6.71254 14.1081 5.9518 13.793C5.19105 13.4779 4.49982 13.016 3.91757 12.4338C3.33533 11.8515 2.87346 11.1603 2.55835 10.3995C2.24324 9.63879 2.08105 8.82343 2.08105 8.00001H3.18677C3.18677 8.67823 3.32035 9.3498 3.5799 9.9764C3.83944 10.603 4.21986 11.1723 4.69943 11.6519C5.17901 12.1315 5.74834 12.5119 6.37493 12.7714C7.00153 13.031 7.67311 13.1646 8.35133 13.1646C9.02954 13.1646 9.70112 13.031 10.3277 12.7714C10.9543 12.5119 11.5236 12.1315 12.0032 11.6519C12.4828 11.1723 12.8632 10.603 13.1228 9.9764C13.3823 9.3498 13.5159 8.67823 13.5159 8.00001H14.6216Z" stroke="#00254E" stroke-width="2.59459" stroke-linejoin="round" mask="url(#path-4-inside-1_6248_1686)"/>
<path d="M8.13574 13.8379V15.5676" stroke="#00254E" stroke-width="1.2973" stroke-linecap="round"/>
<path d="M5.1084 16L11.1625 16" stroke="#00254E" stroke-width="1.2973" stroke-linecap="round"/>
</svg>
