<svg width="24" height="24" viewBox="0 0 24 24" fill="none" xmlns="http://www.w3.org/2000/svg">
<g id="Mic">
<path id="Union" fill-rule="evenodd" clip-rule="evenodd" d="M12 4C10.3431 4 9 5.34315 9 7V11.5C9 13.1569 10.3431 14.5 12 14.5C13.6569 14.5 15 13.1569 15 11.5V7C15 5.34315 13.6569 4 12 4ZM7.75 11C7.75 10.5858 7.41421 10.25 7 10.25C6.58579 10.25 6.25 10.5858 6.25 11V11.5C6.25 14.4214 8.42873 16.834 11.25 17.2015V20C11.25 20.4142 11.5858 20.75 12 20.75C12.4142 20.75 12.75 20.4142 12.75 20V17.2015C15.5713 16.834 17.75 14.4214 17.75 11.5V11C17.75 10.5858 17.4142 10.25 17 10.25C16.5858 10.25 16.25 10.5858 16.25 11V11.5C16.25 13.8472 14.3472 15.75 12 15.75C9.65279 15.75 7.75 13.8472 7.75 11.5V11Z" fill="white" fill-opacity="0.6"/>
</g>
</svg>
