<svg width="27" height="20" viewBox="0 0 27 20" fill="none" xmlns="http://www.w3.org/2000/svg">
  <path d="M13.8142 0.140373C13.3291 -0.0945108 12.7525 -0.0309582 12.3302 0.303514L5.8757 5.41101H1.4057C0.629305 5.41101 0 6.03998 0 6.81638V13.1835C0 13.9595 0.629305 14.5885 1.4057 14.5885H5.8757L12.3302 19.6963C12.5835 19.8965 12.8914 20 13.203 20C13.411 20 13.62 19.9528 13.8149 19.8595C14.3004 19.6246 14.6083 19.1325 14.6083 18.5943V1.40553C14.608 0.866645 14.2997 0.374601 13.8142 0.140373Z" fill="#959491"/>
  <path d="M26.5741 6.42936C26.0251 5.88032 25.1357 5.88032 24.5869 6.42936L23.004 8.01229L21.4211 6.42936C20.8721 5.88032 19.9813 5.88032 19.4333 6.42936C18.8842 6.97841 18.8842 7.86847 19.4333 8.41686L21.0159 9.99979L19.4329 11.5821C18.8846 12.1321 18.8846 13.0215 19.4329 13.5696C19.7075 13.8447 20.0678 13.982 20.4265 13.982C20.7869 13.982 21.1462 13.8444 21.4214 13.5696L23.0037 11.9873L24.586 13.5696C24.8605 13.8444 25.2208 13.9813 25.5796 13.9813C25.9399 13.9813 26.2993 13.8444 26.5738 13.5696C27.1228 13.0212 27.1228 12.1311 26.5738 11.5821L24.9912 9.99979L26.5741 8.41719C27.1235 7.86815 27.1235 6.97808 26.5741 6.42936Z" fill="#959491"/>
</svg>
