<svg width="16" height="16" viewBox="0 0 16 16" fill="none" xmlns="http://www.w3.org/2000/svg">
<path d="M3.2114 16C3.78616 16 4.38876 15.8504 4.94313 15.5371C9.45019 13.0041 13.1354 9.25052 15.598 4.68232C16.3239 3.34073 16.0415 1.75294 14.9546 1.06738C14.5743 0.820182 14.1855 0.572982 13.7957 0.328784C13.2373 -0.00548775 12.5835 -0.0870539 11.9476 0.0940931C11.248 0.292754 10.6489 0.785154 10.3034 1.44469C10.1224 1.79297 9.93247 2.13425 9.73359 2.46902C9.27965 3.23714 9.33036 4.21544 9.85938 4.903C9.96528 5.03861 10.0682 5.17221 10.1701 5.30632C10.4247 5.63559 10.3859 6.14851 10.0801 6.52932C9.01713 7.85839 7.80895 9.07438 6.48791 10.1447C6.10954 10.4525 5.59992 10.4915 5.27476 10.2383C5.13902 10.1332 5.00627 10.0297 4.87451 9.92557L4.87153 9.92357C4.18739 9.39114 3.21637 9.3396 2.45368 9.79597C2.11956 9.99663 1.78097 10.1878 1.43642 10.3694C0.780621 10.7167 0.290885 11.3197 0.0934992 12.0238C-0.0859871 12.6638 -0.00544167 13.3213 0.321214 13.8763C0.523572 14.204 0.722947 14.5223 0.924808 14.8391C1.38819 15.5927 2.26276 16 3.2114 16ZM12.6104 1.00183C12.8475 1.00183 13.0767 1.06388 13.2801 1.18498C13.6564 1.42017 14.0393 1.66437 14.4206 1.91207C15.058 2.31389 15.1918 3.34073 14.7244 4.20493C12.3513 8.6065 8.80085 12.2234 4.45786 14.6644C3.44608 15.2349 2.23989 15.0748 1.76705 14.3061C1.5637 13.9869 1.36632 13.6726 1.17241 13.3574C0.991432 13.0496 0.946685 12.6698 1.05159 12.2965C1.17539 11.8551 1.48465 11.4758 1.8998 11.2562C2.2548 11.069 2.61328 10.8668 2.9638 10.6567C3.37697 10.4085 3.90001 10.4335 4.26297 10.7147C4.39771 10.8208 4.53244 10.9264 4.66818 11.0315C5.35132 11.5649 6.37952 11.5199 7.11288 10.9249C8.48911 9.80998 9.74801 8.54245 10.8553 7.15833C11.4464 6.42073 11.4897 5.38489 10.9577 4.69583C10.8553 4.56122 10.7503 4.42461 10.6439 4.289C10.3645 3.9257 10.3417 3.39978 10.5883 2.98244C10.7946 2.63515 10.995 2.27436 11.1839 1.91107C11.4022 1.49423 11.779 1.18248 12.2181 1.05788C12.3488 1.02085 12.4806 1.00183 12.6104 1.00183Z" fill="white"/>
</svg>
