<svg width="20" height="20" viewBox="0 0 20 20" fill="none" xmlns="http://www.w3.org/2000/svg">
<path fill-rule="evenodd" clip-rule="evenodd" d="M5.17793 1.01094C5.66509 0.944206 6.1424 1.18722 6.37465 1.62024L7.41728 3.56421C7.87379 4.41536 7.71853 5.46477 7.03508 6.14758L5.09209 8.08877C5.86757 9.31098 6.85914 10.6091 8.11988 11.8686C9.37953 13.1271 10.679 14.1184 11.9024 14.8945L13.8463 12.9524C14.5297 12.2696 15.5801 12.1145 16.4321 12.5706L18.3792 13.613C18.8103 13.8438 19.0535 14.3169 18.99 14.8014L18.6094 17.7074C18.4969 18.5665 17.6571 19.2002 16.7541 18.9416C15.0693 18.4591 10.8265 16.94 6.93516 13.0523C5.37136 11.4899 4.19296 9.87324 3.31218 8.39095C1.9986 6.18028 1.34362 4.26289 1.05739 3.25545C0.802225 2.35738 1.43126 1.52417 2.28463 1.40727L5.17793 1.01094Z" fill="white"/>
</svg>
