<svg width="15" height="16" viewBox="0 0 15 16" fill="none" xmlns="http://www.w3.org/2000/svg">
<path d="M10.8945 3.99289C10.7242 4.17241 10.7188 4.45632 10.8721 4.65175C11.5326 5.48884 11.9292 6.56526 11.9292 7.73973C11.9292 8.91421 11.5326 9.99058 10.8727 10.8284C10.7188 11.0238 10.7248 11.3077 10.8951 11.4866C11.0876 11.6897 11.4028 11.6699 11.5766 11.449C12.3699 10.4432 12.8468 9.15044 12.8468 7.73967C12.8468 6.3289 12.3699 5.03612 11.5766 4.03031C11.4022 3.80941 11.0876 3.78918 10.8945 3.99289Z" fill="#75728A"/>
<path d="M11.0101 7.73991C11.0101 6.86653 10.7354 6.06058 10.2724 5.41264C10.107 5.18092 9.78159 5.16438 9.5872 5.36998L9.5866 5.37062C9.4242 5.54186 9.40912 5.81049 9.54615 6.00464C9.88966 6.48845 10.0925 7.08936 10.0925 7.73987C10.0925 8.39039 9.88966 8.99138 9.54615 9.47576C9.40911 9.66927 9.42421 9.93854 9.5866 10.1091L9.5872 10.1098C9.78159 10.3148 10.107 10.2982 10.2724 10.0665C10.7354 9.41909 11.0101 8.61323 11.0101 7.73991Z" fill="#75728A"/>
<path d="M12.1959 2.62115C12.0239 2.80257 12.0184 3.09157 12.1784 3.28445C13.166 4.47549 13.7644 6.03445 13.7644 7.74051C13.7644 9.44657 13.1661 11.0055 12.1784 12.1966C12.0184 12.3895 12.0239 12.6785 12.1959 12.8599C12.3825 13.0566 12.6897 13.0496 12.8636 12.8408C13.9955 11.4785 14.682 9.69413 14.682 7.74053C14.682 5.78693 13.9956 4.00249 12.8636 2.64028C12.6897 2.43149 12.3825 2.42445 12.1959 2.62115Z" fill="#75728A"/>
<path d="M7.15074 0.200428L3.67038 3.87035H0.917614C0.411122 3.87035 0 4.30387 0 4.83795V10.6435C0 11.1776 0.411122 11.6111 0.917614 11.6111H3.67038L7.15074 15.281C7.27269 15.4096 7.4375 15.4815 7.60956 15.4815C7.96815 15.4815 8.25852 15.1754 8.25852 14.7972V0.684314C8.25852 0.306191 7.96815 0 7.60956 0C7.4375 0 7.27269 0.0718357 7.15074 0.200428Z" fill="#75728A"/>
</svg>
