<svg width="11" height="10" viewBox="0 0 11 10" fill="none" xmlns="http://www.w3.org/2000/svg">
  <path d="M10.9846 3.79669C10.967 3.74493 10.9347 3.69885 10.8912 3.66361C10.8478 3.62837 10.7949 3.60534 10.7385 3.59711L7.31189 3.12047L5.77952 0.16317C5.75406 0.114175 5.71476 0.0729369 5.66605 0.0441066C5.61733 0.0152763 5.56114 0 5.50382 0C5.44649 0 5.3903 0.0152763 5.34158 0.0441066C5.29287 0.0729369 5.25357 0.114175 5.22811 0.16317L3.69575 3.12047L0.270384 3.59007C0.21192 3.59688 0.156735 3.61956 0.111382 3.6554C0.0660294 3.69125 0.0324144 3.73875 0.0145294 3.79228C-0.00335554 3.84581 -0.00475898 3.9031 0.0104858 3.95737C0.0257305 4.01163 0.0569829 4.06059 0.100531 4.09841L2.5794 6.40767L1.99476 9.65612C1.98488 9.71018 1.99109 9.76579 2.01269 9.81666C2.03428 9.86752 2.07039 9.91159 2.11691 9.94386C2.16344 9.97614 2.21852 9.99533 2.2759 9.99925C2.33328 10.0032 2.39067 9.99167 2.44154 9.96605L5.50382 8.42929L8.56732 9.96488C8.61819 9.9905 8.67558 10.002 8.73296 9.99807C8.79034 9.99415 8.84543 9.97497 8.89195 9.94269C8.93848 9.91041 8.97459 9.86634 8.99618 9.81548C9.01777 9.76462 9.02398 9.709 9.0141 9.65494L8.42824 6.40767L10.9071 4.09841C10.9483 4.06008 10.9774 4.01148 10.9912 3.95814C11.0049 3.9048 11.0026 3.84887 10.9846 3.79669Z" fill="#ffb421"/>
</svg>
