<svg width="32" height="32" viewBox="0 0 32 32" fill="none" xmlns="http://www.w3.org/2000/svg">
<g clip-path="url(#clip0_6948_4318)">
<path d="M0 16C0 7.16344 7.16344 0 16 0C24.8366 0 32 7.16344 32 16C32 24.8366 24.8366 32 16 32C7.16344 32 0 24.8366 0 16Z" fill="url(#paint0_linear_6948_4318)"/>
<path fill-rule="evenodd" clip-rule="evenodd" d="M15.9951 7.75C15.7912 7.75061 15.5874 7.82872 15.4318 7.98431L9.49213 13.924C9.17971 14.2364 9.17971 14.743 9.49213 15.0554C9.80455 15.3678 10.3111 15.3678 10.6235 15.0554L15.1979 10.481V23.45C15.1979 23.8918 15.556 24.25 15.9979 24.25C16.4397 24.25 16.7979 23.8918 16.7979 23.45V10.482L21.3715 15.0556C21.6839 15.368 22.1905 15.368 22.5029 15.0556C22.8153 14.7432 22.8153 14.2367 22.5029 13.9243L16.5819 8.00325C16.4359 7.84739 16.2283 7.75 15.9979 7.75C15.997 7.75 15.996 7.75 15.9951 7.75Z" fill="white"/>
</g>
<defs>
<linearGradient id="paint0_linear_6948_4318" x1="16" y1="0" x2="16" y2="32" gradientUnits="userSpaceOnUse">
<stop stop-color="#00254E"/>
<stop offset="1" stop-color="#007AFF"/>
</linearGradient>
<clipPath id="clip0_6948_4318">
<path d="M0 16C0 7.16344 7.16344 0 16 0C24.8366 0 32 7.16344 32 16C32 24.8366 24.8366 32 16 32C7.16344 32 0 24.8366 0 16Z" fill="white"/>
</clipPath>
</defs>
</svg>
