<svg width="20" height="20" viewBox="0 0 20 20" fill="none" xmlns="http://www.w3.org/2000/svg">
<path fill-rule="evenodd" clip-rule="evenodd" d="M13.43 12.5464C13.488 12.6044 13.5341 12.6732 13.5655 12.7489C13.5969 12.8247 13.6131 12.9059 13.6131 12.9879C13.6132 13.0699 13.5971 13.1511 13.5657 13.2269C13.5344 13.3027 13.4884 13.3715 13.4305 13.4295C13.3725 13.4875 13.3037 13.5336 13.228 13.565C13.1522 13.5964 13.071 13.6126 12.989 13.6126C12.907 13.6127 12.8258 13.5966 12.75 13.5652C12.6742 13.5339 12.6054 13.4879 12.5474 13.43L9.55871 10.4418C9.44208 10.3243 9.37652 10.1655 9.37627 9.99999V4.57579C9.37627 4.49376 9.39242 4.41253 9.42382 4.33674C9.45521 4.26096 9.50122 4.19209 9.55923 4.13409C9.61723 4.07608 9.6861 4.03007 9.76188 3.99868C9.83767 3.96729 9.9189 3.95113 10.0009 3.95113C10.083 3.95113 10.1642 3.96729 10.24 3.99868C10.3158 4.03007 10.3846 4.07608 10.4426 4.13409C10.5006 4.19209 10.5467 4.26096 10.578 4.33674C10.6094 4.41253 10.6256 4.49376 10.6256 4.57579V9.74088L13.43 12.5464ZM16.1885 16.1871C17.62 14.7556 18.511 12.8719 18.7094 10.8572C18.9079 8.84243 18.4016 6.82118 17.2769 5.13785C16.1522 3.45451 14.4786 2.21324 12.5412 1.62553C10.6039 1.03782 8.52274 1.14004 6.65232 1.91476C4.78191 2.68949 3.23799 4.08879 2.28363 5.87424C1.32927 7.65969 1.02351 9.72081 1.41846 11.7064C1.81341 13.692 2.88462 15.4793 4.44958 16.7636C6.01455 18.048 7.97642 18.7499 10.0009 18.7499C12.3215 18.7488 14.5467 17.827 16.1885 16.1871ZM10.0009 3.77508e-05C8.02304 -0.000155199 6.08951 0.586195 4.44488 1.68494C2.80024 2.78368 1.51837 4.34545 0.76138 6.17275C0.00439038 8.00005 -0.193717 10.0108 0.192112 11.9507C0.577941 13.8906 1.53038 15.6725 2.92897 17.0711C3.85755 17.9997 4.95995 18.7362 6.1732 19.2388C7.38646 19.7413 8.68682 20 10 20C11.3133 20 12.6136 19.7413 13.8269 19.2388C15.0401 18.7362 16.1425 17.9997 17.0711 17.0711C17.9997 16.1425 18.7363 15.0401 19.2388 13.8268C19.7414 12.6136 20.0001 11.3132 20.0001 9.99999C20.0001 8.68677 19.7414 7.38641 19.2388 6.17315C18.7363 4.95989 17.9997 3.8575 17.0711 2.92891C16.1449 1.99741 15.0431 1.25891 13.8294 0.756166C12.6158 0.253419 11.3145 -0.00358394 10.0009 3.77508e-05Z" fill="#00254E" fill-opacity="0.6"/>
</svg>
