<svg width="16" height="16" viewBox="0 0 16 16" fill="none" xmlns="http://www.w3.org/2000/svg">
<g clip-path="url(#clip0_3748_8486)">
<path fill-rule="evenodd" clip-rule="evenodd" d="M10.744 10.0371C10.7904 10.0835 10.8273 10.1386 10.8524 10.1992C10.8775 10.2597 10.8905 10.3247 10.8905 10.3903C10.8905 10.4559 10.8777 10.5209 10.8526 10.5815C10.8275 10.6421 10.7907 10.6972 10.7444 10.7436C10.698 10.79 10.643 10.8269 10.5824 10.852C10.5218 10.8771 10.4568 10.8901 10.3912 10.8901C10.3256 10.8902 10.2606 10.8773 10.2 10.8522C10.1394 10.8271 10.0843 10.7903 10.0379 10.744L7.64697 8.35341C7.55367 8.25943 7.50122 8.13242 7.50101 7.99999V3.66063C7.50101 3.59501 7.51394 3.53003 7.53905 3.4694C7.56417 3.40877 7.60098 3.35368 7.64738 3.30727C7.69379 3.26087 7.74888 3.22406 7.80951 3.19894C7.87014 3.17383 7.93512 3.1609 8.00074 3.1609C8.06637 3.1609 8.13135 3.17383 8.19198 3.19894C8.25261 3.22406 8.3077 3.26087 8.35411 3.30727C8.40051 3.35368 8.43732 3.40877 8.46244 3.4694C8.48755 3.53003 8.50048 3.59501 8.50048 3.66063V7.7927L10.744 10.0371ZM12.9508 12.9497C14.096 11.8044 14.8088 10.2976 14.9675 8.68575C15.1263 7.07394 14.7213 5.45695 13.8215 4.11028C12.9217 2.76361 11.5828 1.77059 10.033 1.30042C8.48313 0.830257 6.81819 0.91203 5.32186 1.53181C3.82553 2.15159 2.59039 3.27103 1.8269 4.69939C1.06341 6.12775 0.818808 7.77665 1.13477 9.36514C1.45073 10.9536 2.3077 12.3834 3.55967 13.4109C4.81164 14.4384 6.38114 15 8.00074 15C9.85716 14.999 11.6374 14.2616 12.9508 12.9497ZM8.00074 3.02007e-05C6.41843 -0.00012416 4.87161 0.468956 3.5559 1.34795C2.24019 2.22694 1.2147 3.47636 0.609104 4.9382C0.0035123 6.40004 -0.154974 8.00863 0.15369 9.56055C0.462353 11.1125 1.2243 12.538 2.34317 13.6569C3.08604 14.3997 3.96796 14.989 4.93856 15.391C5.90917 15.7931 6.94946 16 8.00003 16C9.05061 16 10.0909 15.7931 11.0615 15.391C12.0321 14.989 12.914 14.3997 13.6569 13.6569C14.3998 12.914 14.989 12.0321 15.3911 11.0615C15.7931 10.0909 16 9.05057 16 7.99999C16 6.94941 15.7931 5.90913 15.3911 4.93852C14.989 3.96791 14.3998 3.086 13.6569 2.34313C12.9159 1.59793 12.0344 1.00713 11.0636 0.604933C10.0927 0.202735 9.05164 -0.00286715 8.00074 3.02007e-05Z" fill="#00254E" fill-opacity="0.6"/>
</g>
<defs>
<clipPath id="clip0_3748_8486">
<rect width="16" height="16" fill="white"/>
</clipPath>
</defs>
</svg>
