<svg width="27" height="20" viewBox="0 0 27 20" fill="none" xmlns="http://www.w3.org/2000/svg">
  <path d="M13.8146 0.140373C13.3297 -0.0945108 12.7532 -0.0309582 12.3309 0.303514L5.87635 5.41101H1.4057C0.629632 5.41101 0 6.03998 0 6.81638V13.1835C0 13.9595 0.629632 14.5885 1.4057 14.5885H5.87602L12.3309 19.6963C12.5841 19.8965 12.8921 20 13.203 20C13.4116 20 13.62 19.9528 13.8146 19.8595C14.3007 19.6246 14.6086 19.1325 14.6086 18.5943V1.40553C14.608 0.866645 14.2997 0.374601 13.8146 0.140373Z" fill="black"/>
  <path d="M19.772 5.02384C19.223 4.4748 18.3329 4.4748 17.7848 5.02384C17.2358 5.57289 17.2358 6.46296 17.7848 7.01102C19.4323 8.65881 19.4323 11.3401 17.7848 12.9879C17.2358 13.5367 17.2358 14.4267 17.7848 14.9748C18.0587 15.25 18.419 15.3872 18.7784 15.3872C19.1388 15.3872 19.4975 15.25 19.772 14.9748C21.1017 13.6451 21.8335 11.879 21.8335 9.99932C21.8335 8.11992 21.1007 6.35256 19.772 5.02384Z" fill="black"/>
  <path d="M21.4289 1.37943C20.8805 1.92848 20.8805 2.81855 21.4289 3.36726C25.0861 7.02418 25.0861 12.9746 21.4289 16.6315C20.8805 17.1802 20.8805 18.0706 21.4289 18.6186C21.7034 18.8932 22.0631 19.0304 22.4225 19.0304C22.7828 19.0304 23.1422 18.8932 23.4167 18.6186C28.1694 13.8659 28.1694 6.13116 23.4167 1.37845C22.868 0.831043 21.9779 0.831043 21.4289 1.37943Z" fill="black"/>
</svg>
