<svg width="25" height="24" viewBox="0 0 25 24" fill="none" xmlns="http://www.w3.org/2000/svg">
<path d="M18.1251 5.70732C19.6861 5.70732 20.9788 4.43902 20.9788 2.85366C20.9788 1.29268 19.7105 0 18.1251 0C16.5642 0 15.2715 1.26829 15.2715 2.85366C15.2715 4.43902 16.5642 5.70732 18.1251 5.70732ZM18.1251 1.26829C19.0032 1.26829 19.7105 1.97561 19.7105 2.85366C19.7105 3.73171 19.0032 4.43902 18.1251 4.43902C17.2471 4.43902 16.5398 3.73171 16.5398 2.85366C16.5398 2 17.2471 1.26829 18.1251 1.26829Z" fill="#121131" fill-opacity="0.6"/>
<path d="M24.1252 8.21961C23.8081 7.70741 23.2471 7.36595 22.6373 7.36595C22.3203 7.36595 22.0032 7.46351 21.7349 7.60985L18.7593 9.41473L17.6373 7.09766C17.2959 6.04888 16.2715 5.31717 15.1252 5.36595C14.7837 5.39034 14.491 5.46351 14.1983 5.60985L10.9544 5.12205C10.8813 5.12205 10.7837 5.09766 10.7105 5.09766C10.1983 5.09766 9.71052 5.31717 9.39345 5.70741L5.58857 10.1464C4.95442 10.8781 5.05198 11.9757 5.78369 12.6099C6.10076 12.8781 6.49101 13.0245 6.90564 13.0245C7.41784 13.0245 7.90564 12.805 8.22271 12.4147L11.3934 8.70741L12.1495 8.80497L8.56418 14.5611L6.95442 16.8294L1.10076 19.1708C0.661738 19.3416 0.320275 19.683 0.149543 20.0977C-0.0455792 20.5367 -0.0455792 21.0001 0.125153 21.4391C0.393445 22.0977 1.02759 22.5367 1.73491 22.5367C1.95442 22.5367 2.17393 22.4879 2.39345 22.4147L8.73491 19.8781C9.05198 19.7562 9.32027 19.5367 9.5154 19.2684L11.6617 16.5855L13.8569 17.5123L11.1495 21.244C10.5886 22.0245 10.7837 23.122 11.5642 23.683C11.8569 23.9025 12.1983 24.0001 12.5642 24.0001C12.613 24.0001 12.6861 24.0001 12.7349 24.0001C13.2227 23.9513 13.6861 23.683 13.9788 23.2684L17.8569 17.7806C18.1495 17.3416 18.2471 16.805 18.1008 16.3172C17.9544 15.805 17.5886 15.3903 17.1008 15.1952L13.6617 13.7318L15.5642 10.9513L16.3934 12.683C16.613 13.122 17.0032 13.4635 17.4666 13.5855H17.491L17.5398 13.6099C17.6861 13.6342 17.8081 13.6586 17.9544 13.6586C18.2715 13.6586 18.5886 13.5611 18.8569 13.4147L23.4666 10.6586C23.8569 10.4147 24.1495 10.0489 24.2715 9.58546C24.4178 9.09766 24.3691 8.60985 24.1252 8.21961ZM10.9056 7.36595L7.27149 11.5855C7.17393 11.683 7.05198 11.7562 6.90564 11.7562C6.80808 11.7562 6.68613 11.7074 6.58857 11.6342C6.39345 11.4635 6.36906 11.1708 6.53979 10.9757L10.3447 6.53668C10.4422 6.43912 10.5642 6.36595 10.7105 6.36595C10.7349 6.36595 13.4666 6.75619 13.4666 6.75619L12.9056 7.63424L10.9056 7.36595ZM16.6373 16.3172C16.7593 16.3659 16.8569 16.4879 16.9056 16.6342C16.9544 16.7806 16.93 16.9269 16.8325 17.0489L12.9544 22.5123C12.8813 22.6342 12.7349 22.7074 12.613 22.7074C12.5886 22.7074 12.5886 22.7074 12.5642 22.7074C12.4666 22.7074 12.3691 22.683 12.2959 22.6099C12.0764 22.4635 12.0276 22.1708 12.1739 21.9513L15.7105 16.9269L12.4178 15.5367L12.9544 14.7318L16.6373 16.3172ZM22.8813 9.51229L18.2715 12.2928C18.1983 12.3416 18.1008 12.3659 18.0276 12.3659C17.9788 12.3659 17.9544 12.3659 17.9056 12.3416H17.8813C17.7593 12.2928 17.6373 12.2196 17.5886 12.0977L15.7105 8.244C15.5886 8.04888 15.3934 7.92692 15.1739 7.92692C14.8325 7.92692 14.5398 8.21961 14.5398 8.56107C14.5398 8.68302 14.613 8.87814 14.613 8.87814L14.9544 9.56107L11.1495 15.1464L8.44223 18.5367C8.39345 18.6099 1.78369 21.2684 1.71052 21.2684C1.5154 21.2684 1.34466 21.1464 1.27149 20.9757C1.17393 20.7318 1.29588 20.4635 1.53979 20.3659L7.7593 17.8538L9.66174 15.1952L14.9056 6.65863C15.0032 6.63424 15.1008 6.60985 15.2227 6.58546C15.8325 6.56107 16.3447 6.95131 16.491 7.51229L18.2471 11.1708L22.4178 8.68302C22.491 8.63424 22.5886 8.60985 22.6617 8.60985C22.8325 8.60985 22.9788 8.68302 23.0764 8.82936C23.1739 9.09766 23.1008 9.39034 22.8813 9.51229Z" fill="#121131" fill-opacity="0.6"/>
</svg>
