<svg width="25" height="24" viewBox="0 0 25 24" fill="none" xmlns="http://www.w3.org/2000/svg">
<path d="M22.5799 2.55621C22.5799 1.13609 21.4438 0 20.0237 0H5.25444C3.83432 0 2.69822 1.13609 2.69822 2.55621V22.2959H0V24H24.9941V22.2959H22.5799V2.55621ZM4.40237 2.55621C4.40237 2.07337 4.7716 1.70414 5.25444 1.70414H20.0237C20.5065 1.70414 20.8757 2.07337 20.8757 2.55621V22.2959H16.4734V19.5976C16.4734 18.1775 15.3373 17.0414 13.9172 17.0414H11.3609C9.94083 17.0414 8.80473 18.1775 8.80473 19.5976V22.2959H4.40237V2.55621ZM14.7692 22.2959H10.5089V19.5976C10.5089 19.1148 10.8781 18.7456 11.3609 18.7456H13.9172C14.4 18.7456 14.7692 19.1148 14.7692 19.5976V22.2959Z" fill="#121131" fill-opacity="0.6"/>
<path d="M8.1807 8.80465H10.1689C11.1061 8.80465 11.873 8.03779 11.873 7.10051V5.11235C11.873 4.17507 11.1061 3.4082 10.1689 3.4082H8.1807C7.24343 3.4082 6.47656 4.17507 6.47656 5.11235V7.10051C6.47656 8.03779 7.21502 8.80465 8.1807 8.80465ZM8.1807 5.11235H10.1689V7.10051H8.1807V5.11235Z" fill="#121131" fill-opacity="0.6"/>
<path d="M14.9971 8.80465H16.9853C17.9226 8.80465 18.6894 8.03779 18.6894 7.10051V5.11235C18.6894 4.17507 17.9226 3.4082 16.9853 3.4082H14.9971C14.0598 3.4082 13.293 4.17507 13.293 5.11235V7.10051C13.293 8.03779 14.0314 8.80465 14.9971 8.80465ZM14.9971 5.11235H16.9853V7.10051H14.9971V5.11235Z" fill="#121131" fill-opacity="0.6"/>
<path d="M10.1689 15.3379C11.1061 15.3379 11.873 14.571 11.873 13.6337V11.6455C11.873 10.7083 11.1061 9.94141 10.1689 9.94141H8.1807C7.24343 9.94141 6.47656 10.7083 6.47656 11.6455V13.6337C6.47656 14.571 7.24343 15.3379 8.1807 15.3379H10.1689ZM8.1807 11.6455H10.1689V13.6337H8.1807V11.6455Z" fill="#121131" fill-opacity="0.6"/>
<path d="M14.9971 15.3379H16.9853C17.9226 15.3379 18.6894 14.571 18.6894 13.6337V11.6455C18.6894 10.7083 17.9226 9.94141 16.9853 9.94141H14.9971C14.0598 9.94141 13.293 10.7083 13.293 11.6455V13.6337C13.293 14.571 14.0314 15.3379 14.9971 15.3379ZM14.9971 11.6455H16.9853V13.6337H14.9971V11.6455Z" fill="#121131" fill-opacity="0.6"/>
</svg>
