<svg width="24" height="24" viewBox="0 0 24 24" fill="none" xmlns="http://www.w3.org/2000/svg">
<path d="M23.0219 10.029C22.7481 9.82142 22.5512 9.52862 22.4621 9.19676C22.373 8.86489 22.3969 8.51283 22.5299 8.19602C22.6778 7.84431 22.7423 7.46319 22.7184 7.08242C22.6946 6.70166 22.583 6.33156 22.3925 6.00103C22.202 5.6705 21.9376 5.38849 21.6201 5.17704C21.3025 4.96558 20.9404 4.8304 20.5619 4.78205C20.2204 4.73934 19.9028 4.58401 19.6594 4.34061C19.416 4.09721 19.2607 3.77962 19.218 3.43805C19.1696 3.05962 19.0344 2.69748 18.823 2.37993C18.6115 2.06239 18.3295 1.79802 17.999 1.60749C17.6684 1.41696 17.2983 1.30541 16.9176 1.28158C16.5368 1.25774 16.1557 1.32225 15.804 1.47007C15.4872 1.60313 15.1351 1.627 14.8032 1.53792C14.4714 1.44884 14.1786 1.25188 13.971 0.978069C13.7401 0.674093 13.4421 0.427633 13.1002 0.25796C12.7582 0.0882877 12.3817 0 12 0C11.6183 0 11.2418 0.0882877 10.8998 0.25796C10.5579 0.427633 10.2599 0.674093 10.029 0.978069C9.82142 1.25188 9.52862 1.44884 9.19676 1.53792C8.86489 1.627 8.51283 1.60313 8.19602 1.47007C7.84431 1.32225 7.46319 1.25774 7.08242 1.28158C6.70166 1.30541 6.33156 1.41696 6.00103 1.60749C5.6705 1.79802 5.38849 2.06239 5.17704 2.37993C4.96558 2.69748 4.8304 3.05962 4.78205 3.43805C4.73934 3.77962 4.58401 4.09721 4.34061 4.34061C4.09721 4.58401 3.77962 4.73934 3.43805 4.78205C3.05962 4.8304 2.69748 4.96558 2.37993 5.17704C2.06239 5.38849 1.79802 5.6705 1.60749 6.00103C1.41696 6.33156 1.30541 6.70166 1.28158 7.08242C1.25774 7.46319 1.32225 7.84431 1.47007 8.19602C1.60313 8.51283 1.627 8.86489 1.53792 9.19676C1.44884 9.52862 1.25188 9.82142 0.978069 10.029C0.674093 10.2599 0.427633 10.5579 0.25796 10.8998C0.0882877 11.2418 0 11.6183 0 12C0 12.3817 0.0882877 12.7582 0.25796 13.1002C0.427633 13.4421 0.674093 13.7401 0.978069 13.971C1.25188 14.1786 1.44884 14.4714 1.53792 14.8032C1.627 15.1351 1.60313 15.4872 1.47007 15.804C1.32225 16.1557 1.25774 16.5368 1.28158 16.9176C1.30541 17.2983 1.41696 17.6684 1.60749 17.999C1.79802 18.3295 2.06239 18.6115 2.37993 18.823C2.69748 19.0344 3.05962 19.1696 3.43805 19.218C3.77962 19.2607 4.09721 19.416 4.34061 19.6594C4.58401 19.9028 4.73934 20.2204 4.78205 20.5619C4.8304 20.9404 4.96558 21.3025 5.17704 21.6201C5.38849 21.9376 5.6705 22.202 6.00103 22.3925C6.33156 22.583 6.70166 22.6946 7.08242 22.7184C7.46319 22.7423 7.84431 22.6778 8.19602 22.5299C8.51283 22.3969 8.86489 22.373 9.19676 22.4621C9.52862 22.5512 9.82142 22.7481 10.029 23.0219C10.2599 23.3259 10.5579 23.5724 10.8998 23.742C11.2418 23.9117 11.6183 24 12 24C12.3817 24 12.7582 23.9117 13.1002 23.742C13.4421 23.5724 13.7401 23.3259 13.971 23.0219C14.1786 22.7481 14.4714 22.5512 14.8032 22.4621C15.1351 22.373 15.4872 22.3969 15.804 22.5299C16.1557 22.6778 16.5368 22.7423 16.9176 22.7184C17.2983 22.6946 17.6684 22.583 17.999 22.3925C18.3295 22.202 18.6115 21.9376 18.823 21.6201C19.0344 21.3025 19.1696 20.9404 19.218 20.5619C19.2607 20.2204 19.416 19.9028 19.6594 19.6594C19.9028 19.416 20.2204 19.2607 20.5619 19.218C20.9404 19.1696 21.3025 19.0344 21.6201 18.823C21.9376 18.6115 22.202 18.3295 22.3925 17.999C22.583 17.6684 22.6946 17.2983 22.7184 16.9176C22.7423 16.5368 22.6778 16.1557 22.5299 15.804C22.3969 15.4872 22.373 15.1351 22.4621 14.8032C22.5512 14.4714 22.7481 14.1786 23.0219 13.971C23.3259 13.7401 23.5724 13.4421 23.742 13.1002C23.9117 12.7582 24 12.3817 24 12C24 11.6183 23.9117 11.2418 23.742 10.8998C23.5724 10.5579 23.3259 10.2599 23.0219 10.029ZM22.4639 13.236C22.0268 13.5671 21.7124 14.0344 21.5706 14.5642C21.4288 15.0939 21.4676 15.6558 21.6809 16.161C21.7729 16.3816 21.8127 16.6205 21.7973 16.859C21.7818 17.0975 21.7116 17.3292 21.592 17.5362C21.4724 17.7431 21.3067 17.9197 21.1078 18.0522C20.9088 18.1846 20.682 18.2694 20.4449 18.3C19.8999 18.3683 19.3932 18.6163 19.0048 19.0048C18.6163 19.3932 18.3683 19.8999 18.3 20.4449C18.2696 20.6824 18.1847 20.9096 18.0521 21.1089C17.9194 21.3081 17.7425 21.474 17.5352 21.5937C17.3279 21.7133 17.0957 21.7834 16.8568 21.7986C16.6179 21.8137 16.3787 21.7734 16.158 21.6809C15.6528 21.4676 15.0909 21.4288 14.5612 21.5706C14.0314 21.7124 13.5641 22.0268 13.233 22.4639C13.088 22.6542 12.901 22.8084 12.6866 22.9146C12.4722 23.0208 12.2362 23.076 11.997 23.076C11.7578 23.076 11.5218 23.0208 11.3074 22.9146C11.093 22.8084 10.906 22.6542 10.761 22.4639C10.4298 22.0261 9.96188 21.7113 9.43151 21.5695C8.90113 21.4277 8.33859 21.4669 7.83303 21.6809C7.61275 21.7724 7.37436 21.8117 7.13638 21.796C6.8984 21.7803 6.66726 21.7099 6.4609 21.5904C6.25455 21.4708 6.07855 21.3053 5.94659 21.1066C5.81463 20.9079 5.73026 20.6815 5.70004 20.4449C5.63165 19.8999 5.38367 19.3932 4.99524 19.0048C4.60682 18.6163 4.10009 18.3683 3.55505 18.3C3.31761 18.2696 3.0904 18.1847 2.89114 18.0521C2.69189 17.9194 2.52597 17.7425 2.40633 17.5352C2.28669 17.3279 2.21657 17.0957 2.20143 16.8568C2.18629 16.6179 2.22655 16.3787 2.31906 16.158C2.53235 15.6528 2.57117 15.0909 2.42936 14.5612C2.28756 14.0314 1.97323 13.5641 1.53607 13.233C1.34579 13.088 1.19156 12.901 1.08539 12.6866C0.979227 12.4722 0.923993 12.2362 0.923993 11.997C0.923993 11.7578 0.979227 11.5218 1.08539 11.3074C1.19156 11.093 1.34579 10.906 1.53607 10.761C1.97323 10.4299 2.28756 9.96257 2.42936 9.43284C2.57117 8.90311 2.53235 8.34123 2.31906 7.83603C2.2277 7.61555 2.18835 7.377 2.20406 7.13886C2.21977 6.90073 2.29012 6.66941 2.40965 6.46285C2.52917 6.25628 2.69467 6.08002 2.89331 5.94774C3.09194 5.81545 3.31838 5.7307 3.55505 5.70004C4.10009 5.63165 4.60682 5.38367 4.99524 4.99524C5.38367 4.60682 5.63165 4.10009 5.70004 3.55505C5.73042 3.31761 5.81525 3.0904 5.94791 2.89114C6.08056 2.69189 6.25745 2.52597 6.46479 2.40633C6.67212 2.28669 6.90429 2.21657 7.14319 2.20143C7.38208 2.18629 7.62125 2.22655 7.84203 2.31906C8.34723 2.53235 8.90911 2.57117 9.43884 2.42936C9.96858 2.28756 10.4359 1.97323 10.767 1.53607C10.912 1.34579 11.099 1.19156 11.3134 1.08539C11.5278 0.979227 11.7638 0.923993 12.003 0.923993C12.2422 0.923993 12.4782 0.979227 12.6926 1.08539C12.907 1.19156 13.094 1.34579 13.239 1.53607C13.5706 1.97347 14.0385 2.28791 14.5687 2.42971C15.0989 2.57151 15.6613 2.53257 16.167 2.31906C16.3873 2.22765 16.6256 2.18826 16.8636 2.20397C17.1016 2.21967 17.3327 2.29005 17.5391 2.40962C17.7454 2.5292 17.9214 2.69475 18.0534 2.89341C18.1854 3.09207 18.2697 3.31848 18.3 3.55505C18.3683 4.10009 18.6163 4.60682 19.0048 4.99524C19.3932 5.38367 19.8999 5.63165 20.4449 5.70004C20.6824 5.73042 20.9096 5.81525 21.1089 5.94791C21.3081 6.08056 21.474 6.25745 21.5937 6.46479C21.7133 6.67212 21.7834 6.90429 21.7986 7.14319C21.8137 7.38208 21.7734 7.62125 21.6809 7.84203C21.4676 8.34723 21.4288 8.90911 21.5706 9.43884C21.7124 9.96858 22.0268 10.4359 22.4639 10.767C22.6542 10.912 22.8084 11.099 22.9146 11.3134C23.0208 11.5278 23.076 11.7638 23.076 12.003C23.076 12.2422 23.0208 12.4782 22.9146 12.6926C22.8084 12.907 22.6542 13.094 22.4639 13.239V13.236Z" fill="#121131" fill-opacity="0.6"/>
<path d="M16.4188 6.49485L8.33984 18.0328C8.26982 18.1334 8.16269 18.2021 8.04201 18.2238C7.92133 18.2455 7.79699 18.2183 7.69634 18.1483C7.59569 18.0783 7.52698 17.9711 7.50532 17.8504C7.48366 17.7298 7.51083 17.6054 7.58084 17.5048L15.6598 5.96685C15.7298 5.8662 15.8369 5.79749 15.9576 5.77583C16.0783 5.75417 16.2026 5.78133 16.3033 5.85135C16.4039 5.92137 16.4726 6.0285 16.4943 6.14918C16.516 6.26986 16.4888 6.3942 16.4188 6.49485Z" fill="#121131" fill-opacity="0.6"/>
<path d="M9.54072 11.0695C10.1801 10.8118 10.7005 10.3251 11.0003 9.70446C11.3002 9.08378 11.3581 8.37362 11.1626 7.71258C10.9672 7.05153 10.5324 6.48703 9.94323 6.12923C9.35403 5.77143 8.65265 5.64599 7.97596 5.77741C7.29927 5.90882 6.69582 6.28766 6.28337 6.83999C5.87091 7.39231 5.67906 8.0785 5.74523 8.76465C5.8114 9.4508 6.13086 10.0877 6.64126 10.551C7.15167 11.0143 7.81639 11.2709 8.50572 11.2705C8.86035 11.2698 9.21159 11.2016 9.54072 11.0695ZM6.79273 9.19155C6.70186 8.96702 6.65616 8.72677 6.65825 8.48455C6.66034 8.24234 6.71018 8.00292 6.80493 7.77999C6.89967 7.55706 7.03745 7.35501 7.21039 7.1854C7.38332 7.0158 7.58801 6.88196 7.81273 6.79156C8.03068 6.70203 8.2641 6.65616 8.49972 6.65656C8.86457 6.6572 9.22102 6.76618 9.52385 6.96967C9.82668 7.17316 10.0623 7.462 10.2007 7.79956C10.295 8.02316 10.3436 8.26338 10.3436 8.50605C10.3436 8.74873 10.295 8.98895 10.2007 9.21255C10.0587 9.54917 9.81988 9.83597 9.51449 10.0365C9.2091 10.237 8.85098 10.3422 8.48566 10.3386C8.12034 10.3351 7.76432 10.223 7.46288 10.0166C7.16143 9.81023 6.92816 9.51886 6.79273 9.17955V9.19155Z" fill="#121131" fill-opacity="0.6"/>
<path d="M14.4595 12.9303C13.9522 13.135 13.517 13.4855 13.2089 13.9376C12.9008 14.3896 12.7337 14.9229 12.7286 15.4699C12.7236 16.017 12.8809 16.5532 13.1807 17.0109C13.4804 17.4685 13.9091 17.827 14.4126 18.041C14.9161 18.2549 15.4717 18.3148 16.0092 18.213C16.5467 18.1112 17.042 17.8523 17.4323 17.469C17.8227 17.0857 18.0906 16.5953 18.2023 16.0598C18.3139 15.5242 18.2642 14.9676 18.0595 14.4603C17.9242 14.1229 17.7237 13.8156 17.4693 13.556C17.215 13.2964 16.9119 13.0896 16.5774 12.9474C16.2429 12.8053 15.8836 12.7306 15.5202 12.7276C15.1567 12.7247 14.7963 12.7936 14.4595 12.9303ZM17.1955 16.2303C17.103 16.4514 16.9672 16.6518 16.7962 16.8197C16.6252 16.9877 16.4223 17.1198 16.1995 17.2083C15.7475 17.3917 15.2412 17.3886 14.7915 17.1997C14.3417 17.0108 13.9851 16.6514 13.7995 16.2003C13.7052 15.9767 13.6566 15.7364 13.6566 15.4938C13.6566 15.2511 13.7052 15.0109 13.7995 14.7873C13.8938 14.5647 14.0312 14.3629 14.2036 14.1936C14.3761 14.0242 14.5803 13.8905 14.8045 13.8003C15.0241 13.713 15.2582 13.6682 15.4945 13.6683C15.7994 13.6679 16.0996 13.7431 16.3684 13.8871C16.6371 14.0311 16.8659 14.2395 17.0344 14.4936C17.2029 14.7477 17.3058 15.0396 17.3339 15.3431C17.3621 15.6467 17.3145 15.9526 17.1955 16.2333V16.2303Z" fill="#121131" fill-opacity="0.6"/>
</svg>
