<svg width="17" height="24" viewBox="0 0 17 24" fill="none" xmlns="http://www.w3.org/2000/svg">
<path d="M7.66712 21.2687C6.93082 19.9941 5.85422 18.6763 4.75142 17.3231C2.43438 14.4849 0 11.4999 0 8.17107C0 5.91548 0.914974 3.87152 2.39328 2.39328C3.87158 0.914973 5.91554 0 8.17107 0C10.4255 0 12.4683 0.914973 13.9465 2.39328C15.4271 3.87385 16.3421 5.91671 16.3421 8.17107C16.3421 11.4999 13.9067 14.4838 11.5907 17.3231C10.4868 18.6763 9.41022 19.9953 8.67383 21.2699C8.51337 21.5476 8.15718 21.642 7.87947 21.4816C7.78729 21.4281 7.7156 21.3541 7.66666 21.2676L7.66712 21.2687ZM10.9356 20.2934C10.6238 20.2194 10.4315 19.9065 10.5054 19.5947C10.5794 19.2828 10.8924 19.0905 11.2042 19.1645C12.0327 19.3625 12.728 19.6424 13.2185 19.9759C13.7989 20.3708 14.1301 20.8602 14.1301 21.4155C14.1301 22.236 13.3824 22.9257 12.1749 23.3752C11.1382 23.761 9.7202 24 8.17139 24C6.62139 24 5.20442 23.761 4.16667 23.3752C2.95923 22.9257 2.21154 22.236 2.21154 21.4155C2.21154 20.8602 2.54157 20.3708 3.1231 19.9759C3.61246 19.6425 4.30893 19.3625 5.13744 19.1645C5.44926 19.0905 5.76221 19.2828 5.83618 19.5947C5.91015 19.9065 5.71783 20.2194 5.40599 20.2934C4.71861 20.4573 4.15642 20.6792 3.77861 20.9364C3.52255 21.1105 3.37689 21.2755 3.37689 21.4155C3.37689 21.7 3.83324 22.013 4.57184 22.2872C5.47999 22.6252 6.75118 22.8346 8.17043 22.8346C9.58968 22.8346 10.8608 22.6252 11.769 22.2872C12.5065 22.013 12.964 21.7 12.964 21.4155C12.964 21.2755 12.8183 21.1105 12.5623 20.9364C12.1856 20.6792 11.6234 20.4573 10.9349 20.2934H10.9356ZM8.17134 4.06739C9.30254 4.06739 10.329 4.52715 11.0722 5.27029C11.8165 6.0157 12.2774 7.04106 12.2774 8.17227C12.2774 9.30461 11.8176 10.3323 11.0745 11.0742L11.0414 11.105C10.3006 11.8288 9.28774 12.2771 8.17245 12.2771C7.04124 12.2771 6.01475 11.8174 5.2716 11.0742C4.52733 10.3311 4.06643 9.3046 4.06643 8.17226C4.06643 7.04106 4.52619 6.01456 5.26933 5.27142C6.01475 4.52714 7.04011 4.06624 8.17131 4.06624L8.17134 4.06739ZM10.2505 6.09308C9.71906 5.56276 8.98274 5.23387 8.17134 5.23387C7.35877 5.23387 6.62361 5.56276 6.09215 6.09308C5.56183 6.62454 5.23294 7.36086 5.23294 8.17227C5.23294 8.98367 5.56183 9.71886 6.09329 10.2503C6.62361 10.7818 7.35993 11.1107 8.17247 11.1107C8.97138 11.1107 9.69631 10.792 10.2266 10.2765L10.2517 10.2492C10.7831 9.71771 11.112 8.98252 11.112 8.17112C11.112 7.35855 10.7831 6.62339 10.2528 6.09193L10.2505 6.09308ZM5.65293 16.5914C6.56109 17.7044 7.45217 18.7969 8.17139 19.8803C8.89065 18.7969 9.78057 17.7055 10.6899 16.5914C12.8772 13.9113 15.177 11.0924 15.177 8.17236C15.177 6.2377 14.3929 4.48519 13.1263 3.21729C11.8585 1.95065 10.106 1.16654 8.17122 1.16654C6.23645 1.16654 4.48406 1.95065 3.21732 3.21843C1.94954 4.48621 1.16544 6.23756 1.16544 8.17233C1.16544 11.0924 3.4654 13.9102 5.65261 16.5914L5.65293 16.5914Z" fill="#121131" fill-opacity="0.6"/>
</svg>
