<svg width="29" height="24" viewBox="0 0 29 24" fill="none" xmlns="http://www.w3.org/2000/svg">
<g opacity="0.6">
<path d="M25.5537 6.48546C26.1751 6.48546 26.6411 6.99031 26.6411 7.57284V13.9418C26.6411 15.2621 26.1363 16.5437 25.2042 17.4757L22.3693 19.6893V22.6019H17.1266V17.1651C17.1266 16.3884 17.4373 15.6117 17.9809 15.068L21.0877 11.9612C21.2819 11.767 21.5537 11.6505 21.8644 11.6505C22.4858 11.6505 22.9518 12.1554 22.9518 12.7379C22.9518 13.0486 22.8353 13.3204 22.6411 13.5146L21.1266 15.0291C21.1266 15.3398 21.3984 15.6117 21.7091 15.6117C21.8644 15.6117 21.9809 15.534 22.0974 15.4563L24.2334 13.6699C24.544 13.3204 24.4275 12.8544 24.4275 12.3884V7.65051C24.4275 7.06798 24.8547 6.56313 25.4372 6.48546H25.5537ZM25.5537 5.0874H25.3207C24.0392 5.24274 23.0295 6.33012 23.0683 7.61167V10.4855C22.0974 9.9806 20.8936 10.1748 20.1169 10.9515L17.0101 14.0583C16.1945 14.8738 15.7285 16 15.7285 17.1262V22.5631V23.9612H17.1266H22.3693H23.7673V20.3495L26.0586 18.5631L26.1363 18.5243L26.2139 18.4466C27.4178 17.2427 28.078 15.6117 28.078 13.9418V7.57284C28.0392 6.21361 26.9518 5.0874 25.5537 5.0874Z" fill="black"/>
<path d="M21.0868 16.5048C20.9315 16.5048 20.7373 16.4271 20.6208 16.3106C20.349 16.0388 20.3101 15.6116 20.582 15.3398L23.1063 12.6213C23.3781 12.3495 23.8053 12.3106 24.0771 12.5825C24.349 12.8543 24.3878 13.2815 24.116 13.5533L21.5917 16.2718C21.4752 16.4271 21.281 16.5048 21.0868 16.5048Z" fill="black"/>
<path d="M2.48543 6.48546H2.60194C3.18446 6.56313 3.61164 7.06798 3.61164 7.65051V12.3495C3.61164 12.8155 3.49514 13.2816 3.80582 13.6311L5.94174 15.4175C6.05824 15.534 6.17475 15.5728 6.33009 15.5728C6.64077 15.5728 6.91261 15.3398 6.91261 15.0291L5.39805 13.5146C4.97087 13.0874 4.97087 12.3884 5.39805 11.9612C5.82523 11.534 6.52426 11.534 6.95144 11.9612L10.0582 15.068C10.6019 15.6117 10.9126 16.3884 10.9126 17.1651V22.6019H5.66989V19.6893L2.83495 17.4757C1.90291 16.5437 1.35922 15.2621 1.35922 13.9418V7.57284C1.39806 6.99031 1.90291 6.48546 2.48543 6.48546ZM2.48543 5.0874C1.12621 5.0874 0 6.21361 0 7.57284V13.9418C0 15.6505 0.660194 17.2427 1.86407 18.4466L1.94174 18.5243L2.01941 18.5631L4.31067 20.3495V24H5.70873H10.9126H12.3107V22.6019V17.1651C12.3107 16 11.8446 14.9126 11.0291 14.0971L7.92232 10.9903C7.4563 10.5243 6.83494 10.2524 6.17475 10.2524C5.7864 10.2524 5.35921 10.3301 5.0097 10.5243V7.65051C5.0097 6.33012 4.03883 5.24274 2.71844 5.12624L2.48543 5.0874Z" fill="black"/>
<path d="M6.95193 16.5046C6.75775 16.5046 6.56358 16.4269 6.44707 16.2716L3.92281 13.5532C3.65096 13.2813 3.6898 12.8153 3.96164 12.5823C4.23349 12.3493 4.6995 12.3493 4.93251 12.6211L7.45678 15.3396C7.72863 15.6114 7.68979 16.0774 7.41795 16.3104C7.26261 16.4658 7.10727 16.5046 6.95193 16.5046Z" fill="black"/>
<path d="M14.0198 12.3883H13.981C13.6703 12.3883 13.3596 12.2718 13.1266 12.0388L8.31108 7.22329C7.49554 6.40776 7.06836 5.35921 7.06836 4.233C7.06836 1.90291 8.97127 0 11.3014 0C11.3014 0 11.3014 0 11.3402 0C12.3111 0 13.2819 0.349514 14.0198 0.970872C15.6897 -0.388349 18.1751 -0.310679 19.7285 1.24272C20.5052 2.01941 20.9713 3.06796 20.9713 4.15533C21.0878 5.24271 20.6606 6.29125 19.6897 7.22329L14.8742 12C14.6412 12.233 14.3305 12.3883 14.0198 12.3883ZM11.3014 1.39806C9.70913 1.39806 8.46642 2.67961 8.46642 4.233C8.46642 4.97087 8.77709 5.70873 9.28195 6.21358L13.981 10.9126L18.68 6.21358C19.146 5.74756 19.4179 5.32038 19.5344 4.85436V4.19417C19.5344 3.4563 19.2625 2.71844 18.7188 2.21359C17.5926 1.12621 15.845 1.12621 14.7188 2.17475L14.0975 2.95145L13.3596 2.21359C12.7771 1.70874 12.0781 1.39806 11.3014 1.39806Z" fill="black"/>
</g>
</svg>
