<svg width="24" height="24" viewBox="0 0 24 24" fill="none" xmlns="http://www.w3.org/2000/svg">
<path d="M23.2946 22.5941H21.1855V12.5361C21.9829 12.8163 22.9072 12.6 23.4895 11.922C24.2504 11.034 24.1446 9.70419 23.2611 8.94747L13.3706 0.510156C12.5765 -0.170201 11.422 -0.170201 10.6266 0.511048L0.738277 8.94629C-0.151238 9.70864 -0.248092 11.0388 0.508322 11.9214C1.07667 12.584 1.99114 12.8276 2.81292 12.5367V22.5941H0.703813C0.315505 22.5941 0.000876719 22.9091 0.000876719 23.2971C0.000876719 23.6851 0.315802 24 0.703813 24C1.59986 24 22.4767 24 23.2946 24C23.6829 24 23.9976 23.6851 23.9976 23.2971C23.9976 22.9091 23.6829 22.5941 23.2946 22.5941ZM2.5687 11.0812C2.26537 11.3412 1.82299 11.2943 1.5758 11.0061C1.32356 10.7116 1.35654 10.2681 1.65215 10.015L11.5405 1.57942C11.8067 1.35124 12.1917 1.35124 12.4571 1.57852L22.3475 10.0158C22.6369 10.2639 22.6787 10.7072 22.4224 11.0064C22.1704 11.2996 21.7251 11.3338 21.43 11.0818C21.1609 10.8522 13.1136 3.99038 12.4553 3.42915C12.1923 3.20514 11.8058 3.20514 11.5429 3.42915C10.8702 4.00256 2.92493 10.7776 2.5687 11.0812ZM16.9204 22.5941H14.1083V15.5169H16.9204V22.5941ZM19.7794 22.5941H18.3265V14.8137C18.3265 14.4254 18.0119 14.1108 17.6236 14.1108H13.4054C13.0171 14.1108 12.7025 14.4254 12.7025 14.8137V22.5938H4.21909V11.5221L11.9992 4.88791L19.7794 11.5221V22.5941Z" fill="#121131" fill-opacity="0.6"/>
<path d="M10.593 14.1113H6.37481C5.9865 14.1113 5.67188 14.426 5.67188 14.8143V19.0325C5.67188 19.4208 5.9868 19.7354 6.37481 19.7354H10.593C10.9813 19.7354 11.296 19.4205 11.296 19.0325V14.8143C11.2963 14.426 10.9813 14.1113 10.593 14.1113ZM9.89009 18.3295H7.07805V15.5175H9.89009V18.3295Z" fill="#121131" fill-opacity="0.6"/>
</svg>
