<svg width="16" height="24" viewBox="0 0 16 24" fill="none" xmlns="http://www.w3.org/2000/svg">
<path d="M7.65473 0C3.43579 0 0 3.43579 0 7.65473C0 8.26105 0.0757802 8.86737 0.227359 9.47368C0.429464 10.4589 0.808424 11.0653 1.31369 11.9242C1.44 12.1263 1.56632 12.3284 1.69263 12.5558C1.84421 12.8337 2.02105 13.0863 2.17263 13.3389C2.85473 14.4505 3.25894 15.1074 3.25894 16.4211V19.5789C3.25894 20.3874 3.84 21.0442 4.5979 21.1958C4.92632 22.9137 5.93683 24 7.67999 24C9.42315 24 10.4337 22.9137 10.7621 21.1958C11.52 21.0695 12.101 20.3874 12.101 19.5789V16.4211C12.101 15.1074 12.5053 14.4505 13.1874 13.3389C13.339 13.0863 13.4905 12.8337 13.6674 12.5558C13.7937 12.3284 13.92 12.1011 14.0463 11.9242C14.5516 11.0653 14.9305 10.4589 15.1326 9.49894C15.2842 8.89262 15.36 8.26105 15.36 7.65473C15.3095 3.43579 11.8737 0 7.65473 0ZM10.7368 17.2042H4.57263V16.4211C4.57263 16.2695 4.57263 16.1179 4.54737 15.9916H10.7368C10.7368 16.1432 10.7116 16.2695 10.7116 16.4211V17.2042H10.7368ZM10.4589 19.8821H4.85053C4.69895 19.8821 4.57263 19.7558 4.57263 19.6042V18.5684H10.7368V19.6042C10.7368 19.7558 10.6105 19.8821 10.4589 19.8821ZM7.65473 22.6358C7.30105 22.6358 6.31578 22.6358 5.9621 21.2211H9.37263C8.99368 22.6358 8.00842 22.6358 7.65473 22.6358ZM13.7684 9.1958C13.6168 9.95369 13.3137 10.4337 12.8589 11.2421C12.7326 11.4442 12.6063 11.6463 12.48 11.8989C12.3284 12.1768 12.1768 12.4295 12.0253 12.6568C11.621 13.3389 11.2421 13.9453 11.0147 14.6526H4.31999C4.09263 13.9453 3.73894 13.3389 3.30947 12.6568C3.15789 12.4295 3.00631 12.1768 2.85473 11.8989C2.72842 11.6463 2.57684 11.4442 2.47579 11.2421C1.99579 10.4589 1.71789 9.95369 1.54105 9.1958C1.41473 8.69053 1.33894 8.18527 1.33894 7.68001C1.33894 4.19369 4.16842 1.36422 7.65473 1.36422C11.141 1.36422 13.9705 4.19369 13.9705 7.68001C13.9705 8.16001 13.8947 8.66527 13.7684 9.1958Z" fill="#121131" fill-opacity="0.6"/>
<path d="M6.94667 3.05722C5.05194 3.33511 3.51088 4.85091 3.23298 6.74565C3.18246 7.1246 3.43509 7.45302 3.81403 7.50354C3.8393 7.50354 3.88983 7.50354 3.91509 7.50354C4.24351 7.50354 4.5214 7.25092 4.57193 6.92249C4.77403 5.60881 5.80983 4.54775 7.12352 4.37091C7.50246 4.32038 7.75509 3.9667 7.70457 3.61301C7.6793 3.25933 7.32562 3.00669 6.94667 3.05722Z" fill="#121131" fill-opacity="0.6"/>
</svg>
