<svg width="39" height="24" viewBox="0 0 39 24" fill="none" xmlns="http://www.w3.org/2000/svg">
<path d="M36.9538 0.642651H32.4156C31.9225 0.64096 31.4475 0.828127 31.0881 1.16572C30.7286 1.5033 30.5121 1.96569 30.483 2.45792C25.6161 2.09681 23.4105 1.10814 21.9304 0.442323C20.9853 0.0227599 19.9357 -0.10213 18.9185 0.0839567C17.9013 0.270043 16.9639 0.758461 16.2285 1.48546L15.8007 1.91399C13.3 1.69915 10.7862 1.68592 8.28348 1.87444C8.14534 1.50967 7.89869 1.19602 7.57678 0.975762C7.25486 0.75551 6.87316 0.639249 6.48312 0.642651H1.94494C1.42911 0.642651 0.934404 0.847563 0.569658 1.21231C0.204912 1.57706 0 2.07176 0 2.58759L0 14.2572C0 14.773 0.204912 15.2677 0.569658 15.6325C0.934404 15.9972 1.42911 16.2021 1.94494 16.2021H5.42183C5.76448 16.2033 6.10126 16.1132 6.39752 15.941C6.69378 15.7688 6.93882 15.5208 7.10744 15.2225C8.26878 16.2359 9.34372 17.3443 10.3211 18.5361C11.431 19.8003 12.8126 21.3737 14.6732 23.237C14.9961 23.5611 15.3989 23.794 15.8409 23.9121C16.2828 24.0302 16.7482 24.0293 17.1897 23.9095C17.6311 23.7896 18.0331 23.5552 18.3547 23.2298C18.6763 22.9045 18.9061 22.4999 19.0208 22.057C19.5238 22.444 20.1492 22.6372 20.7828 22.6015C21.4164 22.5658 22.0161 22.3035 22.4724 21.8625C22.835 21.4948 23.0799 21.0274 23.1758 20.5199C23.6615 20.7477 24.2049 20.8225 24.734 20.7341C25.2631 20.6458 25.7528 20.3985 26.138 20.0252C26.5727 19.5913 26.8384 19.0167 26.8874 18.4044C27.2042 18.4808 27.5321 18.499 27.8554 18.4583C28.2444 18.4111 28.6172 18.2746 28.9447 18.0594C29.2722 17.8443 29.5455 17.5563 29.7432 17.218C29.9145 16.914 30.0226 16.5786 30.0612 16.2318C30.0997 15.885 30.0679 15.534 29.9676 15.1998C30.601 14.864 31.1151 14.5515 31.5235 14.2825L31.5371 14.4335C31.5793 14.9181 31.8022 15.369 32.1616 15.6966C32.521 16.0243 32.9905 16.2048 33.4769 16.2021H36.9538C37.4696 16.2021 37.9643 15.9972 38.329 15.6325C38.6938 15.2677 38.8987 14.773 38.8987 14.2572V2.58759C38.8987 2.07176 38.6938 1.57706 38.329 1.21231C37.9643 0.847563 37.4696 0.642651 36.9538 0.642651ZM5.42183 14.9055H1.94494C1.77299 14.9055 1.60809 14.8372 1.48651 14.7156C1.36493 14.594 1.29662 14.4291 1.29662 14.2572V2.58759C1.29662 2.41564 1.36493 2.25074 1.48651 2.12916C1.60809 2.00758 1.77299 1.93927 1.94494 1.93927H6.48312C6.57339 1.93891 6.66275 1.9574 6.74547 1.99357C6.82819 2.02973 6.90244 2.08278 6.96347 2.1493C7.0245 2.21583 7.07097 2.29436 7.09989 2.37988C7.12881 2.4654 7.13955 2.55602 7.13143 2.64593L6.07079 14.3155C6.05618 14.4773 5.98138 14.6277 5.86121 14.7369C5.74104 14.8462 5.58424 14.9063 5.42183 14.9055ZM28.6204 16.5684C28.522 16.7339 28.3867 16.8744 28.2251 16.9789C28.0635 17.0835 27.88 17.1494 27.6887 17.1714C27.4908 17.1991 27.2891 17.1811 27.0991 17.119C26.9091 17.0569 26.7358 16.9522 26.5924 16.8128L22.0095 12.2254C21.8873 12.1073 21.7235 12.0419 21.5535 12.0434C21.3835 12.0449 21.2209 12.1131 21.1007 12.2333C20.9805 12.3535 20.9123 12.5161 20.9109 12.6861C20.9094 12.8561 20.9747 13.0198 21.0928 13.1421L25.2193 17.2718V17.2757L25.2232 17.279C25.4643 17.5223 25.5993 17.8512 25.5986 18.1938C25.598 18.5363 25.4619 18.8647 25.22 19.1072C24.9736 19.3461 24.6439 19.4797 24.3007 19.4797C23.9575 19.4797 23.6278 19.3461 23.3814 19.1072L18.801 14.5198C18.7408 14.4595 18.6694 14.4117 18.5907 14.379C18.512 14.3463 18.4277 14.3295 18.3425 14.3294C18.2573 14.3294 18.1729 14.3461 18.0942 14.3786C18.0155 14.4112 17.944 14.4589 17.8837 14.5191C17.8234 14.5793 17.7756 14.6508 17.7429 14.7295C17.7103 14.8081 17.6934 14.8925 17.6934 14.9777C17.6933 15.0628 17.71 15.1472 17.7426 15.2259C17.7751 15.3047 17.8228 15.3762 17.883 15.4365L21.5486 19.1072C21.6691 19.2276 21.7648 19.3706 21.83 19.528C21.8953 19.6855 21.9289 19.8542 21.9289 20.0246C21.9289 20.195 21.8953 20.3637 21.83 20.5211C21.7648 20.6785 21.6691 20.8215 21.5486 20.9419C21.3025 21.1793 20.974 21.3119 20.6322 21.3119C20.2904 21.3119 19.9618 21.1793 19.7158 20.9419L15.5867 16.8057C15.5269 16.7438 15.4554 16.6944 15.3763 16.6604C15.2972 16.6264 15.2121 16.6086 15.126 16.6078C15.0399 16.6071 14.9546 16.6235 14.8749 16.6561C14.7952 16.6887 14.7228 16.7368 14.662 16.7977C14.6011 16.8585 14.5529 16.9309 14.5204 17.0106C14.4878 17.0903 14.4714 17.1756 14.4721 17.2617C14.4728 17.3478 14.4907 17.4329 14.5247 17.512C14.5587 17.5911 14.6081 17.6626 14.67 17.7224L17.4208 20.4764L17.4299 20.4829C17.6702 20.727 17.8045 21.0561 17.8037 21.3986C17.8028 21.7412 17.6669 22.0696 17.4253 22.3125C17.1767 22.5475 16.8475 22.6784 16.5054 22.6784C16.1632 22.6784 15.8341 22.5475 15.5854 22.3125C13.7539 20.479 12.3879 18.9231 11.2903 17.6725C10.1484 16.244 8.84602 14.9514 7.40891 13.8202L8.38267 3.17107C10.4461 3.00346 12.5192 2.99154 14.5844 3.13541L12.1513 5.56982C11.7423 5.97858 11.4637 6.49944 11.3507 7.06654C11.2377 7.63364 11.2954 8.22151 11.5164 8.75583C11.7375 9.29014 12.1121 9.74691 12.5927 10.0684C13.0734 10.3898 13.6386 10.5616 14.2168 10.5618H14.222C14.6046 10.5624 14.9835 10.4865 15.3364 10.3387C15.6894 10.1908 16.0092 9.97398 16.2772 9.70086L19.2594 6.71863C19.3196 6.65835 19.3911 6.61053 19.4698 6.57791C19.5485 6.54528 19.6329 6.52849 19.7181 6.52849C19.8033 6.52849 19.8876 6.54528 19.9663 6.57791C20.045 6.61053 20.1165 6.65835 20.1768 6.71863L28.3215 14.8718C28.4218 14.9723 28.5078 15.0862 28.5769 15.2102C28.7015 15.4133 28.771 15.6454 28.7786 15.8836C28.7863 16.1217 28.7317 16.3578 28.6204 16.5684ZM29.3335 14.0672C29.3004 14.0303 29.2687 13.9894 29.2356 13.9544L21.0941 5.79738C20.7288 5.43331 20.2341 5.22889 19.7184 5.22889C19.2027 5.22889 18.708 5.43331 18.3427 5.79738L15.3572 8.7835C15.2091 8.93492 15.0322 9.05519 14.8369 9.13724C14.6416 9.2193 14.4319 9.26148 14.2201 9.26131H14.2168C14.0037 9.26155 13.7927 9.21943 13.5961 9.13741C13.3994 9.05538 13.221 8.93508 13.0713 8.7835C12.7676 8.479 12.597 8.06664 12.5967 7.63664C12.5952 7.42342 12.6362 7.21203 12.7172 7.0148C12.7983 6.81757 12.9177 6.63843 13.0687 6.48783L17.1459 2.40347C17.6947 1.86112 18.3943 1.49678 19.1533 1.358C19.9123 1.21922 20.6955 1.31244 21.4008 1.62549C22.8848 2.2939 25.3425 3.39409 30.5692 3.76492L31.3906 12.8017C30.7386 13.2751 30.0516 13.6981 29.3355 14.0672H29.3335ZM37.6021 14.2572C37.6021 14.4291 37.5338 14.594 37.4122 14.7156C37.2906 14.8372 37.1257 14.9055 36.9538 14.9055H33.4769C33.3146 14.9062 33.1579 14.8459 33.0379 14.7367C32.9179 14.6275 32.8432 14.4772 32.8286 14.3155L31.7679 2.64593C31.7598 2.55608 31.7705 2.46551 31.7994 2.38004C31.8283 2.29456 31.8747 2.21606 31.9357 2.14954C31.9966 2.08303 32.0708 2.02997 32.1534 1.99376C32.2361 1.95756 32.3254 1.939 32.4156 1.93927H36.9538C37.1257 1.93927 37.2906 2.00758 37.4122 2.12916C37.5338 2.25074 37.6021 2.41564 37.6021 2.58759V14.2572Z" fill="#121131" fill-opacity="0.6"/>
</svg>
