<svg width="28" height="24" viewBox="0 0 28 24" fill="none" xmlns="http://www.w3.org/2000/svg">
<path fill-rule="evenodd" clip-rule="evenodd" d="M27.2962 8.51091C27.2962 11.9335 23.1378 13.6599 20.7151 11.237C20.0173 10.5392 19.5861 9.57597 19.5861 8.51091C19.5861 8.41021 19.6181 8.31662 19.6726 8.23961L22.632 3.11463H15.1847V23.0641L19.593 23.0629C20.2103 23.0629 20.2103 24 19.593 24H7.70319C7.08594 24 7.08594 23.0629 7.70319 23.0629H12.1103L12.1115 3.11345H4.66421L7.62364 8.23843C7.67814 8.31543 7.71013 8.40903 7.71013 8.50973C7.71013 11.9323 3.55173 13.6587 1.12905 11.2358C0.431247 10.5392 0 9.57479 0 8.51091C0 8.41021 0.0319879 8.31662 0.086486 8.23961L3.04592 3.11463H0.469146C-0.148108 3.11463 -0.148108 2.17753 0.469146 2.17753H12.1115V0.469158C12.1115 0.210889 12.3212 0 12.5807 0H14.7179C14.9762 0 15.1871 0.209697 15.1871 0.469158V2.17753H26.8294C27.4467 2.17753 27.4467 3.11463 26.8294 3.11463H24.2538L27.218 8.24931C27.2666 8.32395 27.2962 8.41376 27.2962 8.51091ZM13.0486 23.0627H14.2475V0.936871H13.0486V23.0627ZM6.43203 8.04172L3.85525 3.57882L1.27848 8.04172H6.43203ZM5.91786 10.5735C6.3408 10.1506 6.63462 9.59726 6.73532 8.97886H0.975249C1.35081 11.3092 4.23188 12.2592 5.91786 10.5735ZM20.8643 8.04172H26.0177L23.441 3.57882L20.8643 8.04172ZM25.5049 10.5735C25.9278 10.1506 26.2216 9.59726 26.3223 8.97886H20.5611C20.9366 11.308 23.8177 12.2604 25.5049 10.5735Z" fill="#121131" fill-opacity="0.6"/>
</svg>
