<svg width="22" height="24" viewBox="0 0 22 24" fill="none" xmlns="http://www.w3.org/2000/svg">
<path d="M6.18434 7.80944C8.33726 7.80944 10.0887 6.05731 10.0887 3.9044C10.0887 1.75148 8.33693 0 6.18434 0C4.0311 0 2.2793 1.7518 2.2793 3.9044C2.2793 6.05764 4.0311 7.80944 6.18434 7.80944ZM6.18434 0.967313C7.80362 0.967313 9.12142 2.28512 9.12142 3.9044C9.12142 5.52432 7.80362 6.84213 6.18434 6.84213C4.56441 6.84213 3.24661 5.52432 3.24661 3.9044C3.24661 2.28512 4.56409 0.967313 6.18434 0.967313Z" fill="#121131" fill-opacity="0.6"/>
<path d="M21.224 10.2591C20.6481 8.32927 18.8692 8.38602 18.7847 8.39021H14.0529C12.8199 8.39021 12.1148 9.29755 11.8558 9.71414C10.9172 8.33249 9.35405 8.38247 9.28409 8.3857H3.08748C1.14318 8.3857 0.242935 10.201 0.198116 10.2942C-0.286186 11.3966 0.258734 13.1978 0.346437 13.4712L2.42777 21.6966C2.9872 23.9353 5.78112 23.9997 6.09808 23.9997H6.11614C8.73562 23.9997 9.73034 22.1793 9.77129 22.1015L9.7987 22.05L11.9158 13.6459C11.961 13.4754 12.0006 13.3177 12.0374 13.1658L13.4384 18.7024C13.8869 20.4971 16.1024 20.549 16.3532 20.549H16.3668C18.4358 20.549 19.2274 19.0993 19.2603 19.0374L20.9083 12.5529C21.3204 10.9942 21.2817 10.4425 21.224 10.2591ZM10.9795 13.4038L8.89168 21.6904C8.74691 21.9223 7.95532 23.0324 6.10808 23.0324L6.09808 23.5161V23.0324C5.85883 23.0324 3.74783 22.9883 3.36574 21.4605L1.28022 13.2187L1.27119 13.1878C1.12899 12.7512 0.789144 11.3541 1.07644 10.6995C1.08288 10.686 1.74291 9.35301 3.08748 9.35301H9.29344L9.34825 9.35172C9.71293 9.35172 10.9321 9.46941 11.397 10.9813C11.4067 11.059 11.4499 11.6243 10.9795 13.4038ZM19.9719 12.3104L18.381 18.6253C18.2604 18.8124 17.6842 19.5814 16.359 19.5814L16.3529 20.065V19.5814C16.2836 19.5814 14.6517 19.5688 14.376 18.4661L12.7829 12.1692L12.7738 12.1379C12.6416 11.732 12.4314 10.7501 12.6194 10.3219C12.6242 10.3123 13.0966 9.35752 14.0529 9.35752H18.7944L18.8363 9.35656C19.0939 9.35656 19.9539 9.44007 20.2895 10.5102C20.296 10.5867 20.3111 11.0268 19.9719 12.3104Z" fill="#121131" fill-opacity="0.6"/>
<path d="M16.4196 8.17839C18.1279 8.17839 19.5173 6.78869 19.5173 5.08106C19.5173 3.37278 18.1276 1.9834 16.4196 1.9834C14.7117 1.9834 13.3223 3.3731 13.3223 5.08106C13.3223 6.78869 14.7117 8.17839 16.4196 8.17839ZM16.4196 2.95039C17.5946 2.95039 18.5499 3.90609 18.5499 5.08073C18.5499 6.25537 17.5942 7.21076 16.4196 7.21076C15.245 7.21076 14.2896 6.25505 14.2896 5.08073C14.2896 3.90609 15.2453 2.95039 16.4196 2.95039Z" fill="#121131" fill-opacity="0.6"/>
</svg>
