<svg width="35" height="24" viewBox="0 0 35 24" fill="none" xmlns="http://www.w3.org/2000/svg">
<path fill-rule="evenodd" clip-rule="evenodd" d="M2.09639 17.8856C1.64286 18.0623 1.25328 18.3719 0.978632 18.7738C0.703989 19.1757 0.557091 19.6511 0.55717 20.1379V21.5827C0.557132 21.9001 0.619633 22.2145 0.741102 22.5078C0.86257 22.8011 1.04063 23.0676 1.26511 23.2921C1.48958 23.5165 1.75608 23.6946 2.04938 23.8161C2.34269 23.9375 2.65704 24 2.9745 24H31.0605C31.378 24 31.6923 23.9376 31.9856 23.8161C32.2789 23.6946 32.5454 23.5166 32.7699 23.2921C32.9944 23.0676 33.1724 22.8011 33.2939 22.5078C33.4154 22.2145 33.4779 21.9001 33.4778 21.5827V20.1379C33.4779 19.6511 33.331 19.1757 33.0564 18.7738C32.7817 18.3719 32.3921 18.0623 31.9386 17.8856L34.025 4.32505C34.0512 4.15568 34.0256 3.98233 33.9516 3.82773C33.8776 3.67313 33.7586 3.54449 33.6103 3.45867C33.4619 3.37285 33.2911 3.33385 33.1202 3.34679C32.9493 3.35972 32.7863 3.42399 32.6525 3.53116L24.9639 9.68136L17.6888 0.328429C17.6093 0.226171 17.5075 0.143426 17.3912 0.0865073C17.2748 0.0295884 17.147 0 17.0175 0C16.888 0 16.7601 0.0295884 16.6438 0.0865073C16.5274 0.143426 16.4256 0.226171 16.3461 0.328429L9.07109 9.68136L1.38249 3.53116C1.24873 3.42399 1.08572 3.35972 0.91481 3.34678C0.743901 3.33385 0.57307 3.37284 0.424705 3.45866C0.27634 3.54448 0.157362 3.67312 0.0833621 3.82772C0.00936262 3.98232 -0.0162058 4.15567 0.0100073 4.32505L2.09639 17.8856ZM2.7303 19.4656C2.5922 19.5157 2.47287 19.6071 2.38852 19.7273C2.30418 19.8476 2.25892 19.9909 2.25889 20.1378V21.5826C2.25903 21.7724 2.33447 21.9543 2.46864 22.0885C2.60281 22.2227 2.78475 22.2981 2.97449 22.2982H31.0605C31.2502 22.2981 31.4322 22.2227 31.5663 22.0885C31.7005 21.9543 31.7759 21.7724 31.776 21.5826V20.1379C31.776 19.991 31.7308 19.8476 31.6465 19.7274C31.5621 19.6071 31.4428 19.5157 31.3047 19.4657C31.1975 19.5142 2.83749 19.5142 2.7303 19.4656ZM30.2428 17.7205H3.79219L2.0232 6.22336L8.68136 11.5499C8.7694 11.6203 8.87054 11.6725 8.97891 11.7034C9.08728 11.7344 9.20072 11.7435 9.31265 11.7303C9.42458 11.7171 9.53277 11.6818 9.63095 11.6264C9.72912 11.571 9.81532 11.4967 9.88454 11.4078L17.0175 2.23613L24.1504 11.4078C24.2196 11.4967 24.3058 11.5711 24.404 11.6264C24.5022 11.6818 24.6104 11.7171 24.7223 11.7303C24.8342 11.7436 24.9477 11.7344 25.056 11.7034C25.1644 11.6725 25.2656 11.6203 25.3536 11.5499L32.0118 6.22337L30.2428 17.7205Z" fill="#121131" fill-opacity="0.6"/>
</svg>
