<svg width="18" height="24" viewBox="0 0 18 24" fill="none" xmlns="http://www.w3.org/2000/svg">
<path d="M8.80349 6.64165C8.52762 6.64165 8.30053 6.42178 8.29315 6.14448C8.28576 5.86306 8.50746 5.62869 8.78888 5.62064C8.81462 5.61987 8.84046 5.61938 8.86625 5.61894C8.88598 5.6186 8.90576 5.61833 8.9256 5.61816C8.92665 5.61816 8.9277 5.61816 8.92874 5.61816C9.20896 5.61816 9.4371 5.84421 9.4393 6.12481C9.44145 6.40646 9.21518 6.63669 8.93354 6.63939L8.81599 6.64154C8.81181 6.6416 8.80762 6.64165 8.80349 6.64165Z" fill="#121131"/>
<path d="M9.54691 6.66415C9.53219 6.66415 9.51743 6.66349 9.50255 6.66222C9.32527 6.64685 9.14772 6.63891 8.97458 6.63858C8.69271 6.63808 8.46462 6.40928 8.46484 6.12747C8.46512 5.84566 8.69364 5.6173 8.97551 5.6173L8.98615 5.61719C9.18249 5.61719 9.38462 5.62573 9.58697 5.64248C9.70809 5.65257 9.8215 5.70552 9.90697 5.79154C9.90741 5.79198 9.90785 5.79237 9.90818 5.7927C10.0597 5.94457 10.1002 6.17492 10.0095 6.36933C9.9251 6.5503 9.74386 6.66415 9.54691 6.66415Z" fill="#121131"/>
<path d="M8.40695 6.66244C8.20978 6.66244 8.02854 6.54842 7.94423 6.3674C7.85385 6.17331 7.89414 5.94347 8.04513 5.7917C8.23822 5.59756 8.4485 5.41461 8.67003 5.24803C8.85177 5.11136 9.10212 5.11131 9.28386 5.24803C9.4974 5.40866 9.70063 5.58456 9.88837 5.77131C9.99236 5.86477 10.0577 6.00034 10.0577 6.15116C10.0577 6.43154 9.83172 6.65918 9.55201 6.66177C9.53608 6.66199 9.51988 6.66139 9.50379 6.66007C9.32943 6.64557 9.15579 6.63824 8.98755 6.63824L8.97692 6.6383L8.96446 6.63819L8.96005 6.63835C8.95058 6.63857 8.94104 6.6388 8.93145 6.63885C8.8958 6.63918 8.85734 6.63979 8.81904 6.64089C8.69417 6.64386 8.57084 6.65048 8.44983 6.66062C8.4355 6.66183 8.42117 6.66244 8.40695 6.66244Z" fill="#121131"/>
<path d="M8.97698 6.16688C8.86897 6.16688 8.76096 6.13271 8.67004 6.06432C8.13154 5.65929 7.52306 5.37748 6.86151 5.22682C6.77323 5.20671 6.68285 5.18896 6.58509 5.1726C6.4098 5.14322 6.26239 5.02475 6.19593 4.85992C5.51394 3.16827 4.12912 1.87703 2.39664 1.31726C2.1858 1.24915 2.04297 1.05291 2.04297 0.831387C2.04297 0.60986 2.1858 0.413572 2.39659 0.345461C3.10591 0.116219 3.84593 0 4.59615 0C6.07134 0 7.48757 0.445809 8.69175 1.28915C9.86826 2.11316 10.7608 3.25501 11.2729 4.59134C11.3248 4.72668 11.3167 4.87767 11.2507 5.00667C11.1847 5.13567 11.0669 5.23057 10.9269 5.26765C10.3288 5.42608 9.77607 5.69406 9.28397 6.06427C9.19305 6.13271 9.08499 6.16688 8.97698 6.16688ZM7.03261 4.21865C7.05124 4.22268 7.06975 4.22681 7.08827 4.23105C7.76789 4.38584 8.40161 4.65487 8.97703 5.0324C9.33076 4.80046 9.70719 4.60919 10.103 4.46024C9.0846 2.38323 6.93551 1.02134 4.59615 1.02134C4.46946 1.02134 4.3431 1.0252 4.21724 1.03291C5.44803 1.77761 6.43234 2.88233 7.03261 4.21865Z" fill="#121131"/>
<path d="M17.4207 10.8652C17.2434 10.8652 17.0752 10.7726 16.9819 10.6155C16.2071 9.31255 14.8437 8.44766 13.3346 8.30191C13.2272 8.29155 13.1259 8.24746 13.0452 8.17599C12.4521 7.65099 11.7744 7.25131 11.0308 6.98801C10.5392 6.81398 10.0248 6.70361 9.50216 6.65996C9.38142 6.64988 9.26813 6.5972 9.18266 6.51129C9.02379 6.35164 8.85086 6.20126 8.66857 6.06415C8.54028 5.96772 8.46484 5.81656 8.46484 5.65609C8.46484 5.49562 8.54028 5.34447 8.66852 5.24798C9.26653 4.7982 9.93778 4.47263 10.6639 4.28031C10.7311 4.26246 10.7985 4.24582 10.8641 4.23088C11.2894 4.13406 11.7242 4.08496 12.1566 4.08496C13.4493 4.08496 14.7234 4.52807 15.7442 5.33256C16.7806 6.14929 17.5129 7.30895 17.8064 8.59777C17.9415 9.1911 17.9829 9.79738 17.9294 10.3997C17.9098 10.6204 17.7501 10.8032 17.5341 10.8524C17.4964 10.861 17.4584 10.8652 17.4207 10.8652ZM13.5979 7.30366C14.8029 7.45542 15.9237 7.98521 16.8037 8.79389C16.2944 6.62089 14.3879 5.10619 12.1566 5.10619C11.8004 5.10619 11.4419 5.14669 11.091 5.22665C11.0355 5.23927 10.9804 5.25299 10.9257 5.26748C10.5633 5.36348 10.2177 5.49959 9.89215 5.67428C10.3971 5.73831 10.8935 5.85596 11.3717 6.0253C12.188 6.31428 12.9362 6.74405 13.5979 7.30366Z" fill="#121131"/>
<path d="M8.405 6.66427C8.20794 6.66427 8.0267 6.55031 7.94233 6.36928C7.85168 6.17476 7.89235 5.9443 8.04411 5.79249C8.04433 5.79232 8.04455 5.7921 8.04477 5.79183C8.12997 5.70625 8.2431 5.6534 8.36395 5.64326C8.50513 5.63141 8.64901 5.6237 8.79163 5.62028C9.07333 5.61323 9.30698 5.83597 9.31425 6.11739C9.32164 6.39887 9.09972 6.63319 8.8183 6.64118C8.69376 6.6447 8.56966 6.65181 8.44947 6.66223C8.43454 6.66361 8.41971 6.66427 8.405 6.66427Z" fill="#121131"/>
<path d="M8.92859 6.63913C8.64805 6.63913 8.41991 6.4127 8.41798 6.13193C8.41611 5.85045 8.64232 5.62049 8.9238 5.61785L8.93328 5.61768C8.94402 5.61741 8.95471 5.61719 8.96552 5.61719L8.97808 5.6173C9.25984 5.6173 9.48737 5.84544 9.48776 6.12714C9.48825 6.40884 9.25945 6.6377 8.9778 6.63858L8.94303 6.63902C8.94209 6.63902 8.9411 6.63902 8.94017 6.63902L8.93074 6.63908C8.93003 6.63913 8.92925 6.63913 8.92859 6.63913Z" fill="#121131"/>
<path d="M0.531396 10.8658C0.493759 10.8658 0.455736 10.8616 0.417933 10.8531C0.201972 10.8039 0.0423292 10.621 0.0226563 10.4004C-0.0308518 9.79797 0.0105331 9.19174 0.145598 8.59842C0.439094 7.30954 1.1714 6.14994 2.20767 5.33332C3.2284 4.52894 4.50251 4.08594 5.7953 4.08594C6.11459 4.08594 6.43696 4.11283 6.75343 4.16584C6.87086 4.18551 6.98025 4.20701 7.08782 4.23153C8.16101 4.47598 9.13689 5.01618 9.90991 5.7939C10.0611 5.94594 10.1012 6.17617 10.0103 6.37025C9.91945 6.56439 9.71704 6.68116 9.50345 6.66259C9.32254 6.64683 9.14168 6.63884 8.96595 6.63884C8.38215 6.63884 7.80425 6.72106 7.24829 6.88324C6.38962 7.13358 5.57995 7.58088 4.90683 8.17669C4.8261 8.24816 4.72481 8.29225 4.61746 8.30261C3.10833 8.44836 1.74483 9.31325 0.970152 10.6162C0.876802 10.7732 0.708618 10.8658 0.531396 10.8658ZM5.7953 5.10711C3.564 5.10711 1.65766 6.6217 1.14842 8.79448C2.02847 7.98575 3.14916 7.4559 4.35433 7.30425C5.11408 6.66281 6.01237 6.17964 6.96234 5.90268C7.32125 5.79803 7.68787 5.72187 8.05901 5.6747C7.68412 5.47384 7.28174 5.32302 6.86106 5.22719C6.77283 5.20707 6.6824 5.18933 6.58464 5.17296C6.32383 5.12932 6.05821 5.10711 5.7953 5.10711Z" fill="#121131"/>
<path d="M10.7232 24H5.10633C4.9549 24 4.81129 23.9328 4.71431 23.8165C4.61732 23.7003 4.57687 23.547 4.60393 23.398L6.98677 10.2922C7.02325 10.0916 7.17568 9.93183 7.37439 9.88598C7.69814 9.81131 8.02916 9.7588 8.35809 9.73009C8.57091 9.71152 8.78257 9.70215 8.98724 9.70215C9.44164 9.70215 9.90024 9.74623 10.3505 9.83325C10.5839 9.87838 10.7554 10.0787 10.7639 10.3164L11.2336 23.4711C11.2386 23.6096 11.187 23.7441 11.0908 23.8439C10.9945 23.9436 10.8619 24 10.7232 24ZM5.71817 22.9787H10.1941L9.75817 10.7724C9.5016 10.7399 9.24348 10.7235 8.98718 10.7235C8.81205 10.7235 8.63026 10.7316 8.44687 10.7476C8.2746 10.7627 8.10157 10.7853 7.92969 10.8153L5.71817 22.9787Z" fill="#121131"/>
<path d="M15.3043 15.3192C15.0827 15.3192 14.8865 15.1763 14.8184 14.9656C14.1322 12.8415 12.3458 11.2592 10.1562 10.836C9.76971 10.7613 9.37625 10.7235 8.98676 10.7235C8.81163 10.7235 8.62984 10.7316 8.44644 10.7476C8.16479 10.7722 7.88122 10.8172 7.60359 10.8813C7.41932 10.9237 7.23813 10.9743 7.06515 11.0314C5.21551 11.6419 3.75377 13.1127 3.15509 14.9657C3.08698 15.1764 2.89075 15.3193 2.66917 15.3193C2.44764 15.3193 2.25135 15.1764 2.1833 14.9657C1.95411 14.2562 1.83789 13.5162 1.83789 12.7661C1.83789 10.9659 2.50941 9.24593 3.72864 7.92299C4.94059 6.60805 6.58562 5.79898 8.36081 5.6448C8.57098 5.6265 8.78165 5.61719 8.98681 5.61719C10.7336 5.61719 12.4155 6.25444 13.7228 7.41155C15.2562 8.76876 16.1357 10.7204 16.1357 12.7661C16.1357 13.516 16.0195 14.2561 15.7902 14.9656C15.7221 15.1763 15.5258 15.3192 15.3043 15.3192ZM8.98676 6.63841C8.81108 6.63841 8.63017 6.64646 8.4492 6.66217C5.31454 6.93439 2.85912 9.61558 2.85912 12.7661C2.85912 12.8942 2.86309 13.022 2.87097 13.1493C3.74578 11.7083 5.11654 10.5991 6.74504 10.0616C6.94772 9.99466 7.15933 9.93564 7.37402 9.8861C7.69777 9.81143 8.02874 9.75891 8.35767 9.7302C8.57049 9.71163 8.78215 9.70226 8.98681 9.70226C9.44122 9.70226 9.89981 9.74635 10.35 9.83336C12.355 10.2208 14.0703 11.4411 15.1028 13.1462C15.1105 13.0199 15.1144 12.8932 15.1144 12.7661C15.1144 11.0127 14.3604 9.33983 13.0459 8.17632C11.9255 7.18452 10.4839 6.63841 8.98676 6.63841Z" fill="#121131"/>
<path d="M15.8307 23.9999H1.02239C0.740354 23.9999 0.511719 23.7712 0.511719 23.4892C0.511719 23.2072 0.740354 22.9785 1.02239 22.9785H15.8308C16.1128 22.9785 16.3415 23.2072 16.3415 23.4892C16.3415 23.7712 16.1128 23.9999 15.8307 23.9999Z" fill="#121131"/>
<path d="M2.55236 14.8083C2.52982 14.8083 2.50712 14.8068 2.48419 14.8037C2.2047 14.7665 2.0083 14.5096 2.04555 14.2302C2.31386 12.2178 3.34109 10.4478 5.01621 9.11123C6.27131 8.10984 7.44402 7.70343 7.49334 7.68662C7.76028 7.59564 8.05041 7.73826 8.14139 8.00519C8.23232 8.2718 8.09009 8.56165 7.82371 8.65297C7.81307 8.6566 6.74467 9.03099 5.62607 9.93121C4.15656 11.1138 3.29244 12.6056 3.0579 14.365C3.02363 14.6217 2.80436 14.8083 2.55236 14.8083Z" fill="#121131"/>
<path d="M10.2124 20.9364H8.68054C8.3985 20.9364 8.16992 20.7077 8.16992 20.4257C8.16992 20.1437 8.3985 19.915 8.68054 19.915H10.2124C10.4944 19.915 10.723 20.1437 10.723 20.4257C10.723 20.7077 10.4944 20.9364 10.2124 20.9364Z" fill="#121131"/>
<path d="M8.17147 16.8514H6.63957C6.35754 16.8514 6.12891 16.6228 6.12891 16.3407C6.12891 16.0587 6.35754 15.8301 6.63957 15.8301H8.17147C8.45351 15.8301 8.68209 16.0587 8.68209 16.3407C8.68209 16.6228 8.45345 16.8514 8.17147 16.8514Z" fill="#121131"/>
<path d="M10.2124 13.787H8.68054C8.3985 13.787 8.16992 13.5583 8.16992 13.2763C8.16992 12.9943 8.3985 12.7656 8.68054 12.7656H10.2124C10.4944 12.7656 10.723 12.9943 10.723 13.2763C10.723 13.5583 10.4944 13.787 10.2124 13.787Z" fill="#121131"/>
<path d="M7.14999 21.9579H5.61809C5.33606 21.9579 5.10742 21.7292 5.10742 21.4472C5.10742 21.1652 5.336 20.9365 5.61809 20.9365H7.14999C7.43202 20.9365 7.66066 21.1652 7.66066 21.4472C7.66066 21.7292 7.43208 21.9579 7.14999 21.9579Z" fill="#121131"/>
</svg>
