<svg width="33" height="24" viewBox="0 0 33 24" fill="none" xmlns="http://www.w3.org/2000/svg">
<g opacity="0.6">
<path d="M29.2716 23.9999H25.6828C24.8977 23.9999 24.2248 23.327 24.2248 22.542V20.8597H8.29959V22.542C8.29959 23.327 7.6267 23.9999 6.84165 23.9999H3.25287C2.46782 23.9999 1.79492 23.327 1.79492 22.542V11.6635C1.79492 9.86908 3.25287 8.41113 5.04726 8.41113H27.4772C29.2716 8.41113 30.7295 9.86908 30.7295 11.6635V22.542C30.7295 23.327 30.0566 23.9999 29.2716 23.9999ZM7.73885 19.7382H24.7856C25.122 19.7382 25.3463 19.9625 25.3463 20.299V22.542C25.3463 22.7663 25.4585 22.8784 25.6828 22.8784H29.2716C29.4959 22.8784 29.608 22.7663 29.608 22.542V11.6635C29.608 10.542 28.5987 9.53263 27.4772 9.53263H5.04726C3.92576 9.53263 2.91642 10.542 2.91642 11.6635V22.542C2.91642 22.7663 3.02857 22.8784 3.25287 22.8784H6.84165C7.06595 22.8784 7.1781 22.7663 7.1781 22.542V20.299C7.1781 19.9625 7.4024 19.7382 7.73885 19.7382Z" fill="#121131"/>
<path d="M20.7476 18.2807H11.7756C11.4391 18.2807 11.2148 18.0564 11.2148 17.7199C11.2148 17.3835 11.4391 17.1592 11.7756 17.1592H20.7476C21.084 17.1592 21.3083 17.3835 21.3083 17.7199C21.3083 18.0564 21.084 18.2807 20.7476 18.2807Z" fill="#121131"/>
<path d="M7.51499 16.1491C6.16919 16.1491 4.93555 15.0276 4.93555 13.5697C4.93555 12.2239 6.05704 10.9902 7.51499 10.9902C8.97293 10.9902 10.0944 12.1117 10.0944 13.5697C10.0944 14.9155 8.86078 16.1491 7.51499 16.1491ZM7.51499 12.1117C6.72994 12.1117 6.05704 12.7846 6.05704 13.5697C6.05704 14.3547 6.72994 15.0276 7.51499 15.0276C8.30003 15.0276 8.97293 14.3547 8.97293 13.5697C8.97293 12.7846 8.30003 12.1117 7.51499 12.1117Z" fill="#121131"/>
<path d="M25.0091 16.1491C23.6633 16.1491 22.4297 15.0276 22.4297 13.5697C22.4297 12.2239 23.5512 10.9902 25.0091 10.9902C26.4671 10.9902 27.5886 12.1117 27.5886 13.5697C27.4764 14.9155 26.3549 16.1491 25.0091 16.1491ZM25.0091 12.1117C24.2241 12.1117 23.5512 12.7846 23.5512 13.5697C23.5512 14.3547 24.2241 15.0276 25.0091 15.0276C25.7942 15.0276 26.4671 14.3547 26.4671 13.5697C26.4671 12.7846 25.7942 12.1117 25.0091 12.1117Z" fill="#121131"/>
<path d="M3.47664 9.3082H1.90654C0.897196 9.3082 0 8.411 0 7.40166C0 6.39231 0.897196 5.49512 1.90654 5.49512H3.47664C4.14953 5.49512 4.71028 5.83157 5.04673 6.39231C5.38318 6.95306 5.49533 7.73811 5.15888 8.29886C4.82243 8.8596 4.14953 9.3082 3.47664 9.3082ZM1.90654 6.61661C1.45794 6.61661 1.1215 6.95306 1.1215 7.40166C1.1215 7.85026 1.45794 8.18671 1.90654 8.18671H3.47664C3.81308 8.18671 4.03738 8.07456 4.14953 7.73811C4.26168 7.51381 4.26168 7.17736 4.14953 6.95306C4.03738 6.72876 3.81308 6.61661 3.47664 6.61661H1.90654Z" fill="#121131"/>
<path d="M28.037 9.53271C27.8127 9.53271 27.5884 9.42056 27.4763 9.19626L24.5604 2.13084C24.3361 1.45794 23.6632 1.1215 22.9903 1.1215H9.53234C8.85945 1.1215 8.18655 1.57009 7.96225 2.13084L5.04636 9.19626C4.93421 9.53271 4.59777 9.64486 4.26132 9.53271C3.92487 9.42056 3.81272 9.08411 3.92487 8.74766L6.84076 1.68224C7.28935 0.672897 8.41085 0 9.53234 0H22.9903C24.1118 0 25.1211 0.672897 25.5697 1.68224L28.4856 8.74766C28.5978 9.08411 28.4856 9.30841 28.1492 9.53271C28.1492 9.53271 28.1492 9.53271 28.037 9.53271Z" fill="#121131"/>
<path d="M30.6152 9.3082H29.0451C28.3722 9.3082 27.6993 8.97175 27.3629 8.29886C27.0264 7.62596 27.0264 6.95306 27.475 6.39231C27.8115 5.83157 28.3722 5.49512 29.0451 5.49512H30.6152C31.6246 5.49512 32.5217 6.39231 32.5217 7.40166C32.5217 8.411 31.6246 9.3082 30.6152 9.3082ZM28.4844 6.95306C28.3722 7.17736 28.2601 7.51381 28.4844 7.73811C28.7087 7.96241 28.933 8.18671 29.1573 8.18671H30.7274C31.176 8.18671 31.5124 7.85026 31.5124 7.40166C31.5124 6.95306 31.176 6.61661 30.7274 6.61661H29.1573C28.8208 6.61661 28.5965 6.72876 28.4844 6.95306Z" fill="#121131"/>
</g>
</svg>
