<svg width="38" height="24" viewBox="0 0 38 24" fill="none" xmlns="http://www.w3.org/2000/svg">
<path d="M25.1542 1.14336V0.635496C25.1542 0.28451 24.8697 0 24.5187 0C24.1678 0 23.8832 0.28451 23.8832 0.635496V1.14336C17.1826 1.48105 11.4312 7.04099 11.4312 10.4525C11.4312 10.8035 11.7157 11.088 12.0667 11.088C12.0747 11.088 12.0827 11.0826 12.0906 11.0826C12.2076 11.1119 12.33 11.1199 12.4523 11.08C16.5019 9.68137 19.2141 11.6437 19.3257 11.7261C19.4374 11.8086 19.5704 11.8538 19.7086 11.8538C19.7379 11.8538 19.7698 11.8511 19.799 11.8484C19.9666 11.8245 20.1181 11.7341 20.2192 11.5985C21.1658 10.3248 22.942 9.93397 23.8912 9.81431V22.6678C21.0142 22.6546 17.9271 22.6439 14.9703 22.6386C14.973 22.6093 14.9863 22.5854 14.9863 22.5562V21.2612H15.1804C15.3506 21.2612 15.5154 21.1921 15.6351 21.0698L17.4352 19.2165C17.6798 18.9639 17.6745 18.5624 17.4219 18.3177C17.1693 18.0731 16.7678 18.0784 16.5232 18.331L14.9118 19.9902H3.69091C3.33992 19.9902 3.05541 20.2748 3.05541 20.6257C3.05541 20.9767 3.33992 21.2612 3.69091 21.2612H4.68005V22.5562C4.68005 22.5907 4.69335 22.62 4.69866 22.6519C2.2976 22.6678 0.70221 22.6971 0.484173 22.745C0.1518 22.8194 -0.0502824 23.1411 0.0108742 23.4762C0.0720309 23.8112 0.396427 24.0346 0.739436 23.9894C1.75251 23.8458 21.9847 23.9176 35.3355 24C35.3382 24 35.3382 24 35.3408 24C35.6891 24 35.9737 23.7181 35.9763 23.3698C35.979 23.0188 35.6971 22.7317 35.3461 22.7317C33.6072 22.721 29.725 22.6971 25.1596 22.6758V9.80634C26.0583 9.91535 27.8584 10.2903 28.8316 11.5985C28.9566 11.766 29.148 11.8538 29.3421 11.8538C29.4751 11.8538 29.608 11.8139 29.7224 11.7288C29.8367 11.6437 32.5462 9.68137 36.5959 11.08C36.7182 11.1225 36.8405 11.1146 36.9575 11.0826C36.9655 11.0826 36.9734 11.088 36.9814 11.088C37.3324 11.088 37.6169 10.8035 37.6169 10.4525C37.6089 7.04099 31.8575 1.48105 25.1542 1.14336ZM5.93243 22.6439C5.93775 22.6147 5.95105 22.5881 5.95105 22.5562V21.2612H13.7126V22.5562C13.7126 22.5854 13.7259 22.6093 13.7286 22.6386C10.8462 22.6333 8.13939 22.6359 5.93243 22.6439ZM29.4618 10.3887C27.6829 8.54332 24.7607 8.4928 24.6278 8.49014C24.6091 8.49014 24.5905 8.50078 24.5719 8.50078C24.5533 8.49812 24.5347 8.49014 24.5161 8.49014C24.5134 8.49014 24.5134 8.49014 24.5108 8.49014C24.3752 8.49014 21.3705 8.54066 19.5783 10.3887C18.5679 9.81963 16.1243 8.78263 12.8485 9.63616C13.7073 6.78307 18.6477 2.38245 24.5214 2.38245C30.3951 2.38245 35.3355 6.78573 36.1943 9.63616C32.9185 8.78263 30.4749 9.81963 29.4618 10.3887Z" fill="#121131"/>
</svg>
