<svg width="493" height="300" viewBox="0 0 493 300" fill="none" xmlns="http://www.w3.org/2000/svg">
<path d="M189.986 151.852C189.986 132.048 189.631 112.235 190.128 92.4483C190.394 82.0184 191.112 71.3845 193.454 61.2651C197.276 44.7511 206.553 31.1728 219.378 19.9536C233.887 7.26211 250.898 0.619266 269.877 0.104868C288.192 -0.391793 305.149 4.7788 319.951 16.1222C343.88 34.4543 353.866 59.3317 353.964 88.7233C354.097 130.54 353.973 172.366 353.999 214.183C354.008 230.023 350.665 245.118 342.505 258.697C333.681 273.392 321.672 284.922 305.939 292.434C288.937 300.558 271.367 301.826 253.266 297.711C237.852 294.208 224.699 286.341 213.994 274.918C206.544 266.971 200.318 258.076 196.168 247.664C192.256 237.846 190.199 227.859 190.101 217.465C189.906 195.594 190.039 173.723 190.039 151.852C190.022 151.852 189.995 151.852 189.977 151.852H189.986ZM303.163 150.948H303.189C303.189 131.143 303.251 111.339 303.145 91.5436C303.118 86.6835 302.843 81.7789 302.107 76.9808C299.801 61.948 289.487 52.4139 273.762 50.3829C262.401 48.9195 248.69 57.3716 244.016 69.8857C241.798 75.8279 240.725 82.5328 240.681 88.9007C240.388 129.831 240.441 170.77 240.601 211.709C240.637 220.019 242.002 228.161 246.871 235.354C256.716 249.907 276.201 254.386 290.826 241.979C299.5 234.626 303.384 225.323 303.242 213.9C302.976 192.916 303.163 171.932 303.163 150.948Z" fill="black"/>
<path d="M50.2899 150.275C50.2899 170.222 50.1125 190.177 50.3697 210.123C50.485 219.276 51.4428 228.26 57.119 236.251C70.4224 254.982 95.0514 252.827 106.466 235.018C111.14 227.728 112.701 219.826 112.984 211.453C113.091 208.349 113.029 205.245 113.215 202.15C113.543 196.979 116.097 194.159 121.162 194.088C133.126 193.919 145.099 193.955 157.072 194.088C160.291 194.123 163.103 195.879 163.333 199.25C164.797 221.032 162.287 242.131 150.305 261.004C140.132 277.03 126.288 288.959 108.248 295.487C98.1556 299.141 87.6636 300.435 76.9233 299.877C57.6688 298.883 41.2613 291.371 27.0355 278.582C19.1067 271.461 13.0315 262.964 8.41961 253.483C3.13372 242.601 0.14489 231 0.109414 218.859C0.00298685 173.938 -0.0857017 129.017 0.144891 84.0953C0.251318 63.3509 6.566 44.5133 20.1976 28.5846C32.7205 13.942 48.4984 4.85136 67.5755 1.32152C79.6283 -0.904579 91.6192 -0.266015 103.149 2.87359C118.359 7.02425 131.361 15.3522 141.959 27.343C159.236 46.899 163.733 70.3573 163.28 95.3855C163.156 102.046 160.274 104.654 153.755 104.68C143.414 104.716 133.064 104.707 122.723 104.671C116.097 104.645 113.437 101.993 113.002 95.3589C112.559 88.6008 112.851 81.6386 111.282 75.1377C108.355 63.0139 101.011 54.2336 88.3288 51.227C71.2561 47.1739 55.2742 57.6127 52.0459 75.0224C50.9728 80.805 50.4229 86.756 50.3608 92.6273C50.1569 111.837 50.281 131.048 50.2899 150.258V150.275Z" fill="black"/>
<rect x="400" y="14.4141" width="107.143" height="28.5714" rx="4" transform="rotate(30 400 14.4141)" fill="black"/>
<rect x="385.711" y="67.9844" width="107.143" height="28.5714" rx="4" transform="rotate(-30 385.711 67.9844)" fill="black"/>
<rect x="424.965" y="107.143" width="107.143" height="28.5714" rx="4" transform="rotate(-90 424.965 107.143)" fill="black"/>
</svg>
