<svg width="329" height="200" viewBox="0 0 329 200" fill="none" xmlns="http://www.w3.org/2000/svg">
<path d="M126.656 101.234C126.656 88.031 126.42 74.8221 126.751 61.631C126.928 54.6777 127.407 47.5885 128.968 40.8422C131.516 29.8328 137.701 20.7806 146.251 13.3011C155.924 4.84011 167.264 0.411543 179.917 0.0686097C192.127 -0.262498 203.432 3.18457 213.3 10.7468C229.252 22.9683 235.91 39.5532 235.975 59.1477C236.064 87.0258 235.981 114.91 235.999 142.788C236.004 153.348 233.775 163.411 228.336 172.463C222.453 182.261 214.447 189.947 203.958 194.955C192.623 200.371 180.91 201.217 168.843 198.473C158.567 196.138 149.798 190.893 142.662 183.278C137.695 177.98 133.544 172.05 130.777 165.108C128.17 158.563 126.798 151.905 126.733 144.976C126.603 130.395 126.692 115.814 126.692 101.234C126.68 101.234 126.662 101.234 126.65 101.234H126.656ZM202.107 100.631H202.125C202.125 87.4279 202.166 74.2249 202.095 61.0279C202.078 57.7878 201.894 54.5181 201.404 51.3194C199.866 41.2974 192.99 34.9414 182.507 33.5874C174.933 32.6118 165.792 38.2465 162.676 46.5893C161.198 50.5507 160.482 55.0207 160.453 59.266C160.258 86.5528 160.293 113.846 160.399 141.138C160.423 146.678 161.334 152.106 164.58 156.901C171.143 166.604 184.133 169.59 193.883 161.318C199.665 156.417 202.255 150.214 202.16 142.599C201.983 128.609 202.107 114.62 202.107 100.631Z" fill="white"/>
<path d="M33.5267 100.183C33.5267 113.48 33.4084 126.783 33.5799 140.081C33.6567 146.183 34.2953 152.172 38.0794 157.5C46.9484 169.987 63.3678 168.55 70.9773 156.678C74.0933 151.818 75.1339 146.549 75.3231 140.968C75.3941 138.898 75.3527 136.829 75.4769 134.766C75.6956 131.318 77.3985 129.438 80.7746 129.391C88.7507 129.279 96.7328 129.302 104.715 129.391C106.861 129.415 108.735 130.585 108.889 132.832C109.865 147.354 108.191 161.42 100.204 174.002C93.4217 184.686 84.1921 192.638 72.1658 196.99C65.4372 199.426 58.4425 200.289 51.2823 199.917C38.446 199.255 27.5076 194.247 18.0237 185.721C12.7378 180.973 8.68766 175.309 5.61309 168.988C2.08915 161.733 0.0965935 153.999 0.0729429 145.905C0.00199124 115.957 -0.0571346 86.0099 0.096594 56.0624C0.167546 42.2327 4.37735 29.6743 13.4651 19.0552C21.8137 9.2934 32.3323 3.23295 45.0504 0.879716C53.0857 -0.604356 61.0796 -0.178646 68.766 1.91443C78.9062 4.68154 87.5741 10.2335 94.6397 18.2274C106.158 31.2648 109.155 46.9037 108.854 63.5892C108.771 68.0296 106.849 69.7679 102.504 69.7856C95.6094 69.8093 88.7093 69.8034 81.8152 69.7797C77.3985 69.762 75.6247 67.9941 75.335 63.5714C75.0393 59.066 75.2344 54.4246 74.1879 50.0906C72.2367 42.008 67.3411 36.1545 58.886 34.1501C47.5041 31.4481 36.8496 38.4072 34.6974 50.0138C33.9819 53.8688 33.6154 57.8362 33.574 61.7504C33.438 74.5571 33.5208 87.3639 33.5267 100.171V100.183Z" fill="white"/>
<rect x="266.664" y="9.60938" width="71.4286" height="19.0476" rx="4" transform="rotate(30 266.664 9.60938)" fill="white"/>
<rect x="257.141" y="45.3223" width="71.4286" height="19.0476" rx="4" transform="rotate(-30 257.141 45.3223)" fill="white"/>
<rect x="283.309" y="71.4277" width="71.4286" height="19.0476" rx="4" transform="rotate(-90 283.309 71.4277)" fill="white"/>
</svg>
