<svg width="53" height="32" viewBox="0 0 53 32" fill="none" xmlns="http://www.w3.org/2000/svg">
  <g id="Group 1437252997">
    <path id="Vector" d="M20.265 16.1968C20.265 14.0843 20.2272 11.9709 20.2802 9.8603C20.3086 8.74778 20.3852 7.61349 20.6349 6.53408C21.0427 4.77259 22.0322 3.32423 23.4002 2.12751C24.9479 0.773754 26.7623 0.0651828 28.7868 0.0103135C30.7404 -0.0426638 32.5491 0.508867 34.1281 1.71883C36.6804 3.67426 37.7456 6.32785 37.7561 9.46297C37.7702 13.9235 37.757 18.3849 37.7598 22.8454C37.7608 24.535 37.4041 26.1451 36.5338 27.5935C35.5925 29.161 34.3116 30.3909 32.6333 31.1922C30.8198 32.0587 28.9457 32.194 27.0149 31.755C25.3707 31.3814 23.9678 30.5422 22.8259 29.3238C22.0313 28.4761 21.3672 27.5273 20.9244 26.4166C20.5072 25.3694 20.2878 24.3042 20.2773 23.1954C20.2565 20.8625 20.2707 18.5296 20.2707 16.1968C20.2688 16.1968 20.266 16.1968 20.2641 16.1968H20.265ZM32.3372 16.1003H32.3401C32.3401 13.9878 32.3467 11.8753 32.3353 9.76381C32.3325 9.24539 32.3032 8.72223 32.2247 8.21043C31.9787 6.60693 30.8785 5.58995 29.2012 5.37331C27.9893 5.21722 26.5268 6.11878 26.0282 7.45362C25.7917 8.08745 25.6772 8.80265 25.6725 9.48189C25.6413 13.8478 25.647 18.2146 25.664 22.5815C25.6678 23.4679 25.8135 24.3363 26.3328 25.1036C27.3829 26.656 29.4613 27.1337 31.0213 25.8102C31.9465 25.026 32.3609 24.0336 32.3458 22.8151C32.3174 20.5768 32.3372 18.3386 32.3372 16.1003Z" fill="#00254E"/>
    <path id="Vector_2" d="M5.36427 16.0292C5.36427 18.1568 5.34535 20.2854 5.37278 22.413C5.38508 23.3893 5.48725 24.3476 6.0927 25.1999C7.51174 27.1979 10.1388 26.9681 11.3564 25.0684C11.8549 24.2908 12.0214 23.4479 12.0517 22.5549C12.0631 22.2238 12.0564 21.8926 12.0763 21.5625C12.1113 21.011 12.3838 20.7101 12.9239 20.7026C14.2001 20.6846 15.4772 20.6884 16.7544 20.7026C17.0978 20.7063 17.3977 20.8937 17.4223 21.2531C17.5784 23.5766 17.3106 25.8272 16.0326 27.8403C14.9475 29.5498 13.4707 30.8222 11.5465 31.5184C10.4699 31.9082 9.3508 32.0463 8.20517 31.9867C6.15136 31.8808 4.40122 31.0795 2.8838 29.7153C2.03805 28.9557 1.39003 28.0494 0.898094 27.0381C0.334265 25.8773 0.015455 24.6399 0.0116709 23.3448C0.000318598 18.5532 -0.00914154 13.7616 0.015455 8.96998C0.0268073 6.75723 0.700375 4.74788 2.15441 3.04883C3.4902 1.48694 5.17317 0.517272 7.20806 0.140755C8.49371 -0.096697 9.77273 -0.0285834 11.0026 0.306309C12.625 0.749047 14.0119 1.63736 15.1424 2.91638C16.9852 5.00236 17.4648 7.50459 17.4166 10.1743C17.4033 10.8847 17.0959 11.1629 16.4006 11.1657C15.2975 11.1695 14.1935 11.1685 13.0904 11.1648C12.3838 11.1619 12.0999 10.8791 12.0536 10.1714C12.0063 9.45056 12.0375 8.70793 11.8701 8.0145C11.5579 6.72129 10.7746 5.78472 9.42176 5.46402C7.60066 5.03169 5.89593 6.14516 5.55158 8.0022C5.43711 8.61901 5.37846 9.25379 5.37183 9.88006C5.35008 11.9291 5.36332 13.9782 5.36427 16.0273V16.0292Z" fill="#00254E"/>
    <path id="Vector_3" d="M48.4112 10.4691C48.3884 10.6659 48.3449 10.8636 48.3478 11.0604C48.3553 11.6904 48.3752 12.3205 48.3989 12.9496C48.4216 13.5352 48.2115 13.8142 47.6241 13.8549C47.1066 13.8909 46.5834 13.8861 46.065 13.8606C45.5854 13.8369 45.3432 13.5437 45.3479 13.0489C45.3536 12.3876 45.3763 11.7254 45.3744 11.0642C45.3744 10.8579 45.3167 10.6507 45.2609 10.2771C44.4975 10.7983 43.8466 11.2212 43.2194 11.6791C42.6773 12.0755 42.578 12.0792 42.1551 11.5419C41.8921 11.2079 41.632 10.8721 41.3718 10.5372C40.8978 9.92514 40.9735 9.49376 41.6348 9.08129C42.2752 8.68207 42.9223 8.29136 43.5637 7.89214C43.7208 7.7947 43.8674 7.68023 44.1181 7.50333C43.734 7.12965 43.4247 6.75502 43.0444 6.47878C42.4853 6.07389 41.8826 5.72575 41.2819 5.3814C40.9101 5.16854 40.7834 4.96042 41.0823 4.57728C41.4986 4.04561 41.8798 3.48557 42.2771 2.93877C42.508 2.62185 42.7218 2.53671 43.0794 2.83849C43.6877 3.35029 44.348 3.80249 45.0017 4.25752C45.0613 4.29915 45.2732 4.21401 45.3385 4.12887C45.4028 4.04561 45.3801 3.88763 45.3782 3.76181C45.3678 2.94255 45.3754 2.12235 45.329 1.30499C45.3035 0.855627 45.5352 0.612499 45.9023 0.592633C46.5891 0.555738 47.2825 0.59074 47.9703 0.635204C48.3506 0.6598 48.484 0.911443 48.4537 1.29837C48.3847 2.17722 48.3411 3.05891 48.3071 3.93966C48.3014 4.09197 48.3941 4.24806 48.4424 4.40226C48.5843 4.33131 48.7375 4.2755 48.8671 4.18657C49.5379 3.72397 50.1972 3.24528 50.8765 2.79592C50.9484 2.74862 51.1716 2.81579 51.2416 2.89998C51.7828 3.5499 52.3135 4.20833 52.812 4.89136C52.8612 4.95853 52.7108 5.26409 52.5803 5.35302C52.112 5.67088 51.6134 5.94239 51.1262 6.23282C50.937 6.34539 50.7421 6.45135 50.5605 6.57528C49.6713 7.18452 49.6807 7.54401 50.5861 8.06621C51.0638 8.3415 51.5368 8.62342 52.006 8.91385C52.7808 9.39253 52.865 9.83811 52.3088 10.5391C52.0174 10.9071 51.7099 11.2628 51.3996 11.6157C51.1527 11.8967 50.8822 11.943 50.5832 11.6734C50.4555 11.558 50.307 11.4634 50.1622 11.3697C49.6325 11.0282 49.0999 10.6914 48.5691 10.3527C48.5162 10.3925 48.4632 10.4313 48.4102 10.471L48.4112 10.4691Z" fill="#00254E"/>
  </g>
</svg>
