<svg width="48" height="48" viewBox="0 0 48 48" fill="none" xmlns="http://www.w3.org/2000/svg">
<path d="M24.0008 31.5828C28.1888 31.5828 31.5837 28.1878 31.5837 23.9999C31.5837 19.812 28.1888 16.417 24.0008 16.417C19.8129 16.417 16.418 19.812 16.418 23.9999C16.418 28.1878 19.8129 31.5828 24.0008 31.5828Z" fill="#00AA13"/>
<path fill-rule="evenodd" clip-rule="evenodd" d="M20.778 39.7467V39.7452C21.3039 37.9377 20.4497 36.0503 18.7442 35.253C14.5138 33.2739 11.5829 28.9792 11.5829 23.9996C11.5829 17.1423 17.1423 11.5829 23.9996 11.5829C30.857 11.5829 36.4164 17.1423 36.4164 23.9996C36.4164 28.943 33.5276 33.2125 29.3453 35.2101C27.5947 36.0466 26.7612 38.0427 27.3987 39.8761V39.8776C27.7663 40.9337 28.4896 41.7014 29.5213 42.1318C30.553 42.5623 31.6069 42.5356 32.6164 42.0534C39.3488 38.8348 44 31.9604 44 23.9996C43.9993 12.9541 35.0452 4 23.9996 4C12.9541 4 4 12.9541 4 23.9996C4 32.0174 8.7185 38.9332 15.5293 42.1222C16.5684 42.6089 17.6548 42.6155 18.6998 42.1429C19.7448 41.6696 20.4571 40.8487 20.7773 39.7467H20.778Z" fill="#00AA13"/>
</svg>
