<svg width="32" height="32" viewBox="0 0 32 32" fill="none" xmlns="http://www.w3.org/2000/svg">
<path d="M25.3605 16C25.3619 18.2023 24.5861 20.3345 23.1697 22.0209C21.7533 23.7073 19.7872 24.8397 17.6178 25.2187C15.4483 25.5977 13.2147 25.1988 11.3105 24.0925C9.40623 22.9862 7.95352 21.2433 7.20828 19.1709L1.85547 23.4531C3.51989 26.617 6.19644 29.1321 9.45773 30.5966C12.719 32.0611 16.377 32.3907 19.8475 31.5327C23.3181 30.6747 26.4011 28.6785 28.6042 25.863C30.8074 23.0475 32.0036 19.575 32.002 16" fill="#00AC47"/>
<path d="M25.36 16C25.3588 17.4889 25.0019 18.956 24.3189 20.279C23.6359 21.602 22.6467 22.7427 21.4336 23.606L26.7255 27.8395C28.3849 26.3455 29.712 24.5196 30.6209 22.4801C31.5298 20.4405 32.0001 18.2329 32.0015 16" fill="#4285F4"/>
<path d="M6.6415 16C6.64382 14.9182 6.83494 13.8451 7.20627 12.8291L1.85346 8.54688C0.636356 10.8426 0 13.4015 0 16C0 18.5984 0.636356 21.1573 1.85346 23.4531L7.20627 19.1709C6.83494 18.1548 6.64382 17.0817 6.6415 16Z" fill="#FFBA00"/>
<path d="M16.002 6.64151C17.9822 6.64206 19.9105 7.27487 21.506 8.44776L26.4086 3.87201C24.5887 2.30287 22.4379 1.165 20.1167 0.543314C17.7956 -0.0783752 15.364 -0.167832 13.0034 0.281618C10.6428 0.731069 8.41422 1.70782 6.48392 3.13899C4.55361 4.57015 2.97144 6.41877 1.85547 8.5469L7.20828 12.8291C7.86109 11.0194 9.05536 9.4547 10.6287 8.34763C12.2021 7.24056 14.0782 6.64486 16.002 6.64151Z" fill="#EA4435"/>
<path d="M32.0017 14.7915V15.9991L29.2847 20.2255H16.6055V13.584H30.7941C31.1144 13.584 31.4215 13.7112 31.648 13.9377C31.8745 14.1641 32.0017 14.4713 32.0017 14.7915Z" fill="#4285F4"/>
</svg>
