<svg width="48" height="48" viewBox="0 0 48 48" fill="none" xmlns="http://www.w3.org/2000/svg">
<circle cx="20" cy="20" r="20" transform="matrix(-1 0 0 1 44 4)" fill="#009C3D"/>
<path d="M30.2189 18.5201V16.3524C28.5721 15.4615 26.7733 15.0658 24.3887 15.0658C22.004 15.0658 19.6483 15.9664 17.8929 17.5928C16.1328 19.2265 15.1635 21.3747 15.1635 23.6468V24.2391C15.1635 28.9702 18.9346 32.8201 23.5713 32.8201C27.3424 32.8201 28.8904 31.5796 29.2834 31.1864V25.681H23.1276V27.5137H27.5787V30.2737L27.5618 30.2785C26.9879 30.5092 25.7992 30.9898 23.5689 30.9898C21.8015 30.9898 20.145 30.2955 18.908 29.0357C17.6663 27.771 16.9839 26.0694 16.9839 24.244V23.6517C16.9839 19.996 20.374 16.9058 24.3887 16.9058C27.1664 16.9058 28.806 17.3598 30.2189 18.5249M12 23.6444V24.2367C12 27.4166 13.1984 30.3829 15.3732 32.587C17.5433 34.7887 20.456 36 23.5689 36C26.0717 36 28.2876 35.432 30.1586 34.3105C31.7018 33.3857 32.3842 32.4487 32.4444 32.3637V22.4914H23.1252V24.3265H30.6216V31.7933L30.6144 31.8005C29.7367 32.6841 27.6534 34.1673 23.5665 34.1673C20.9045 34.1673 18.4379 33.1453 16.6247 31.2859C14.8139 29.4362 13.8204 26.9335 13.8204 24.2367V23.6444C13.8204 21.1004 14.9609 18.5613 16.9453 16.6849C18.9731 14.7697 21.6158 13.7162 24.3863 13.7162C26.9711 13.7162 28.7722 14.1094 30.2165 14.993V12.9346C28.7119 12.2889 26.9132 12 24.3863 12C17.6735 11.9976 12 17.3331 12 23.6444Z" fill="white"/>
</svg>
