<svg width="48" height="48" viewBox="0 0 48 48" fill="none" xmlns="http://www.w3.org/2000/svg">
<circle cx="20" cy="20" r="20" transform="matrix(-1 0 0 1 44 4)" fill="white"/>
<path d="M22.0996 12.178C23.5939 11.9209 25.1378 11.9423 26.6321 12.2423C27.3687 12.3708 28.0486 12.7279 28.686 13.0993C29.4083 13.535 30.1449 13.9349 30.8885 14.3206C32.6803 15.5204 34.1463 17.2345 34.982 19.2486C35.4565 20.3627 35.7398 21.5554 35.8602 22.7624C36.1435 24.3479 35.9877 25.9906 35.4707 27.5118C35.0599 29.0188 34.118 30.2758 33.3602 31.6112C33.254 31.7897 33.1052 31.9469 32.9707 32.1111C31.9933 33.2968 30.8389 34.3681 29.4083 34.9609C29.4721 34.8752 29.5075 34.7824 29.5217 34.6824C29.3588 34.7181 29.1959 34.7611 29.033 34.8111C29.1251 34.6897 29.2667 34.6252 29.3942 34.5395C29.8616 34.2324 30.3078 33.8968 30.7327 33.5325C30.8035 33.4682 30.9027 33.4325 30.931 33.3326C30.761 33.404 30.6548 33.5682 30.499 33.6682C28.254 35.3037 25.4423 36.2036 22.6661 35.9608C19.8049 35.7251 17.0783 34.3253 15.1661 32.1684C13.8418 30.69 12.8786 28.8831 12.3899 26.9548C11.8092 24.7407 11.8729 22.3553 12.6095 20.1842C13.0344 18.9272 13.6576 17.7345 14.4933 16.706C15.8035 15.0562 17.482 13.6707 19.4154 12.8351C20.3078 12.5994 21.186 12.328 22.0996 12.178ZM22.2412 12.8565C20.2086 13.2207 18.2964 14.192 16.7454 15.5633C15.0811 17.0274 13.8205 18.9557 13.1548 21.0769C12.914 22.2839 12.659 23.5123 12.6732 24.7479C12.9282 26.5834 13.4806 28.4117 14.5146 29.9615C15.2228 31.0328 16.1647 31.9399 17.227 32.6398C17.2837 32.6755 17.3474 32.7041 17.4041 32.7255C16.7809 32.2827 16.2497 31.7327 15.7044 31.1971C13.9338 29.3902 12.9423 26.8548 12.9494 24.3194C12.9352 22.1482 13.6151 19.9842 14.8191 18.1844C15.3361 17.6488 15.6831 16.9774 16.1789 16.4132C17.8149 14.8348 19.897 13.7564 22.0854 13.1993C24.4721 12.8422 26.9579 13.2493 29.1321 14.2992C31.186 15.2848 32.9707 16.8631 34.118 18.8486C34.9962 20.3484 35.4778 22.0768 35.5202 23.8123C35.5486 23.1767 35.6052 22.5196 35.4211 21.8982C35.1945 20.9555 34.982 19.9913 34.5429 19.1271C33.7568 17.7987 32.9494 16.4418 31.795 15.4062C30.9168 14.6206 29.8899 14.0135 28.7993 13.5778C27.8503 13.3207 26.8942 13.0922 25.9381 12.8493C24.72 12.6279 23.4593 12.6422 22.2412 12.8565ZM22.5245 14.542C20.669 14.9991 18.9622 15.9633 17.5032 17.1845C17.0854 17.5845 16.6888 18.0201 16.4622 18.5629C16.4126 18.6843 16.3843 18.82 16.3064 18.9343C16.3276 18.9343 16.363 18.9272 16.3843 18.92C16.7879 18.3558 17.2129 17.8059 17.7228 17.3345C19.1605 15.9847 21.0726 15.1991 23.0132 15.0348C25.2015 14.8348 27.4395 15.3847 29.295 16.5489C29.9324 16.9131 30.5273 17.3488 31.0372 17.8844C31.9438 18.8272 32.5953 20.0199 32.9707 21.2769C33.3673 22.4339 33.6931 23.6623 33.5372 24.8979C33.3319 26.2049 33.3035 27.569 32.7724 28.8045C32.3191 29.5116 31.9013 30.2402 31.4338 30.9328C29.9112 32.6755 27.9565 34.1039 25.7044 34.661C25.4919 34.6824 25.3007 34.8038 25.0811 34.7824C25.3007 34.8324 25.499 34.7038 25.7185 34.7038C27.8998 34.2967 29.9324 33.161 31.448 31.5328C32.8644 30.0115 33.8205 28.0332 34.0755 25.9549C34.0826 25.0978 34.0755 24.2479 34.0755 23.3909C34.1038 22.9053 33.9693 22.4339 33.8559 21.9625C33.2681 19.7128 31.8517 17.7273 30.0174 16.3346C29.4792 15.9347 28.9268 15.5419 28.3035 15.2848C26.4976 14.492 24.4721 14.3063 22.5245 14.542ZM19.6491 20.7127C18.778 21.8197 18.3602 23.2838 18.5443 24.6836C18.6505 25.5264 18.9763 26.3191 19.4154 27.0333C19.3588 26.9905 19.2455 26.8976 19.1888 26.8548C19.0542 26.8048 19.0542 26.9619 19.118 27.0333C19.4579 27.7047 20.0174 28.2332 20.6123 28.6831C21.1293 28.9688 21.618 29.3118 22.1704 29.533C22.829 29.7687 23.5231 29.9258 24.2242 29.8687C25.0316 29.79 25.8531 29.6471 26.5826 29.2688C27.3404 28.8974 27.9778 28.3046 28.5372 27.6761C28.9338 27.269 28.9763 26.6691 29.2738 26.2049C29.6066 25.6406 29.6704 24.9621 29.6775 24.3194C29.6916 23.6266 29.55 22.941 29.3517 22.2839C29.2525 21.8268 28.9976 21.4269 28.7497 21.0412C27.9494 19.9056 26.7879 18.9986 25.4282 18.6772C23.3248 18.1344 20.9735 18.9914 19.6491 20.7127Z" fill="#221E1F" stroke="#221E1F" stroke-width="0.248608"/>
<path d="M19.6476 20.7131C20.972 18.9919 23.3232 18.1348 25.4266 18.6776C26.7864 18.999 27.9479 19.906 28.7482 21.0416C28.9961 21.4273 29.251 21.8272 29.3502 22.2843C29.5485 22.9414 29.6901 23.627 29.6759 24.3198C29.6689 24.9626 29.6051 25.641 29.2723 26.2053C28.9748 26.6695 28.9323 27.2693 28.5357 27.6765C27.9762 28.305 27.3388 28.8978 26.581 29.2692C25.8516 29.6477 25.03 29.7905 24.2227 29.8691C23.5215 29.9262 22.8275 29.7691 22.1689 29.5334C21.6164 29.312 21.1278 28.9692 20.6108 28.6835C20.0159 28.2336 19.4564 27.7052 19.1164 27.0337C19.0527 26.9623 19.0527 26.8052 19.1873 26.8552C19.2439 26.898 19.3572 26.9909 19.4139 27.0337C18.9748 26.3195 18.649 25.5268 18.5428 24.684C18.3587 23.2842 18.7765 21.8201 19.6476 20.7131ZM22.2326 19.2561C22.1618 19.2847 22.0839 19.3204 22.0272 19.3775C23.5782 18.7062 25.4479 18.8776 26.8502 19.8203C27.2184 20.1631 27.7 20.3845 27.9621 20.8274C28.4791 21.5416 28.9323 22.32 29.1519 23.1771C29.4989 25.1911 28.6207 27.3551 26.9776 28.5478C26.5385 28.8976 26.0145 29.1119 25.4975 29.3192C25.115 29.462 24.6901 29.4406 24.3006 29.562C24.5555 29.5691 24.8176 29.6905 25.0725 29.6118C25.5258 29.4906 25.9932 29.3834 26.4181 29.1619C27.1759 28.6977 27.9479 28.1906 28.4436 27.4264C28.5215 27.2908 28.649 27.1692 28.6632 27.0051L28.6986 26.9409C28.7057 26.9337 28.7198 26.9123 28.7269 26.898C29.0244 26.4767 29.0669 25.948 29.1944 25.4554C29.4918 24.3841 29.3643 23.2199 28.9323 22.2058C28.3728 20.9131 27.3105 19.8632 26.0357 19.2918C25.3346 18.9633 24.5555 18.8776 23.7977 18.8419C23.2524 18.8704 22.7354 19.0561 22.2326 19.2561ZM26.0853 20.406C26.4961 20.7702 26.8785 21.1559 27.2114 21.5844C27.8417 22.3914 28.3232 23.4056 28.2029 24.4555C28.1391 25.2411 27.7 25.9196 27.2893 26.5624C26.921 27.1194 26.5102 27.6694 25.9791 28.0906C25.717 28.3049 25.3771 28.3906 25.0725 28.5405C24.7893 28.6762 24.5272 28.8548 24.2227 28.9334C24.6689 29.0263 25.1079 28.8548 25.5187 28.712C26.6235 28.2763 27.53 27.4121 28.0895 26.3694C28.5145 25.4694 28.6065 24.4411 28.4861 23.4626C28.2666 22.577 27.8062 21.77 27.2184 21.0772C26.9776 20.8344 26.7085 20.5772 26.3544 20.5487C26.2553 20.5131 26.1774 20.4488 26.0853 20.406ZM19.2014 25.3839C19.6901 27.3623 21.5315 28.9478 23.5711 28.9978C23.047 28.8264 22.5442 28.605 22.0485 28.3693C21.5598 28.0336 21.0074 27.7765 20.5825 27.3408C19.938 26.7053 19.3572 25.941 19.1519 25.0411C19.1235 25.1554 19.166 25.2697 19.2014 25.3839Z" fill="#D7DF20" stroke="#D7DF20" stroke-width="0.248608"/>
<path d="M25.5016 29.3179C26.7905 28.9751 27.9449 28.1395 28.6673 27.0039C28.6531 27.1682 28.5257 27.2896 28.4477 27.4253C27.952 28.1895 27.18 28.6966 26.4223 29.1608C25.9973 29.3823 25.5299 29.4895 25.0766 29.6107C24.8217 29.6894 24.5596 29.5679 24.3047 29.5609C24.6942 29.4393 25.1191 29.4607 25.5016 29.3179Z" fill="#221E1F" stroke="#221E1F" stroke-width="0.248608"/>
</svg>
