<svg width="48" height="48" viewBox="0 0 48 48" fill="none" xmlns="http://www.w3.org/2000/svg">
<circle cx="20" cy="20" r="20" transform="matrix(-1 0 0 1 44 4)" fill="#FFCD3F"/>
<path d="M25.6476 29.1068C25.2744 29.1068 24.9013 29.109 24.5282 29.1068C23.1744 29.0963 22.2401 28.3695 21.9065 27.0613C21.4311 25.1956 20.9602 23.3284 20.4879 21.462C20.4729 21.4016 20.4558 21.3419 20.4423 21.2814C20.3729 20.9695 20.2483 20.7031 19.8722 20.7023C19.4983 20.7016 19.3737 20.959 19.2976 21.2747C19.1334 21.9508 18.9565 22.624 18.7864 23.2978C18.3632 24.9717 17.9416 26.6463 17.5177 28.3202C17.367 28.9158 16.9558 29.2016 16.4356 29.0792C15.9528 28.9658 15.7058 28.5038 15.8491 27.9307C16.4535 25.5083 17.0565 23.0852 17.6789 20.6672C17.961 19.5732 18.8379 18.9016 19.8961 18.9105C20.9461 18.9195 21.7901 19.6128 22.0729 20.718C22.5714 22.6672 23.061 24.6195 23.555 26.5702C23.7147 27.2016 23.9647 27.4083 24.5991 27.4038C25.37 27.3978 26.1431 27.4143 26.9102 27.3553C28.6647 27.221 30.0095 25.6784 29.9573 23.9083C29.905 22.1366 28.4722 20.6881 26.7117 20.6426C26.0035 20.624 25.2938 20.6404 24.5849 20.6314C24.4132 20.6292 24.2334 20.6157 24.0714 20.5635C23.7028 20.4456 23.4729 20.0695 23.5088 19.6911C23.5461 19.3053 23.8334 18.9329 24.2117 18.9314C25.4386 18.9255 26.6774 18.7687 27.8879 19.0799C30.1789 19.6695 31.8341 21.9284 31.6759 24.2232C31.4998 26.7784 29.6588 28.7919 27.2125 29.0665C26.6968 29.1247 26.1692 29.1076 25.6468 29.1076C25.6468 29.118 25.6468 29.0963 25.6468 29.1068H25.6476Z" fill="#002C3E"/>
<path d="M35.873 18.9093C36.8962 18.9182 37.7596 19.5891 38.032 20.6429C38.6589 23.072 39.2671 25.5055 39.876 27.9384C40.0178 28.5033 39.7581 28.9742 39.2723 29.0824C38.7529 29.1988 38.3424 28.9152 38.1909 28.316C37.6089 26.0167 37.0312 23.716 36.4521 21.416C36.4312 21.3317 36.4066 21.2481 36.385 21.1638C36.3118 20.8802 36.1484 20.7011 35.8372 20.7033C35.5215 20.7055 35.3701 20.907 35.2992 21.1809C35.1395 21.7936 34.9887 22.4093 34.8342 23.0235C34.385 24.8055 33.938 26.5884 33.4857 28.3697C33.3641 28.8496 33.0529 29.1048 32.6253 29.1026C32.2133 29.1003 31.8835 28.8451 31.7962 28.4361C31.7686 28.3078 31.7715 28.1615 31.8036 28.0339C32.4275 25.5406 33.0409 23.0436 33.6947 20.5578C33.9656 19.5264 34.8514 18.9003 35.8745 18.9093H35.873Z" fill="#002C3E"/>
<path d="M12.9702 20.6396C12.9702 20.8418 12.9702 20.9881 12.9702 21.1344C12.9702 23.3978 12.9702 25.6605 12.9702 27.9239C12.9702 28.0732 12.9769 28.2239 12.9568 28.3709C12.9016 28.7769 12.5374 29.0821 12.1254 29.0821C11.7105 29.0821 11.3546 28.7799 11.2986 28.3687C11.2784 28.2217 11.2829 28.0709 11.2829 27.9217C11.2829 25.6582 11.2829 23.3956 11.2829 21.1321C11.2829 20.9859 11.2829 20.8396 11.2829 20.6388C10.574 20.6388 9.90679 20.6418 9.24037 20.6366C9.0553 20.6351 8.86425 20.6351 8.68664 20.5911C8.29933 20.4956 8.04709 20.1523 8.05082 19.7717C8.0553 19.3888 8.31276 19.0612 8.70231 18.9627C8.82097 18.9329 8.94784 18.9232 9.07097 18.9232C11.1098 18.9209 13.1486 18.9209 15.1874 18.9209C15.2493 18.9209 15.312 18.9202 15.374 18.9262C15.8635 18.9769 16.1934 19.3202 16.1941 19.7776C16.1941 20.2493 15.8486 20.6165 15.3411 20.6329C14.7202 20.653 14.0978 20.6388 13.4762 20.6396C13.3284 20.6396 13.1799 20.6396 12.9695 20.6396H12.9702Z" fill="#002C3E"/>
<rect x="26.0977" y="22.3037" width="2.4" height="2.4" rx="0.72" transform="rotate(45 26.0977 22.3037)" fill="white"/>
</svg>
