<svg width="22" height="18" viewBox="0 0 22 18" fill="none" xmlns="http://www.w3.org/2000/svg">
<path d="M6.39602 1.86567L6.93973 2.1194L6.93973 2.1194L6.39602 1.86567ZM5.4 4V4.6H5.78212L5.94371 4.25373L5.4 4ZM16.6 4L16.0563 4.25373L16.2179 4.6H16.6V4ZM15.604 1.86567L16.1477 1.61194L16.1477 1.61194L15.604 1.86567ZM6.93973 2.1194C7.0876 1.80254 7.40562 1.6 7.75529 1.6V0.4C6.93939 0.4 6.19734 0.872583 5.85231 1.61194L6.93973 2.1194ZM5.94371 4.25373L6.93973 2.1194L5.85231 1.61194L4.85629 3.74627L5.94371 4.25373ZM2.5 4.6H5.4V3.4H2.5V4.6ZM1.6 5.5C1.6 5.00294 2.00294 4.6 2.5 4.6V3.4C1.3402 3.4 0.4 4.3402 0.4 5.5H1.6ZM1.6 15.5V5.5H0.4V15.5H1.6ZM2.5 16.4C2.00294 16.4 1.6 15.9971 1.6 15.5H0.4C0.4 16.6598 1.3402 17.6 2.5 17.6V16.4ZM19.5 16.4H2.5V17.6H19.5V16.4ZM20.4 15.5C20.4 15.9971 19.9971 16.4 19.5 16.4V17.6C20.6598 17.6 21.6 16.6598 21.6 15.5H20.4ZM20.4 5.5V15.5H21.6V5.5H20.4ZM19.5 4.6C19.9971 4.6 20.4 5.00294 20.4 5.5H21.6C21.6 4.3402 20.6598 3.4 19.5 3.4V4.6ZM16.6 4.6H19.5V3.4H16.6V4.6ZM15.0603 2.1194L16.0563 4.25373L17.1437 3.74627L16.1477 1.61194L15.0603 2.1194ZM14.2447 1.6C14.5944 1.6 14.9124 1.80254 15.0603 2.1194L16.1477 1.61194C15.8027 0.872584 15.0606 0.4 14.2447 0.4V1.6ZM7.75529 1.6H14.2447V0.4H7.75529V1.6Z" fill="url(#paint0_linear_1611_86)"/>
<circle cx="11" cy="10" r="3.4" stroke="url(#paint1_linear_1611_86)" stroke-width="1.2"/>
<defs>
<linearGradient id="paint0_linear_1611_86" x1="11" y1="1" x2="11" y2="17" gradientUnits="userSpaceOnUse">
<stop stop-color="#00254E"/>
<stop offset="1" stop-color="#007AFF"/>
</linearGradient>
<linearGradient id="paint1_linear_1611_86" x1="11" y1="6" x2="11" y2="14" gradientUnits="userSpaceOnUse">
<stop stop-color="#00254E"/>
<stop offset="1" stop-color="#007AFF"/>
</linearGradient>
</defs>
</svg>
