<svg width="24" height="24" viewBox="0 0 24 24" fill="none" xmlns="http://www.w3.org/2000/svg">
<path d="M9.43057 8.36106C10.1607 7.52678 10.0762 6.25642 9.24191 5.52626L6.92165 3.49754C6.51737 3.1435 5.99918 2.96709 5.46629 3.00507C4.92972 3.03938 4.44092 3.28071 4.08933 3.68621L2.93531 5.00315C2.20763 5.83373 1.88175 6.93138 2.03856 8.01681C2.32767 10.0051 3.3751 13.0249 6.74656 16.1304L8.1419 17.353C11.6823 20.3262 14.8404 20.9755 16.8692 21H16.9133C17.9987 21 19.0265 20.5332 19.7456 19.7112L20.8996 18.3943C21.6298 17.56 21.5452 16.2896 20.711 15.5595L18.3968 13.5332C17.9926 13.1792 17.4719 13.0028 16.9353 13.0408C16.3988 13.0788 15.9063 13.3225 15.5559 13.7305L14.8944 14.4925C14.6187 14.8122 14.1924 14.9506 13.8065 14.8404C11.0746 14.0723 9.40617 11.7104 8.6538 10.3714C8.42471 9.96342 8.47494 9.45257 8.78243 9.10465L9.43057 8.36106ZM8.48605 7.53415L7.83065 8.28388C7.17526 9.03361 7.06255 10.1215 7.55134 10.99C8.39785 12.4981 10.2918 15.1614 13.4599 16.0521C14.31 16.291 15.2448 16.0019 15.8365 15.3146L16.4956 14.5526C16.6279 14.3995 16.8129 14.3076 17.0125 14.2929C17.2134 14.2807 17.4082 14.3468 17.5614 14.4779L19.8755 16.5041C20.1891 16.7773 20.221 17.2563 19.9478 17.5675L18.7938 18.8844C18.3074 19.4394 17.6079 19.753 16.8778 19.7432C15.0561 19.7211 12.198 19.1221 8.95269 16.3963L7.5794 15.1921C4.48978 12.345 3.53438 9.61911 3.2769 7.83181C3.174 7.11025 3.38961 6.37645 3.87597 5.82147L5.02998 4.50454C5.16229 4.35386 5.34727 4.2632 5.54695 4.24728C5.56287 4.24728 5.58125 4.2436 5.59718 4.2436C5.77848 4.2436 5.95489 4.30975 6.09209 4.43226L8.41235 6.46098C8.72719 6.74274 8.75925 7.22054 8.48605 7.53415Z" fill="url(#paint0_linear_1611_91)"/>
<defs>
<linearGradient id="paint0_linear_1611_91" x1="11.6982" y1="3" x2="11.6982" y2="21" gradientUnits="userSpaceOnUse">
<stop stop-color="#00254E"/>
<stop offset="1" stop-color="#007AFF"/>
</linearGradient>
</defs>
</svg>
