<svg width="23" height="15" viewBox="0 0 23 15" fill="none" xmlns="http://www.w3.org/2000/svg">
<path d="M22.194 1.5636C22.0156 1.43721 21.7868 1.40568 21.5811 1.4779L16.7233 3.7942V2.82968C16.7233 1.26931 15.454 0 13.8936 0H2.82968C1.26931 0 0 1.26931 0 2.82968V12.1703C0 13.7307 1.26931 15 2.82968 15H13.8936C15.454 15 16.7233 13.7307 16.7233 12.1703V11.2061L21.5811 13.5229C21.6539 13.5485 21.7294 13.5612 21.8048 13.5612C21.9425 13.5612 22.0789 13.5191 22.1942 13.4372C22.3726 13.3108 22.4786 13.106 22.4786 12.8874V2.11337C22.4783 1.89481 22.3724 1.68972 22.194 1.5636ZM15.3758 12.1703C15.3758 12.9874 14.711 13.6525 13.8936 13.6525H2.82968C2.01231 13.6525 1.34747 12.9874 1.34747 12.1703V2.82968C1.34747 2.01231 2.01231 1.34747 2.82968 1.34747H13.8936C14.711 1.34747 15.3758 2.01231 15.3758 2.82968V4.74497V10.2548V12.1703ZM21.1308 11.9361L16.7233 9.77776V5.22224L21.1308 3.06441V11.9361Z" fill="url(#paint0_linear_1611_83)"/>
<defs>
<linearGradient id="paint0_linear_1611_83" x1="11.2393" y1="0" x2="11.2393" y2="15" gradientUnits="userSpaceOnUse">
<stop stop-color="#00254E"/>
<stop offset="1" stop-color="#007AFF"/>
</linearGradient>
</defs>
</svg>
