<svg width="231" height="420" viewBox="0 0 231 420" fill="none" xmlns="http://www.w3.org/2000/svg">
<path d="M0.979103 212.582C0.979103 184.855 0.482446 157.117 1.17777 129.416C1.55027 114.814 2.55601 99.9263 5.83398 85.759C11.1855 62.6394 24.1732 43.6297 42.1275 27.9227C62.441 10.1547 86.256 0.85467 112.827 0.13451C138.468 -0.560816 162.208 6.67803 182.931 22.5588C216.431 48.2238 230.412 83.0522 230.549 124.201C230.735 182.745 230.561 241.301 230.598 299.845C230.611 322.021 225.93 343.154 214.506 362.164C202.152 382.738 185.34 398.879 163.313 409.396C139.511 420.77 114.913 422.545 89.5712 416.784C67.9912 411.88 49.5775 400.866 34.5907 384.874C24.1608 373.748 15.4444 361.295 9.63344 346.718C4.15774 332.972 1.27711 318.991 1.14052 304.439C0.867361 273.82 1.0536 243.201 1.0536 212.582C1.02877 212.582 0.991546 212.582 0.966713 212.582H0.979103ZM159.427 211.315H159.464C159.464 183.589 159.551 155.863 159.402 128.149C159.365 121.345 158.98 114.478 157.949 107.761C154.721 86.7151 140.28 73.3673 118.266 70.5239C102.36 68.4752 83.1642 80.3081 76.6207 97.8279C73.5166 106.147 72.0142 115.534 71.9521 124.449C71.5423 181.751 71.6168 239.066 71.8403 296.381C71.89 308.015 73.8022 319.414 80.6188 329.483C94.4012 349.859 121.68 356.129 142.155 338.759C154.299 328.465 159.737 315.44 159.538 299.448C159.166 270.07 159.427 240.693 159.427 211.315Z" fill="white"/>
</svg>
